<?xml version="1.0" encoding="UTF-8"?>
<svg id="Capa_1" xmlns="http://www.w3.org/2000/svg" version="1.1" viewBox="0 0 1920 1080">
  <!-- Generator: Adobe Illustrator 29.5.1, SVG Export Plug-In . SVG Version: 2.1.0 Build 141)  -->
  <defs>
    <style>
      .st0 {
        fill: #ec6642;
      }
    </style>
  </defs>
  <path class="st0" d="M1920,61.3c0-30-24.5-54.5-54.8-54.5s-47.5,17.8-53.2,41.7c-5.7-23.9-27.4-41.7-53.2-41.7s-47.5,17.8-53.2,41.7c-5.7-23.9-27.4-41.7-53.2-41.7s-47.5,17.8-53.2,41.7c-5.7-23.9-27.4-41.7-53.2-41.7s-47.5,17.8-53.2,41.7c-5.7-23.9-27.4-41.7-53.2-41.7s-47.5,17.8-53.2,41.7c-5.7-23.9-27.4-41.7-53.2-41.7s-47.5,17.8-53.2,41.7c-5.7-23.9-27.4-41.7-53.2-41.7s-47.5,17.8-53.2,41.7c-5.7-23.9-27.4-41.7-53.2-41.7s-47.5,17.8-53.2,41.7c-5.7-23.9-27.4-41.7-53.2-41.7s-47.5,17.8-53.2,41.7c-5.7-23.9-27.4-41.7-53.2-41.7s-47.5,17.8-53.2,41.7c-5.7-23.9-27.4-41.7-53.2-41.7s-47.5,17.8-53.2,41.7c-5.7-23.9-27.4-41.7-53.2-41.7s-47.5,17.8-53.2,41.7c-5.7-23.9-27.4-41.7-53.2-41.7s-47.5,17.8-53.2,41.7c-5.7-23.9-27.4-41.7-53.2-41.7s-47.5,17.8-53.2,41.7c-5.7-23.9-27.4-41.7-53.2-41.7s-47.5,17.8-53.2,41.7c-5.7-23.9-27.4-41.7-53.2-41.7s-47.5,17.8-53.2,41.7c-5.7-23.9-27.4-41.7-53.2-41.7s-47.5,17.8-53.2,41.7c-5.7-23.9-27.4-41.7-53.2-41.7S0,31.3,0,61.3s.3,6.7.9,9.8h-.9v1008.9h1920V61.3Z"/>
</svg>