<?xml version="1.0" encoding="UTF-8"?>
<svg id="Capa_1" xmlns="http://www.w3.org/2000/svg" version="1.1" viewBox="0 0 1920 1080">
  <!-- Generator: Adobe Illustrator 29.5.1, SVG Export Plug-In . SVG Version: 2.1.0 Build 141)  -->
  <defs>
    <style>
      .st0 {
        fill: #ced979;
      }
    </style>
  </defs>
  <path class="st0" d="M1920,272.3c0-30.2-24.5-54.8-54.8-54.8s-47.5,17.9-53.2,42c-5.7-24.1-27.4-42-53.2-42s-47.5,17.9-53.2,42c-5.7-24.1-27.4-42-53.2-42s-47.5,17.9-53.2,42c-5.7-24.1-27.4-42-53.2-42s-47.5,17.9-53.2,42c-5.7-24.1-27.4-42-53.2-42s-47.5,17.9-53.2,42c-5.7-24.1-27.4-42-53.2-42s-47.5,17.9-53.2,42c-5.7-24.1-27.4-42-53.2-42s-47.5,17.9-53.2,42c-5.7-24.1-27.4-42-53.2-42s-47.5,17.9-53.2,42c-5.7-24.1-27.4-42-53.2-42s-47.5,17.9-53.2,42c-5.7-24.1-27.4-42-53.2-42s-47.5,17.9-53.2,42c-5.7-24.1-27.4-42-53.2-42s-47.5,17.9-53.2,42c-5.7-24.1-27.4-42-53.2-42s-47.5,17.9-53.2,42c-5.7-24.1-27.4-42-53.2-42s-47.5,17.9-53.2,42c-5.7-24.1-27.4-42-53.2-42s-47.5,17.9-53.2,42c-5.7-24.1-27.4-42-53.2-42s-47.5,17.9-53.2,42c-5.7-24.1-27.4-42-53.2-42s-47.5,17.9-53.2,42c-5.7-24.1-27.4-42-53.2-42s-47.5,17.9-53.2,42c-5.7-24.1-27.4-42-53.2-42S0,242.1,0,272.3s.3,6.7.9,9.9h-.9v797.8h1920V272.3Z"/>
</svg>