<?xml version="1.0" encoding="UTF-8"?>
<svg id="Capa_1" xmlns="http://www.w3.org/2000/svg" version="1.1" viewBox="0 0 30 30">
  <!-- Generator: Adobe Illustrator 29.5.1, SVG Export Plug-In . SVG Version: 2.1.0 Build 141)  -->
  <defs>
    <style>
      .st0 {
        fill: #fbdd9d;
      }

      .st1 {
        fill: #71160d;
      }
    </style>
  </defs>
  <path class="st0" d="M18.8,27.4C9.3,30.3.2,21.9,2.3,12.2,4.4,2.7,15.8-1.2,23.3,5c8,6.6,5.4,19.4-4.5,22.4Z"/>
  <g>
    <path class="st1" d="M23.8,3.2C16.9-2,7.1-.1,2.5,7.1-1.6,13.7,0,22.3,6.2,26.9c7.2,5.3,17.4,3,21.7-4.7,3.6-6.5,1.8-14.6-4.1-19ZM18.8,27.4C9.3,30.3.2,21.9,2.3,12.2,4.4,2.7,15.8-1.2,23.3,5c8,6.6,5.4,19.4-4.5,22.4Z"/>
    <path class="st1" d="M11.4,18c0,0,0,.1.1.2.2.2.8.7.9,1,.3.8-.6,1.5-1.3,1s-.8-.8-1.2-1.2-1.2-1.1-1.4-1.4-.1-.7.1-1c.8-.7,1.5-1.7,2.3-2.4s1.8.3,1.3,1.1l-.9.9h0s6.9,0,6.9,0c2.5-.3,2.6-3.9.1-4.3-2,0-4,.1-6,0s-1.3-1.3-.3-1.7h6.4c2.4.3,3.9,2.6,3.3,4.9-.4,1.4-1.8,2.7-3.4,2.7-2.3.1-4.7-.1-7,0h-.2Z"/>
  </g>
</svg>