<?xml version="1.0" encoding="UTF-8"?>
<svg id="Capa_2" data-name="Capa 2" xmlns="http://www.w3.org/2000/svg" viewBox="0 0 203.33 344.46">
  <defs>
    <style>
      .cls-1 {
        fill: #c0d22e;
      }

      .cls-2 {
        fill: #eb6743;
      }
    </style>
  </defs>
  <g id="Capa_1-2" data-name="Capa 1">
    <g>
      <path class="cls-1" d="M201.99,310.95c-2.93,5.68-10.78,7.42-22.48,8.4l-.62.05c-4.44.38-8.14.56-11.66.56-1.14,0-2.26-.02-3.35-.06.34,1.79.33,3.76-.32,5.84-1.49,4.76-6.14,6.83-9.67,7.14-.01,0-.02,0-.04,0-.37.03-.77.05-1.18.05-6.2,0-19.64-3.98-24.08-6.68-3.47-2.09-6.18-5.53-7.58-9.37-2.63,1.4-5.51,2.74-8.51,3.8-2.21.78-9.02,2.79-14.01,2.79-1.4,0-2.62-.15-3.71-.47-4.38-1.26-8.01-2.94-11.51-4.56-1.85-.85-3.59-1.66-5.46-2.42-1.87-.76-3.6-1.21-5.33-1.39-.55,4.24-1.49,8.68-3.41,12.79-3.75,8.06-9.62,9.66-14.32,10.94-1.33.36-2.59.7-3.9,1.19-1.13.42-2.31,1.02-3.56,1.65-1.26.64-2.56,1.3-4.01,1.89-2.25.91-4.3,1.36-6.24,1.36-3.83,0-7.07-1.81-8.9-4.96-1.37-2.36-1.75-5.09-1.53-7.78-6.93-.55-14.74-2.42-19.07-8.8-3.12-4.62-2.85-8.7-2.08-11.31,1.23-4.15,4.61-7.58,9.53-9.66,1.04-.44,2.56-.87,5.08-1.57-1.82-3.14-3.94-6.23-6.16-9.48-6.98-10.21-14.9-21.79-13.8-37.07.78-10.91,8.23-25.67,20.47-28.05-1.06-3.73-1.99-7.71-2.58-11.82-2.5-17.54,1.46-29.33,5.65-41.82,1.26-3.75,2.54-7.58,3.69-11.7-.07.02-.14.04-.22.06-.58.17-1.16.25-1.74.25-2.4,0-4.67-1.39-5.72-3.68-.48-1.05-.65-2.17-.54-3.26-1.63-3.67-1.73-7.73-.22-11.55.15-.37.31-.73.48-1.09-.25-.06-.51-.13-.8-.22-.64.19-1.29.29-1.92.29-.06,0-.14,0-.2,0-3.3-.1-5.97-2.73-6.1-6.04-.19-4.92,1.43-9.45,4.59-12.73,3-3.12,7.22-4.91,11.59-4.91.93,0,1.84.08,2.73.22-1-5.09-.35-10.28,1.95-15.04.19-.4.42-.8.74-1.3-.21-.86-.36-1.56-.41-2.26-.31-3.76.07-7.25.43-10.63.4-3.75.78-7.29.03-10.4-.73-3.04-2.45-5.73-4.44-8.85-1.46-2.3-2.98-4.67-4.23-7.41-3.66-7.99-2.62-15.69-1.7-22.48.5-3.7.98-7.19.75-10.62-.07-1.04-.53-3.06-.94-4.84-1.08-4.72-2.09-9.18-.92-12.87,1.58-5.03,6.8-7.67,11.14-7.67.19,0,.37,0,.55.01,11.06.56,20.79,12.35,28.61,21.82,1.79,2.16,3.48,4.22,4.87,5.72.38-.19.77-.4,1.18-.62,1.43-.77,3.21-1.73,5.37-2.32,1.97-.54,4.04-.82,6.12-.82,5.12,0,9.66,1.65,13.66,3.1,1.34.49,2.63.96,3.89,1.35.36-1.17.71-2.61.94-3.55.38-1.52.73-2.96,1.17-4.17,5.03-13.9,15.71-16.43,25.14-18.67,1.93-.46,3.91-.93,5.85-1.49.94-.27,2.27-.78,3.55-1.28,2.55-.98,5.18-1.99,7.58-2.34.79-.11,1.55-.17,2.27-.17,3.83,0,7.03,1.65,9.02,4.65,1.51,2.28,2.05,4.92,2.37,7.21,1.02,7.2,1.82,20.78.4,28.42-.88,4.76-2.88,8.48-4.65,11.75-1.12,2.08-2.18,4.05-2.8,6.03-1.02,3.24-1.04,7.11-1.06,11.2-.01,2.39-.02,4.85-.24,7.33-.75,8.55-3.22,16.86-7.36,24.78.36.55.74,1.15,1.09,1.82,3.35,6.21,4.37,12.7,3.06,18.62,3.07,1.62,5.5,3.99,6.96,6.89,2.29,4.56,1.92,9.82-1.03,14.81,0,0-.01.02-.02.03-.21.36-.46.71-.73,1.07.14.56.28,1.12.42,1.69,3.87,15.43,7.87,31.39,10.49,47.28,1.43,8.67,2.23,16.98,2.42,25.17,1.46-.34,2.94-.51,4.43-.51,5.91,0,11.89,2.74,16.84,7.71,4.27,4.3,7.52,9.93,9.15,15.87,3.68,13.43.17,25.22-3.22,36.61-1.35,4.55-2.63,8.85-3.46,13.22,0,0-.07.36-.09.49.33,0,.65-.01.95-.01.86,0,1.49.03,2.06.09,4.02.46,11.59,2.76,14.62,8.43,1.71,3.21,1.68,6.87-.09,10.29Z"/>
      <path class="cls-2" d="M186.76,298.48c-1.86-.21-6.66.32-7.92-.5-1.72-1.14-.82-5.72-.49-7.49,2.98-15.76,11.35-30.35,6.8-47-3.69-13.43-18.07-26.18-30.75-14.15.5-11.65-.34-23.2-2.24-34.73-2.83-17.11-7.28-34.33-11.48-51.15-.03-.49,1.67-2.42,2.11-3.15,4.57-7.71-1.12-13.7-8.86-14.52,3.94-6.24,3.14-13.34-.25-19.62-.86-1.61-2.06-2.96-2.88-4.58,4.63-7.8,7.62-16.44,8.42-25.53.56-6.52-.41-13.58,1.56-19.87,1.86-5.94,6.03-10.39,7.27-17.05,1.24-6.66.53-19.52-.44-26.38-.59-4.14-1.67-7.06-6.53-6.35-2.82.41-7.28,2.57-10.29,3.43-11.38,3.3-22.08,3.15-26.83,16.27-1.08,2.95-1.98,10.02-4.35,11.79-1.22.92-2.3.66-3.69.31-7.28-1.87-13.99-6.29-22.01-4.1-2.61.71-4.69,2.37-7.1,3.24-2.57.93-3.48.22-5.25-1.62-6.94-7.27-18.84-25.47-29.63-26.02-2.11-.1-4.72,1.16-5.38,3.27-1.05,3.3,1.86,11.29,2.14,15.39.72,10.82-4.26,20.75.4,30.91,2.74,6,7.48,10.75,9.07,17.41,1.74,7.27-.92,14.55-.31,21.99.07.93.91,3.45.87,3.86-.02.22-1.53,2.36-1.8,2.92-5.38,11.11,2.17,23.85,13.46,26.95-3.02-.12-5.87.4-8.67,1.56.3-1.9-1.05-3.94-3.01-4.1-.57-.04-2.17.3-2.27.24-.1-.06-.84-1.55-1.24-2.02-6.96-8.15-18.96-3.86-18.53,6.85.5.02.26-.91.62-.97.21-.04,3.01.97,3.7,1.11,4.31.81,8.77.26,13-.62v2.87c-7.22,1.27-13,9.17-7.93,15.9h.06c-.1.12-.38.99-.72,1.21,4.2-1.21,8.15-5.22,10.08-9.07.56-1.11,1.7-5.16,2.08-5.63.22-.26.99-.34,1.09-.24.25.24-1.61,5.82-1.81,6.74-.74,3.2-1.16,6.48-1.87,9.68-4.76,21.36-14.08,33.62-10.73,57.12.97,6.81,3.01,13.44,5.26,19.9-13.09-5.84-22.33,10.41-23.11,21.31-1.28,17.97,12.06,30.1,19.93,44.35.59,1.08,2.83,4.79,1.98,5.73-.58.65-9.02,2.61-10.83,3.37-5.04,2.14-8.23,6.43-4.69,11.66,4.35,6.43,15.35,6.25,22.24,6.28-3.41,5.96-3.63,15.48,5.94,11.6,2.59-1.05,5.01-2.59,7.72-3.6,6.46-2.4,11.38-1.74,14.71-8.89,2.31-4.98,2.96-10.78,3.4-16.21,4.78-.74,8.96-.16,13.4,1.63,5.66,2.3,10.27,5.01,16.35,6.77,3.07.88,10.75-1.11,13.89-2.21,5.6-1.97,10.92-5.1,15.83-8.37v4.7c0,3.8,2.42,7.87,5.62,9.8,3.83,2.33,17.13,6.1,21.46,5.74,1.64-.15,3.7-1.06,4.23-2.76,1.28-4.1-2.71-7.94-4.11-11.45,8.15,1.65,16.64,1.43,24.91.72,4.12-.35,16.02-1.16,18.04-5.07,3.01-5.82-5.29-9.08-9.64-9.58h0ZM35.93,139.85c-3.07,4.32-5.56,9.1-9.14,13.03-.24.26-.69.29-.74.34v.02-.02c.06-1.38-.31-2.53-.21-3.94.32-4.55,4.82-8.81,8.39-11.23.16.77.88,1.47,1.7,1.44v.35h0ZM35.75,130.86c-.75.78-1.41,1.22-1.67,2.4-5.57-.94-11.14.47-16.72.46,2.29-5.17,6.56-7.92,12.29-6.63,2.45.54,4.17,2.01,6.25,3.27.1.37.01.31-.16.5ZM141.46,12.36c.31.09.32.34.38.59.74,3.65.59,8.71.72,12.53.46,12.57.03,13.64-5.25,24.59-.3.6-.99,2.99-1.59,2.99-.24,0-1.95-1.11-2.27-1.36-3.96-3.08-3.9-7.9-3.34-12.46.97-8.02,4.73-16.1,3.09-24.23l-.03-.02c1.37-.06,7.5-2.87,8.28-2.64ZM110.93,24.67c4.54-6.94,13.65-6.97,20.8-9.17v-.02.02c-.65,10.51-8.5,21.1-4.98,31.82,1.39,4.24,4.42,6.59,8.62,7.81-1.8,6.88-.47,13.94-.74,20.93-.16,4.13-.72,8.33-1.62,12.35-.9,4.03-2.42,8.02-3.33,12.09-3.83-4.04-8.39-7.29-13.05-10.3-4.66-3.01-16.8-9.09-19.44-13.78-2.64-4.69,1.74-7.52,3.82-11.09,3.48-5.96,2.42-11.41-.87-17.16l-2.59-4.03c10.89.13,9.27-13.21,13.38-19.49h0ZM39.29,66.53c-1.61-3.71-4.51-7.1-5.79-10.95-2.23-6.69.59-13.47.97-20.24.4-6.93-.84-13.19-2.4-19.87.46.12,1.5.18,1.65.64.19.58.16,2.89.31,3.79,1.25,8.33,5,15.79,7.25,23.8,2.26,8.02,2.83,15.99-1.99,22.82v.02h0ZM40.59,99.42c-.21-5.19,2.17-10.96,2.54-16.15.41-5.72-.68-10.98-3.36-16.01,3.89-2.61,6.22-8.06,6.74-12.65,1.55-13.78-7.35-24.78-10.58-37.44,3.79,2.3,6.71,5.63,9.73,8.81h.02c1.53,1.62,3.12,3.23,4.6,4.91,2.96,3.4,8.37,11.78,12.81,12.47,3.01.47,5.38-.37,8-1.62.12.12-1.39,2.73-1.56,3.14-3.24,7.47-3.42,15.03-.49,22.62,2.93,7.59,7.21,11.13-1.02,17.05-8.29,5.97-20.06,7.43-27.15,15.45-.4-.24-.25-.32-.26-.59h0ZM48.02,101.35c8.02-5.97,26.49-9.86,29.45-20.15,2.03-7.08-3.49-12.4-5.51-18.54-1.8-5.47-1.52-11.34-.31-16.91.22-1.02,1.22-4.86,1.86-5.36,4.63-3.55,16.54,2.08,21.59,3.43l.52.44c1.48,4.05,4.14,8.77,3.88,13.21-.47,7.62-10.94,10.72-7.34,20.11,3.35,8.73,22.86,17.17,30.46,23.97,5.62,5.03,12.25,15.49,5.46,22.2v.03c-5.46,5.36-16.38,3.61-22.73.85-6.35-2.76-11.68-8.52-19.09-8.24.68-3.8.43-7.68.52-11.53,6.12-.93,11.14-11.35,2.48-12.76-2.26-.37-6.12-.87-8.34-.46-1.52.28-4.19,1.37-4.88,2.82-2.17,4.51,5.1,6.84,7.47,9.4l2.05,12.52c-10.8-.15-14.8,10.83-25.63,11.56-16.07,1.08-26.65-15.58-11.88-26.58h0ZM115.84,133.01v.02h-.02l-4.07,2.27c-7.25,3.05-12.91.4-20.34.85-8.99.54-17.5,5.49-26.49,2.17-3.37-1.25-6.32-3.55-9.74-4.7,3.09,0,6.18.1,9.26-.62,10.61-2.48,15.24-14.73,27.02-9.65,2.76,1.2,5.36,3.3,8.02,4.75,5.11,2.77,10.51,4.58,16.35,4.94h.02s0-.02,0-.02ZM41.37,136.36c.41-.54,3.49-.94,4.31-.99,8.93-.46,13.16,6.44,21.02,8.37,9.83,2.4,18.91-2.61,28.57-2.09,7.97.43,11.12,2.18,19.13-1.34,6.07-2.67,14.75-11.19,21.52-8.27,5.17,2.23,2.05,5.64-.71,8.26v.03c-7.89,7.47-19.01,12.4-27.27,20.28-6.07,5.81-9.76,13.49-14.71,20.19-.79.82-2.85-.8-3.7-1.37-6-4.1-9.97-10.55-15.45-15.12-5.97-4.97-13.24-7.71-19.34-12.44-3.9-3.02-9.04-7.58-12.54-11.05-.41-.41-1.96-1.87-1.89-2.37.01-.12.99-1.99,1.06-2.08h0ZM35.77,323.73c-4.38-1.12-9.04-1.3-13.33-2.8-2.29-.81-8.15-3.74-6.13-6.84,1.44-2.24,10.25-3.26,13.06-4.27,10.83-3.89-.04-16.7-3.55-22.35-.07-.19.41-.02.47-.28.65-2.36.88-8.51.74-11.04-.4-7.1-3.54-14.96-12.06-13.24-.63.13-1.87.9-2.42.52-.31-.22-1.13-5.07-1.18-5.81-.72-9.8,5.57-26.35,18.06-22.76-1.05,2.49-1.99,5.09-2.18,7.81-.52,7.44,4.22,25.88,8.09,32.38,2.42,4.07,5.94,7.22,9.36,10.38.97,7.38,1.61,15.11-.53,22.33-1.72,5.84-5.66,10.61-8.4,15.96h0ZM137.73,317.35c-5.87-2.25-5.81-4.39-5.87-10.33-.18-16.18,2.65-31.42-1.67-47.62-2.62-9.82-8.62-18.04-11.97-27.52-5.37-15.18-3.2-31.76-.72-47.33l-1.15,1.61c-5.45,9.46-6.99,28.26-5.31,38.93,1.37,8.73,5.04,16.42,8.87,24.25-6.34,1.43-12.03,6.4-14.39,12.47-.75,1.95-1.07,4.03-1.74,5.97-1.96,5.78-6.99,8.86-10.3,13.77-6.13,9.08-5.85,19.52-1.25,29.21-8.36-2.47-16.8-7.83-25.52-3.12.49-5.22.16-10.53.24-15.79.13-9.11.41-18.34,1.49-27.4.26-2.23.6-6.97,1.24-8.88.21-.6,1.69-2.25,2.21-2.84,2.21-2.49,4.95-4.75,7.22-7.22,4.94-5.35,13.41-16.47,8.17-23.84-1.41-1.99-5.08-5.32-7.56-5.56,1.61-5.17,4.69-10.21,5.06-15.77.37-5.56-2.3-12.26-6.74-16.01,2.52,6.1,4.69,12.5,2.17,19.03l-1.15-3.54c-3.21-4.23-5.35,1.81-6.13,4.55-2.3,8.09-2.29,16.63-3.32,24.85-.34,2.64-1.83,6.52-2.46,9.33-3.09,13.75-5.29,28.35-5.7,42.45-.31,10.6,1.29,32.94-3.49,41.8-2.17,4.01-7,3.89-11.01,5.35-2.81,1.03-5.45,2.48-8.12,3.79,1.67-6.96,6.85-12.43,9.6-18.94,7.12-17-.5-45.52-6.35-62.45-1.89-5.48-4.17-10.82-6.13-16.26-.35-.99-2.62-7.16-2.37-7.56.04-.06,1.06-.38,1.4-.65,4.14-3.15,7.22-4.16,9.69-9.33,3.49-7.34,1.52-11.98,1.16-19.31-.4-8.36,5.84-17.69,2.02-25.62-1.95-4.03-6.49-6.63-10.92-6.18,1.97-8.05,2.29-16.4,2.17-24.67l4.69,5.78c2.18,2.1,4.07,4.55,6.22,6.66l-.02-.03c6.3,6.12,13.83,9.12,20.14,14.65,4.97,4.35,8.59,10.07,13.84,14.33,3.88,3.14,9.45,7.24,13.59,2.29,3.6-4.29,6.52-10.31,9.92-14.89,7.85-10.55,21.29-16.43,31.25-24.73l1.67,13.34c-.12.41-2.14.87-2.71,1.15-5.62,2.62-12.22,8.42-12.04,15.17.15,5.68,4.22,9.17,7.27,13.38,2.27,3.12,3.51,7.09,7.74,8.15,1.95.49,4.07,0,6.03-.13.62,5.57,1.56,11.14,1.91,16.74,1.25,19.71-2.76,38.91-5.26,58.31-1.59,12.32-3.38,24.85,1.22,36.76,1.77,4.59,4.61,8.64,6.93,12.94-.56.44-12.2-2.92-13.72-3.49h.01Z"/>
      <path class="cls-2" d="M118.89,114.78c2.31,2.38,4.14,6.24,4.42,9.55l-10.83-13.61c.75-.06,1.75.6,2.39.99,1.21.71,3.07,2.1,4.03,3.08v-.02h0Z"/>
      <path class="cls-2" d="M115.6,125.54l-12.03-11.79c5.6,1.76,10.29,6.18,12.03,11.79Z"/>
      <path class="cls-2" d="M59.28,111.57c-2.79,2.7-5.51,6.68-5.56,10.72,0,1.16.59,2.31.38,3.49-4.6-5.2-1.18-12.72,5.17-14.21Z"/>
      <path class="cls-2" d="M61.19,125.77l-.65-2.11c-.53-4.45,2.23-8.3,5.96-10.4l-3.4,6.34c-.82,2.01-1.65,4.01-1.89,6.18h-.02Z"/>
      <path class="cls-2" d="M111.45,69.95c4.81-.94,5.16,7.43-.54,6.94-4.07-.35-3.09-6.22.54-6.94Z"/>
      <path class="cls-2" d="M106.94,64.85c.19-.37,1.06-.68,1.44-.84,6-2.39,11.87.4,12.26,7.1-1.21-1.65-1.99-3.14-3.77-4.29-1.15-.73-4.2-1.97-5.5-1.97h-4.45.02Z"/>
      <path class="cls-2" d="M58.25,71.9c6.52-1.09,5.28,7.96-.53,7.66-4.61-.25-3.54-6.97.53-7.66Z"/>
      <path class="cls-2" d="M56.75,68.47c-2.49.26-5.53,1.62-7.83,2.65-.28-.3,1.87-2.27,2.18-2.51,3.29-2.49,8.06-2.98,11.06.1-.4.18-.9-.24-1.07-.24-1.35,0-3.04-.13-4.33,0h0s0-.01,0-.01Z"/>
    </g>
  </g>
</svg>