<?xml version="1.0" encoding="UTF-8"?>
<svg id="Capa_2" data-name="Capa 2" xmlns="http://www.w3.org/2000/svg" viewBox="0 0 155.92 134.85">
  <defs>
    <style>
      .cls-1 {
        fill: #ec6642;
      }

      .cls-2 {
        fill: #dedf50;
      }
    </style>
  </defs>
  <g id="Capa_1-2" data-name="Capa 1">
    <g>
      <path class="cls-2" d="M153.05,59.72c-2.66,3.1-5.64,3.75-7.67,3.75-1.78,0-3.43-.47-4.97-1.23.62,8.47.76,18.12.38,27.66l-.02.32c-.22,5.82-.69,11.81-3.59,15.46-3.2,4.03-9.51,5.46-13.93,5.46-6.15,0-10.79-2.63-12.41-7.02-1.18-3.21-.9-7.73-.64-12.1.13-2.06.24-4.01.17-5.32-.5-9.07-3.56-14.87-5.44-14.87-.43,0-2.06.22-5.08,3-4.81,4.45-6.58,10.35-6.12,20.37.07,1.47.4,3.65.76,5.95.75,4.88,1.53,9.94.67,13.5-1.28,5.27-5.45,7.28-7.95,8.48-5.81,2.79-17.85,8.1-25.36,10.42-2.9.9-5.14,1.3-7.27,1.3-4.45,0-7.51-1.77-11.74-4.21l-.49-.28c-9.78-5.65-22.69-16.47-30.39-24.25-4.85-4.91-4.6-9.6-4.36-14.14l.04-.77c.15-3.1.59-6.25,1.01-9.3.33-2.33.63-4.53.81-6.65.16-1.9.25-3.81.33-5.82.12-2.57.24-5.2.53-7.87-4.38-2.15-12.27-6.13-9.88-15.32,1.75-6.74,10.58-14.06,21.94-22.92,2.34-1.82,4.35-3.39,5.66-4.53,1.13-.99,2.22-2.1,3.37-3.27,1.5-1.52,3.05-3.08,4.83-4.55C45.52,3.38,54.24,0,64.51,0c6.55,0,13.08,1.32,20.63,2.86,1.64.33,3.33.67,5.06,1.01,19.67,3.83,24.51,6.99,38.45,20.02,1.71,1.61,3.4,3.36,5.02,5.04,2.11,2.19,4.09,4.26,6.1,5.98.69.6,2.03,1.55,3.44,2.56,7.13,5.07,12.21,9.04,12.66,14.06.27,2.99-.66,5.67-2.82,8.19Z"/>
      <path class="cls-1" d="M150.9,51.98c-.37-4.22-11.05-10.41-14.39-13.28-3.83-3.3-7.5-7.63-11.27-11.16-13.53-12.65-17.43-15.16-35.99-18.77-20.13-3.92-32.5-8.12-49.85,6.07-2.9,2.37-5.28,5.27-8.08,7.72-6,5.23-24.14,17.57-26.05,24.93-1.76,6.79,6.16,8.62,10.49,11.3-1.01,5.58-.84,11.26-1.32,16.89-.44,5.16-1.55,10.67-1.81,15.78-.24,4.78-.61,7.62,2.89,11.15,7.57,7.65,20.07,18.09,29.34,23.44,6.21,3.58,8.32,4.98,15.54,2.74,6.77-2.1,18.16-7.02,24.67-10.16,2.42-1.16,4.57-2.3,5.26-5.15.99-4.08-1.34-13.24-1.56-18.05-.43-9.17.68-17.76,7.73-24.26,13.19-12.18,18.26,4.12,18.87,15.25.24,4.37-1.12,12.46.18,15.98,2.08,5.69,14.53,4.24,17.76.18,2.18-2.76,2.37-9.31,2.52-12.89.4-9.97.26-21.36-.72-31.25-.26-2.58-.78-5.15-1.07-7.72,3.95,3.11,10.21,11.61,15.26,5.74,1.14-1.32,1.78-2.69,1.63-4.49h-.03ZM132.21,58.8c-.62,10.16-.7,20.39-1.8,30.51-.17,1.59-.93,8.95-1.8,9.69-.78.66-6.59,1.34-7.12.5-.27-.42.64-7.14.68-8.37.44-12.16-2.88-32.75-19.22-31.06-7.32.75-15.2,9.2-18.2,15.55-5.15,10.9-2.66,24.09-1.07,35.53-.25,1.09-8.4,3.7-9.99,4.38-4.68,1.98-9.78,4.76-14.55,6.29-1.8.58-3.74,1.38-5.67.99-1.76-.36-8.05-4.32-9.92-5.51-9.02-5.76-17.09-13.46-25.34-20.26-.28-3.5-.27-7.09-.2-10.6.01-.85.38-1.63.38-2.49.11-8.24-.04-16.44-1.09-24.6,5.34,2.33,10.69,4.69,15.93,7.23,5.97,2.89,12.31,6.89,18.3,9.35,3.69,1.51,6.84,2.5,10.17-.55,3.67-3.36,9.1-12.13,12.7-16.56,10.19-12.51,21.61-24.62,33.62-35.34.81-.14,6.44,6.62,7.46,7.72,5.85,6.28,11.81,12.47,17.73,18.68-.31,2.96-.81,5.98-1,8.94h0Z"/>
    </g>
  </g>
</svg>