<?xml version="1.0" encoding="UTF-8"?>
<svg id="Capa_2" xmlns="http://www.w3.org/2000/svg" version="1.1" viewBox="0 0 158.6 140">
  <!-- Generator: Adobe Illustrator 29.5.1, SVG Export Plug-In . SVG Version: 2.1.0 Build 141)  -->
  <defs>
    <style>
      .st0 {
        fill: #71160c;
      }

      .st1 {
        fill: #fbdd9d;
      }
    </style>
  </defs>
  <g id="Capa_1-2">
    <g>
      <path class="st1" d="M2,41.5c1.1-4.9,6.7-8.2,14.4-12.2,1.5-.8,3-1.6,3.8-2.1,2.2-1.4,4.5-3.2,6.8-5.1,1.8-1.4,3.7-3,5.6-4.3,15.6-11,20.8-13.5,40.8-14.7,1.8-.1,3.5-.2,5.1-.3,7.7-.5,14.3-.9,20.8,0,10.2,1.4,18.4,5.9,26.5,14.7,1.6,1.7,2.9,3.4,4.2,5.2,1,1.3,1.9,2.6,2.9,3.7,1.1,1.3,2.9,3.1,5,5.2,10.1,10.3,17.8,18.7,18.7,25.7,1.1,9.4-7.2,12.3-11.8,13.9,0,2.7-.3,5.3-.5,7.9-.2,2-.4,3.9-.5,5.8-.1,2.1-.1,4.3,0,6.7,0,3.1,0,6.3-.2,9.4v.8c-.4,4.5-.8,9.2-6.3,13.4-8.7,6.7-22.9,15.7-33.4,20l-.5.2c-4.5,1.9-7.8,3.2-12.2,2.6s-4.3-1-7-2.3c-7.1-3.3-18.4-10.2-23.7-13.7-2.3-1.5-6.2-4.1-6.7-9.5-.4-3.6,1.1-8.6,2.5-13.3.7-2.2,1.3-4.3,1.5-5.8,1.8-9.9.8-16-3.3-21-2.6-3.2-4.2-3.6-4.6-3.7-1.9-.3-5.7,5.1-7.4,14-.2,1.3-.4,3.2-.5,5.3-.3,4.4-.7,8.9-2.3,11.9-2.2,4.1-7.1,6.1-13.2,5.3-4.4-.6-10.4-2.9-13.1-7.3-2.4-4-2-10-1.5-15.8v-.3c.9-9.5,2.4-19,4.1-27.4-1.6.5-3.3.8-5.1.6s-4.9-1.3-7.1-4.7c-1.8-2.8-2.4-5.6-1.7-8.5Z"/>
      <path class="st0" d="M6.9,42.6h0c-.4,1.8,0,3.2,1,4.7,4.2,6.5,11.6-1.1,15.9-3.6-.6,2.5-1.5,5-2.1,7.5-2.3,9.7-4,20.9-4.9,30.9-.3,3.6-1,10.1.8,13.1,2.7,4.5,14.8,7.6,17.6,2.2,1.8-3.3,1.5-11.5,2.3-15.8,2.1-10.9,9.3-26.4,20.7-12.6,6.1,7.4,6.1,16,4.4,25.1-.9,4.7-4.4,13.5-4,17.7.3,2.9,2.3,4.3,4.5,5.8,6,4,16.7,10.4,23.1,13.4,6.9,3.2,9.1,2.1,15.8-.6,9.9-4.1,23.7-12.7,32.2-19.3,3.9-3,4-5.9,4.4-10.7.4-5.1,0-10.7.3-15.9.3-5.6,1.2-11.2,1-16.9,4.6-2.1,12.7-2.8,11.9-9.8-.9-7.5-17.2-22.2-22.5-28.2-2.4-2.8-4.4-6-7-8.7-15.3-16.4-28.1-13.9-48.6-12.7-18.9,1.1-23.1,3.1-38.2,13.8-4.2,3-8.4,6.8-12.7,9.6-3.7,2.4-15.1,7.1-16,11.2h0ZM24.5,51.9h0c.2-3,.1-6,.2-9,6.7-5.4,13.4-10.7,20.1-16.1,1.2-1,7.6-6.9,8.4-6.7,10.5,12.2,20.2,25.8,28.6,39.5,3,4.9,7.2,14.3,10.4,18.1,2.9,3.5,6.1,2.9,10,1.9,6.3-1.6,13.1-4.8,19.4-6.8,5.5-1.8,11.2-3.4,16.8-5-2.1,7.9-3.4,16.1-4.4,24.2-.1.9.1,1.7,0,2.5-.4,3.5-.9,7-1.6,10.5-9.1,5.6-18.1,12.2-27.8,16.7-2,.9-8.8,4-10.6,4.1-2,.1-3.8-.9-5.5-1.7-4.5-2.2-9.2-5.6-13.6-8.2-1.5-.9-9.2-4.6-9.3-5.7,3.1-11.1,7.3-23.9,3.7-35.4-2.1-6.7-8.8-16.1-16-17.8-16-3.9-22,16.1-23.2,28.2-.1,1.2-.1,8-.4,8.4-.6.8-6.3-.7-7-1.4-.8-.8-.5-8.2-.5-9.8.3-10.2,1.6-20.3,2.3-30.5h0Z"/>
    </g>
  </g>
</svg>