<?xml version="1.0" encoding="UTF-8"?>
<svg id="Capa_2" data-name="Capa 2" xmlns="http://www.w3.org/2000/svg" viewBox="0 0 188.86 198.74">
  <defs>
    <style>
      .cls-1 {
        fill: #1a5733;
      }

      .cls-2 {
        fill: #b1d289;
      }
    </style>
  </defs>
  <g id="Capa_1-2" data-name="Capa 1">
    <g>
      <path class="cls-2" d="M185.94,156.23c-4.74-6.39-14.28-9.96-21.44-14.06-1.46-.91-2.94-1.81-4.42-2.72-8.75-5.36-17.78-10.91-25.01-17.64l-.06-.06c-7.99-7.47-9.21-11.22-7.26-22.27.56-3.2,1.47-6.53,2.44-10.05,2.53-9.19,5.4-19.6,2.15-30.17-1.13-3.69-2.54-7.37-3.89-10.91-1.07-2.8-2.09-5.44-2.97-8.07-.54-1.63-1.18-3.77-1.84-6.03-3.05-10.36-6.86-23.27-13.72-29.12-2.68-2.28-5.69-3.49-8.73-3.49-4.18,0-7.63,2.27-9.5,5.9-2.51-3.31-6.44-7.54-12-7.54-2.47,0-4.83.88-6.82,2.55-3.59,3.02-4.42,7.55-4.18,11.68-.51.41-.99.88-1.42,1.4-1.51,1.81-3.1,5.07-2.12,10.3,1.05,5.59,4.01,10.85,6.77,15.32-1.16,3.15-1.21,6.31-.65,9.31-.89-.3-1.83-.47-2.8-.47-2.69,0-4.96,1.21-6.64,2.53-.03,0-.06,0-.1,0-.82,0-1.64.14-2.44.41-7.12,2.4-11,11.16-12.07,15.46-1.36,5.48-1.26,10.87-1.16,16.09.07,4.06.13,7.9-.5,11.44-2.49,14.14-12.56,25.39-23.2,37.32-5.45,6.1-12.02,12.43-15.83,19.74-3.27,6.28-7.77,17.06-6.21,24.2,1.55,7.14,7.91,13.99,14.13,17.52,7.83,4.44,17.68,5.18,26.09,1.97,12.12-4.64,19.13-15.76,25.63-26.28,7.12-11.52,16.34-21.47,22.31-33.98,5.4,8.22,12.35,14.64,18,19.36,1.3,1.08,2.62,2.11,3.89,3.1,1.44,1.13,2.79,2.19,4.08,3.29,2.49,2.13,4.88,4.31,7.41,6.62,3.52,3.22,7.16,6.55,11.06,9.68l.38.31c11.5,9.16,24.08,12.94,38.54,7.67,7.52-2.74,14.18-8.67,16.28-16.38,1.61-5.91.46-10.36-2.17-13.92h-.01ZM69.28,76.64c.08-.14.14-.27.21-.41.02-.04.04-.09.07-.12.1.08.2.17.31.25-.2.09-.39.19-.59.29Z"/>
      <path class="cls-1" d="M130.14,126.97c9.04,8.45,20.22,14.83,30.7,21.33l16.9,9.68c.05.32-.38.16-.57.13-4.39-.7-11.11-3.99-15.22-5.98-13.36-6.52-35.52-19.34-42.79-32.47-7.65-13.82.55-30.35,3.22-44.48,2.04-10.76-2.96-18.81-6.35-28.69-2.56-7.48-4.56-15.26-7.2-22.67-1.22-3.44-3.35-8.95-6.28-11.21-1.82-1.4-2.2-.46-2.38,1.5-.54,6.06,1.32,12.36,2.29,18.28l-1.33-2.12c-2.25-4.44-4.18-11.92-3.8-16.88s4.3-5.94,7.96-2.83c6.61,5.64,10.58,23.49,13.42,31.98,2.1,6.26,4.89,12.59,6.8,18.82,3.72,12.11-2.66,24.77-4.8,36.88-2.35,13.36-.34,19.61,9.42,28.73h.01Z"/>
      <path class="cls-1" d="M61.65,60.12c-.44.11-2.42,3.12-2.75,3.71-5.1,9.22-1.34,20.59-2.2,30.65-1.55,18.02-13.92,32.53-25.89,44.97-.1.1-.19.2-.29.31-1.18,1.23-2.53,2.4-3.59,3.7-1.16,1.42-2.32,2.85-3.5,4.24-2.35,2.81-4.77,5.57-7.23,8.28-.93,1.03-1.88,2.05-3.01,2.87-.35.25-.85.48-1.18.21-.27-.23-.25-.66-.15-1.01.33-1.33,1.15-2.14,1.9-3.2.67-.95,1.36-1.88,2.06-2.81,3.37-4.42,7.05-8.59,10.75-12.73,3.7-4.14,7.55-8.41,11.1-12.81,3.54-4.4,6.73-8.85,9.36-13.74,2.63-4.88,4.6-10.06,5.56-15.51,1.6-9.04-.57-18.47,1.55-27.06.86-3.46,3.85-9.21,7.43-10.42.5-.17.08.33.08.34h0Z"/>
      <path class="cls-1" d="M66.41,138.91c-.3.05-.19-.42-.16-.6.31-1.84,1.97-3.28,3.7-3.72-3.15-1.82-6.81-.81-9.89.61,2.3-2.91,6.54-4.15,10.07-2.91.97.34,3.91,1.91,3.38,3.18-.52,1.27-2.31.47-3.45.63-1.46.19-3.17,1.38-3.64,2.81h-.01Z"/>
      <path class="cls-1" d="M62,145.09c-.09-.16.46-1.22-.09-.7l-6.45,9.71c.51-3.76,2.44-7.18,5.21-9.71.3-.28,2-1.42,2.03-1.54.54-1.98-3.08-6.99-2.82-7.3,3.08,2.24,6.12,6.5,2.12,9.53Z"/>
      <path class="cls-1" d="M61.65,60.12c1.52-.38,3.23,1.9,3.61,3.19,1.45,4.76-2.12,8.91-3.71,13.07-.6-4.31,3.96-10.44,1.78-14.5-.32-.59-1.65-1.64-1.69-1.75h.01Z"/>
      <path class="cls-1" d="M67.65,62.59c-.33.36-.49.55-.88.88-.24.2-.74.8-1.07.62.28-.7,2.99-5.06,2.65-5.39-1.47.1-2.82.91-3.98,1.76-.3-.18.08-.39.18-.53.81-1.16,3.56-3.76,4.93-2.29,1.38,1.47-.87,3.88-1.84,4.94h.01Z"/>
      <path class="cls-1" d="M59.34,135.38l-7.44,5.02c-1.12.61-2.25,1.45-3.51,1.69l1.67-1.76c2.64-2.43,5.56-4.65,9.28-4.94h0Z"/>
      <path class="cls-1" d="M76.13,94.93c-1.15,1.75-2.12,3.58-2.83,5.56l-1.06,3.45c-.77-3.36.11-6.1,2.74-8.29.17-.14,1.02-.83,1.14-.71h.01Z"/>
      <path class="cls-1" d="M65.01,112.94l.57-3.57,1.01-3.49c.43,2.51.25,5.15-1.59,7.07h.01Z"/>
      <path class="cls-1" d="M41.85,165.58c-.32-.05-.2-.92-.18-1.16.08-1.17.4-2.4.71-3.53l1.06-2.38c.2,2.54-.52,4.81-1.59,7.06Z"/>
      <path class="cls-1" d="M68.36,110.46c-.31,0-.19-.78-.18-.98.04-.46.16-.9.23-1.36l1.01-2.44c.22,1.78-.35,3.21-1.06,4.77h0Z"/>
      <path class="cls-1" d="M153.15,181.25c-.2-.43-.6-.74-.99-1.03-.3-.23-.61-.46-.91-.68-3.86-2.9-7.95-5.67-11.78-8.69-1.98-1.56-3.9-3.19-5.68-4.94-5.14-5.03-10.19-10.16-15.67-14.81-11.28-9.59-22.1-17.79-26.19-33-2.62-9.72-1.56-25.43,2.42-34.76,1.45-3.4,3.61-6.32,4.95-10.06,2.68-7.48,2.78-14.99,2.65-22.88,2.07,2.25,5.22,2.94,7.77,1.06.03,9.54-1.19,19.49,2.22,28.61l.79,1.42-.54-6.26c-.98-10.24,2.27-21.75.69-31.77-1.78-11.23-10.71-7.98-13.23.5l-.88,3.09c-3.5-9.11-11.09-15.9-15.98-24.21-1.67-2.83-3.99-8-3.21-11.3.27-1.16.93-.55,1.6,0,3.2,2.6,6.83,8.69,9.63,12.1,3.32,4.04,7,7.84,11.4,10.69l.08-.26c-5.61-6.29-9.98-13.47-14.88-20.28-1.89-2.65-6.17-8.95-9.94-5.78-2.74,2.3-1.57,8.92-.27,11.83-4.21-1.7-5.78.81-5.04,4.78,1.07,5.7,4.96,11.49,7.99,16.33-5.06,6.72.28,14.79,4.26,20.53,3.14,4.53,6.69,8.79,9.92,13.24l.16.47-4.02,9.84c0-1.03-.02-2.06,0-3.1.01-.91.02-.9.15-1.78.33-2.27.57-3.22-.37-5.43-.83-1.98-3.73-5.16-5.36-6.65-.65-.59-1.75-.92-2.2-1.33-.35-.32-.66-1.26-1.07-1.76-1.53-1.85-3.73-1.95-5.73-.79-1.07-1.83-3.29-2.31-5.22-2.66,1.47-1.95,3.91-3.04,6.36-2.82-.71,1.03-1.64,1.85-2.26,2.95-.09.16-.39.45-.13.58.84-1.13,3.91-2.4,4.52-3.44.54-.95-.23-1.71-1.18-1.85-2.32-.33-4.87.45-6.35,2.28-.46.56-1.03,1.95-1.33,2.2-.42.35-2.06.66-2.64,1.16l.02.02c-.45-.25-1.11.43-.88.89l-.71,1.59c1.93-1.51,3.05-2.35,5.57-1.6,4.27,1.28,3.49,3.49,2.38,7.07l1.03-1.18c1.04-1.52,1.48-2.97,1.1-4.82,4.57-1.15,4.73,3.61,5.82,6.61.88,2.44,2.29,4.69,3.88,6.71-2.26.02-5.02.36-6.44,2.4-.44.63-.49,1.33-.92,1.92-8.58-1.41-14.54,7.85-14.99,15.38,2.5-5.18,7.99-14.26,14.48-14.49.31-.02,2.05.13,2.18.21.11.06.92,2.23.92,2.36-.01.42-1.22.72-1.66.99-.33.21-2.02,1.74-1.7,2.09,2.34-1.75,4.87-2.23,6.67.48.45.68,1.98,4.06,1.72,4.64-.11.25-.88.85-1.15,1.16-1.54,1.87-3.04,4.35-4.97,5.81-.94.71-2.07.98-2.99,1.69,3.17.04,5.59-1.35,7.16-4.06.71-1.22,1.14-2.95,1.81-4.02.08-.14.16-.51.4-.23.15.19.72,4.38.72,4.86,0,.38-.27,2.8-.37,2.97-.05.08-1.38.54-1.75.76-1.77,1.04-3.56,4.37-3.9,6.34-.02.1-.04.29.09.26,1.67-1.51,2.54-3.69,3.98-5.38.18-.21,1.18-1.27,1.32-1.33.36-.16.25.24.26.43.06.78-.19,3.82-.43,4.51-.56,1.61-5.3,5.48-6.73,6.88-3.14,3.08-5.41,6.29-6.09,10.78,1.5-1.81,2.52-3.94,4.07-5.73,2.99-3.47,7.09-6.39,8.48-11.05.33-.04.14.37.12.56-.57,5.09-2.3,10.4-4,15.21-2.52.76-4.72,1.8-6.37,3.92-.49.62-1.13,1.69-1.16,2.38,1.92-2.06,4.43-3.35,6.81-4.77-2.53,6.72-6.41,12.82-10.18,18.89l-.09.12c-3.64,5.31-7.28,10.62-10.93,15.93-2.69,3.93-5.4,7.87-8.09,11.8-1.18,1.72-2.36,3.43-3.53,5.15-1.49,2.17-3.24,4.13-3.95,6.73.32.25.81.21,1.16,0,.36-.21.62-.53.87-.86,1.17-1.49,2.32-2.97,3.49-4.47,1.07-1.38,2.23-2.65,3.35-4,2.31-2.77,4.57-5.58,6.78-8.42,3.71-4.78,7.28-9.67,10.69-14.68,7.3-10.73,14.04-22.19,16.72-35.04,2.99,13.94,12.75,24.55,23.33,33.39,2.63,2.2,5.43,4.22,8.04,6.45,7.19,6.15,13.73,13.09,21.38,18.7,3.46,2.54,7.18,4.64,10.9,6.77.47.27,1.07.54,1.53.24.41-.26.46-.86.25-1.3h-.01ZM104.21,42.86c.46-.82,1.85-2.7,2.81-2.86h-.01c.33-.04.62.12.85.33,1.14,1.03,1.78,5.76,1.86,7.33.03.59.1,2.95-.02,3.34-.25.71-2.88.39-3.55.23-.91-.21-3.72-1.53-3.86-2.52-.14-1.05,1.34-4.82,1.92-5.85ZM83.49,54.98c-2.45-3.91-4.51-7.42-3.24-12.21.08-.31.2-1.04.47-1.2,4.74,7.2,9.89,14.19,15.38,20.85-.83-3.29-2.76-6.33-4.45-9.24-4.4-7.6-9.88-14.91-14.02-22.55-.97-1.8-3.37-6.49-3.26-8.39.09-1.6,3.49-.26,4.06.34.93.97,2.22,3.55,3.14,4.82,4.8,6.65,12.22,13.44,15.79,20.6,1.53,3.05.94,4.73,1.03,7.99.09,2.92.39,5.89,0,8.82-.38,2.92-2.4,5.85-3.17,8.73h0s0,0,0,0c-.45.08-.27-.06-.37-.25-3.37-6.7-7.44-12.06-11.36-18.32ZM85.51,74.05c-.48-.86-.99-1.8-1.32-2.74-.08-.25-.26-.76.06-.95.36-.21.8.4,1,.62,1.41,1.5,2.61,3.2,3.57,5.01.19.36.36.83.09,1.13-.17.2-.48.23-.72.14-.25-.09-.45-.27-.64-.46-.81-.81-1.48-1.76-2.04-2.76h0ZM81.44,85.91c.22-1.82-.91-3.2-2.66-3.53,1.11-2.05,3.14-2.77,5.4-2.65.43.02,1.92.24,2.21.44.33.24.04.26-.12.41-1.57,1.46-2.71,2.29-3.63,4.32-.32.71.02,1.18-1.2,1.01ZM88.32,92.97v-.02l-1.02-2.92c-.86-1.88-2.32-3.67-4.45-4.12,1.14-1.94,3.2-3.04,5.04-4.24.18.12.22.24.25.44.24,1.26.22,2.74.38,4.04.11.93.63,2.61.6,3.38-.04.96-.86,2.36-.8,3.42v.02Z"/>
    </g>
  </g>
</svg>