<?xml version="1.0" encoding="UTF-8"?>
<svg id="Capa_2" data-name="Capa 2" xmlns="http://www.w3.org/2000/svg" viewBox="0 0 253.24 258.93">
  <defs>
    <style>
      .cls-1, .cls-2 {
        fill: #71160c;
      }

      .cls-3 {
        fill: #f5b5d2;
      }

      .cls-2 {
        font-family: PPAgrandirNormalVariable-Medium, 'PP Agrandir Normal Variable';
        font-size: 79.32px;
        font-variation-settings: 'wght' 469, 'ital' 0;
        font-weight: 500;
      }
    </style>
  </defs>
  <g id="Capa_1-2" data-name="Capa 1">
    <g>
      <path class="cls-3" d="M235.64,199.1c-23.25,37.46-65.68,59.83-113.5,59.83-12.27,0-24.8-1.48-37.25-4.4-25.36-5.96-48.39-25.9-64.87-56.16C5.72,172.11-1.64,141.45.31,116.33c2.57-32.86,13.87-60.77,32.68-80.69C52.4,15.09,79.92,2.86,112.59.28c2.34-.18,4.75-.28,7.15-.28,22.12,0,46.62,7.86,68.99,22.12,21.97,14.01,39.43,32.54,49.16,52.18,21.22,42.81,20.4,88.3-2.25,124.8Z"/>
      <path class="cls-1" d="M113.77,15.24c41.53-3.28,92.35,28.74,110.68,65.73,47.4,95.65-34.17,182.92-136.13,158.96C42.16,229.08,11.83,161.64,15.27,117.5,19.88,58.31,54.17,19.94,113.77,15.24ZM116.29,30.37c-16.79,1.49-48.72,10.96-60.42,23.6-42.41,45.84-36.91,129.54,15.4,164.9,24.17,16.34,78.85,10.59,104.5-1.84,64.63-31.3,64.6-130.9,3.77-167.37-14.87-8.91-46.08-20.82-63.26-19.3Z"/>
      <text class="cls-2" transform="translate(76.49 146.08) rotate(8.51)"><tspan x="0" y="0">&lt;3</tspan></text>
    </g>
  </g>
</svg>