<?xml version="1.0" encoding="UTF-8"?>
<svg id="Capa_2" data-name="Capa 2" xmlns="http://www.w3.org/2000/svg" viewBox="0 0 125.23 99.57">
  <defs>
    <style>
      .cls-1 {
        fill: #ec6642;
      }

      .cls-2 {
        fill: #dedf50;
      }
    </style>
  </defs>
  <g id="Capa_1-2" data-name="Capa 1">
    <g>
      <path class="cls-2" d="M122.12,45.1c-8.74,20.89-32.55,26.73-45.93,28.35-.3,1.3-.78,2.52-1.42,3.63,3.6,2.6,5.43,6.53,4.95,10.66-.58,4.93-4.29,9.28-9.47,11.07-1.46.51-2.91.76-4.34.76-5.7,0-10.42-4.18-11.48-10.16-.93-5.22,1.21-10.15,5.33-12.87-.35-.67-.61-1.34-.82-1.98-9.66-.33-19.63-1.82-28.54-4.27C12.94,65.46,1.33,54.56.11,41.83c-1.11-11.48,6.64-22.24,21.28-29.52C35.73,5.17,60.95,0,81.37,0c10.87,0,19.71,1.4,26.28,4.17,8.27,3.49,13.92,9.53,16.33,17.49,2.16,7.1,1.49,15.42-1.86,23.44Z"/>
      <path class="cls-1" d="M105.71,8.76C85.84.39,42.83,7.21,23.61,16.78-6.73,31.88,2.88,57.52,31.74,65.49c9.93,2.74,20.92,4.17,31.21,4.16.34,1.58.49,3.2,1.27,4.65.57,1.06,2.36,2.23,2.39,2.67.27,3.21-.81,2.32-2.49,2.93-8.71,3.2-4.98,17.47,4.51,14.2,6.13-2.12,8.85-9.43,2.74-13.3-2.08-1.32-3.9-.4-3-4.11.08-.33.92-.53,1.28-.95,1.62-1.91,2.1-4.39,1.96-6.84,17.73-1.32,38.51-7.99,45.92-25.71,5.76-13.76,2.7-28.31-11.81-34.42h0ZM64.42,69.61l5.38-.36c-1.28,5.88-3.5,6.31-5.38.36ZM66.26,52.43c1.93-1.2,3.12,4.09,3.19,5.34l-4.67.36c-.38-.39.98-5.38,1.48-5.7ZM103.85,41.36c-6.28,10.37-20.87,14.84-32.25,16.41.92-11.71-11.04-11.17-8.98.35-12.55-.06-27.26-1.75-37.82-9.04-22.46-15.51,18.03-26.01,28.83-28.12,11.96-2.34,38.79-5.53,49.17,1.12,6.82,4.36,4.59,13.43,1.04,19.29h0Z"/>
    </g>
  </g>
</svg>