<?xml version="1.0" encoding="UTF-8"?>
<svg id="Capa_2" data-name="Capa 2" xmlns="http://www.w3.org/2000/svg" viewBox="0 0 105.35 85.5">
  <defs>
    <style>
      .cls-1 {
        fill: #ec6642;
      }

      .cls-2 {
        fill: #dedf50;
      }
    </style>
  </defs>
  <g id="Capa_1-2" data-name="Capa 1">
    <g>
      <path class="cls-2" d="M79.41,5.97c1.92-1.6,4.03-2.91,6.25-3.88,4.4-1.92,10.91-3.15,15.98-.81,1.75.81,3.01,2.34,3.49,4.14.17.63.24,1.29.21,1.96-.13,2.6-1.83,4.86-4.29,5.71-1.05.35-2.06.59-2.95.79-.64.14-1.31.29-1.7.44-5.75,2.15-7.67,6.31-10.57,13.47-1.7,4.2-3.64,8.96-7.03,13.2-1.96,2.46-4.18,4.53-6.66,6.21.06.19.11.37.16.56.62,2.32.32,4.36-.17,5.99,3.11,2.75,4.47,5.63,5.06,7.83.87,3.25.58,6.64-.88,10.08-5.67,13.41-19.44,10.8-27.65,9.24-3.01-.57-5.85-1.1-7.9-1.03-4.68.17-8.78,1.4-13.12,2.71-3.22.97-6.55,1.99-10.3,2.63-8.15,1.41-15.11-2.32-16.91-9.06-1.02-3.79-.17-8.06,2.39-12.01.39-.6.84-1.16,1.37-1.77-1.34-1.73-2.69-3.66-3.31-5.77-.04-.12-.07-.24-.11-.36-1.12-4.18-.18-8.34,2.57-11.41,2.42-2.7,6.13-4.4,10.13-4.78-2.31-2.44-3.91-5.19-4.71-8.15-.97-3.63-1.48-10.8,6.03-18.16C26.12,2.59,50.38-1.6,66.33.9c5.4.84,9.77,2.54,13.07,5.07Z"/>
      <path class="cls-1" d="M25.18,40.58c-.22,2.17-.62,4.31-.67,6.5-.02.98.3,2.27.19,3.13-.02.17-.13.43-.37.24-2.52-1.97-4.05-3.46-7.44-3.99-5.22-.81-11.74,2.17-9.92,8.32.71,2.4,4.64,6.17,4.85,7.52.19,1.17-2.89,4.08-3.67,5.28-4.59,7.09.2,12.71,8.09,11.34,8.43-1.46,15.09-5.1,24.28-5.44,9.58-.35,24.75,7.86,29.92-4.32,2.53-5.99-.84-10.23-5.92-12.99.6-3.13,3.08-5.25.84-8.39-2.16-3.02-8.18.04-10.82,1.3-3.53,1.67-6.48,4.2-10.52,4.49,1.27-1.38,1.86-7.04,3.43-7.4,10.23.81,19.68-.81,26.38-9.18,7.71-9.63,6.72-23.56,20.34-28.65,1.5-.56,3.28-.77,4.81-1.29-3.1-1.43-7.76-.45-10.78.86-3.67,1.6-6.77,4.42-9.01,7.68-2.49-5.49-8.26-7.54-13.84-8.41-13.56-2.13-36.06,1.21-46.12,11.08-8.94,8.77-3.98,17.7,5.95,22.31h0ZM33.88,36.34c-.18-.05-.55.15-.48-.37.1-.74,3.27-4.54,4.02-5.1,5.72-4.33,9.21,3.04,8.54,8.07-4.08-.54-8.15-1.41-12.09-2.58h0ZM44.33,45.99c-.75,1.36-.72,3.18-1.42,4.51-.34.65-2.77,3.44-3.32,3.67-.71.3-8.54-.61-8.86-.91-.89-.83-.59-9.88.29-10.33l13.31,3.06ZM69.59,13.12c2.85.78,7.15,2.99,7.07,6.48-.01.43-2.76,6.12-3.22,6.97-4.9,9.09-10.3,13.37-21.19,12.94-3.92-.15-1.98-.97-2.05-4.07-.2-9.41-8.81-14.88-16.8-8.77-2.51,1.92-3.53,4.19-5.24,6.6-.14.2-.29.36-.52.46-4.2-2.19-8.22-4.77-4.29-9.61,7.59-9.37,34.9-14.1,46.22-11.02h.01Z"/>
    </g>
  </g>
</svg>