<?xml version="1.0" encoding="UTF-8"?>
<svg id="Capa_2" data-name="Capa 2" xmlns="http://www.w3.org/2000/svg" viewBox="0 0 141.88 108.19">
  <defs>
    <style>
      .cls-1 {
        fill: #ec6642;
      }

      .cls-2 {
        fill: #dedf50;
      }
    </style>
  </defs>
  <g id="Capa_1-2" data-name="Capa 1">
    <g>
      <path class="cls-2" d="M110.92,88.12c.03.12.13.37.39.75.11.16.21.34.3.51,1.75,3.41,4.16,7.33,6.28,10.74.18.28.33.58.45.89.6,1.63.38,3.44-.59,4.85-.6.87-2.02,2.32-4.74,2.32-1.05,0-2.13-.2-3.32-.44-.2-.04-.38-.08-.51-.11-.08,0-.13-.02-.21-.03-6.72-1.28-12.58-3.72-18.45-7.69-.41-.29-1.27-.88-1.69-1.03-.1.04-.22.08-.34.11-1.42.37-3.02.96-4.71,1.58-1.97.72-4.01,1.48-5.98,1.94-6.62,1.6-13.87,2.44-20.95,2.44-24.36,0-43.47-9.3-52.44-25.52-.06-.11-.11-.21-.16-.32-6.27-13.51-5.6-27.74,1.95-41.14C16.79,19.18,41.07,3.68,63.97,1.11c5.15-.74,10.48-1.11,15.82-1.11,12.44,0,42.85,2.31,56.36,23.64,11.93,18.6,4.96,40.8-18.65,59.37l-.14.1c-.81.63-1.69,1.24-2.55,1.82-1.23.83-3.47,2.36-3.89,3.19Z"/>
      <path class="cls-1" d="M114.42,79.09c16.09-12.65,30.31-32.84,17.51-52.77C119.49,6.66,87.98,2.7,64.59,6.05,32.38,9.63-7.56,41.79,8.77,77.01c12.5,22.6,44.81,26.19,67.89,20.63,3.24-.76,7.14-2.6,10.58-3.49,2.36-.84,4.18.33,6.07,1.63,5.23,3.54,10.39,5.74,16.59,6.92.93.13,4.11,1,3.76.06-2.08-3.32-4.64-7.48-6.49-11.11-4.22-6.27,3.11-9.35,7.13-12.49l.11-.08h.01ZM103.46,93.5c.83,1.66,6.64,7.86,1.3,4.89-2.75-1.69-5.53-3.27-8.08-5.16-2.01-1.51-4.29-3.38-6.43-3.75-3.99-.55-7.98,1.29-11.76,2.33-1.27.39-2.42.71-3.66.99-16.88,3.61-41.23.55-54.28-11.17-7.29-6.22-10.5-16.23-8.41-25.79C20.14,16.28,75.41,2.43,108.89,16.35c18.06,7.18,27.13,23.01,17.15,41.41-2.31,4.33-5.86,8.93-9.4,12.33-3.49,3.36-7.5,6.14-11,9.45-4.88,4.46-5.75,8.11-2.24,13.84l.08.13h-.02Z"/>
      <path class="cls-1" d="M105.48,38.07c-.21-.6-.06-1.34.2-2.15.97-2.91,1.18-6.04-.06-8.87-3.96-8.31-16.27-11.02-18.92-.13-.83,2.4.09,6.39-2.07,8.05-2.58,1.67-10.22,3.32-13.87,4.27-3.32.86-6.41,2.01-9.8,3.05-4.98,1.46-9.25,2.98-13.8,2.95-4.91-.44-10.11-3.12-15.2-1.46-4.61,1.29-8.82,5.89-8.71,10.39-.13,3.25,1.56,6.38,4.56,8.13.54.38,1.1.84,1.31,1.45.33.82.01,1.95-.18,3.08-.97,6.17,2.62,11.69,8.33,12.5,5.83.78,11.18-2.94,14.06-7.82.88-1.41,1.63-2.92,2.27-4.45.68-1.49.98-3.23,2.05-4.15.55-.5,1.34-.8,2.09-1.01,5.04-1.44,10.1-2.82,15.04-4.51,3.81-1.19,7.91-3.57,11.91-3.77,1.52.23,2.33,1.44,3.49,2.36,2.83,2.28,5.98,4.22,9.6,4.62,11.65,1.52,18.73-13.57,9.28-20.85-.58-.43-1.3-.94-1.55-1.58l-.03-.1h0ZM102.33,53.11c-4.96,3.1-9.68-2.27-13.27-5.28-2.28-1.56-4.73-1.15-7.19-.53-3.55.9-7.71,2.63-10.72,3.68-5.87,2.06-12.53,3.1-18.17,5.39-4.01,1.49-4.45,5.26-5.83,8.9-1.47,3.34-4.38,7.63-8.44,7.59-4.44-.22-3.66-5.93-2.02-8.66,1.07-1.99,3.47-3.46,3.65-5.65.27-2.9-3.17-4.22-5.37-2.69-1.39,1.03-3.03,2.06-4.61.73-1.35-1.17-1.15-3.06-.16-4.58,1-1.53,3.02-2.58,4.83-2.93,4.27-.91,8.19,1.63,12.43,1.49,8.42-.33,17.46-6.65,25.99-8.07,5.11-1.26,10.72-1.59,15.04-4.88,2.8-2.37,2.09-5.55,3.13-9.01.47-1.55,1.51-3.39,3.31-3.42,2.54.11,5.18,2.6,5.6,5.14.3,2.06-1.1,4.57-2.7,6.39-.76.91-1.65,1.82-1.97,2.98-.46,1.49.39,3.47,1.9,3.99,1.74.58,3.87-.09,5.43,1.15,2.67,1.96,1.84,6.45-.73,8.19l-.12.08h-.01Z"/>
    </g>
  </g>
</svg>