<?xml version="1.0" encoding="UTF-8"?>
<svg id="Capa_1" xmlns="http://www.w3.org/2000/svg" version="1.1" viewBox="0 0 3086.4 1119.9">
  <!-- Generator: Adobe Illustrator 29.5.1, SVG Export Plug-In . SVG Version: 2.1.0 Build 141)  -->
  <defs>
    <style>
      .st0 {
        fill: #71160c;
      }

      .st1 {
        fill: #f5b5d2;
      }
    </style>
  </defs>
  <g>
    <path class="st0" d="M1243.2,381.3h26c20.2,0,34.1,0,54-1.7v41.8c-19.6-1.7-33.4-1.7-54-1.7h-25.6l.3,50.9c52.3,0,77.6,0,113.4-4.7l-1,62.4h-187.9c3.7-38.8,4.7-49.3,4.7-84v-86c0-39.5-1-49.6-4.7-89.1h187.9v65.4c-35.4-4.4-62.4-5.1-113.4-5.1l.3,51.6Z"/>
    <path class="st0" d="M1459.8,315.2v148.4c0,26.3.3,42.5,2.7,64.8h-76.2c3.4-38.8,4.4-50.6,4.4-85.7v-91.1c0-39.5-3.4-77.3-4.4-89.7h76.2c-2,22.3-2.7,34.1-2.7,53.3Z"/>
    <path class="st0" d="M1716.2,331.7c-38.8,0-62.1,27.7-62.1,67.1s24.6,67.5,60,67.5,43.5-6.7,64.1-15.5l.3,63.1c-20.2,12.5-44.5,21.3-79.6,21.3-70.8,0-120.1-47.6-120.1-136.3s55-136,124.5-136,49.9,5.7,70.5,15.5v64.4c-16.9-6.4-34.1-11.1-57.7-11.1Z"/>
    <path class="st0" d="M1917.6,408.6c0-19.2-10.1-28-34.7-28s-45.2,7.4-69.2,18.2v-48.2c23.3-12.1,49.3-21.6,83.7-21.6s88.1,16.5,88.1,84.3v50.6c0,24.3.7,41.2,3.4,64.4h-70.8c4.4-17.5,6.4-29,6.7-47.6h-7.8c-5.7,33.1-27.7,52.3-62.4,52.3s-58-18.9-58-54.3c0-53.3,48.9-68.8,121.1-69.8v-.3ZM1884.5,479.8c22.3,0,33.1-15.9,33.1-38.1v-6.4c-34.1,1-56.3,8.8-56.3,26.3s9.1,18.2,23.3,18.2Z"/>
    <path class="st0" d="M2132.5,528.4c1.7-26,2-37.4,2-63.4v-40.8c0-27.7-4.4-41.5-23.6-41.5s-24.3,15.9-24.6,43.9v101.9h-70.2c2.4-26.3,2.7-33.1,2.7-63.4v-78.3c0-21.6-1-30.7-2.7-54h68.8c-4.7,17.2-6.7,27.3-7.1,47.6h7.8c5.1-33.7,27-53,54.3-53s48.9,17.9,52.3,53h7.4c5.4-35.1,27-53,58.7-53,46.6,0,59.4,35.4,59.4,80v56.7c0,30.4,0,38.1,2.4,64.4h-72.2c2-26,2.4-33.7,2.4-63.4v-40.8c0-27.3-4-41.5-24.3-41.5s-24.3,15.5-24.6,43.9v101.9h-68.8Z"/>
    <path class="st0" d="M2410.5,481.1c.7,18.9,2.4,30,8.1,47.6v70.8h-70.2c2-19.6,2.7-36.8,2.7-53.6v-155.2c0-20.9-.3-36.8-2.4-58h68.5c-5.1,17.9-6.7,28-7.1,47.2,2.7-.3,5.4-.7,8.1-.7,5.4-34.7,30-51.3,61.4-51.3,46.2,0,69.5,36.8,69.5,101.9s-20.6,103.2-69.5,103.2-56.3-17.5-61.4-52h-7.8ZM2475.2,430.2c0-29.3-8.1-48.2-28.3-48.2s-30.4,18.6-30.4,48.6,9.1,48.2,30.7,48.2,28-16.5,28-48.6Z"/>
    <path class="st0" d="M2568.3,286.5c0-20.6,17.5-29.7,40.8-29.7s39.8,8.4,39.8,29.7-15.9,30.4-39.8,30.4-40.8-8.8-40.8-30.4ZM2572,528.4c3.7-37.1,4-57.4,4-85.7v-19.6c0-32.7-.3-60.4-4.4-90.4h74.2c-1.7,19.2-2.4,34.1-2.4,53.6v87.7c0,23.3.3,35.1,2.4,54.3h-73.9Z"/>
    <path class="st0" d="M2767.4,290.9v41.8h44.9v47.9h-44.9v71.9c0,15.9,8.4,20.9,20.2,20.9s20.6-3,30.4-7.4v53c-14.5,8.8-33.1,14.5-56.7,14.5-39.8,0-61.1-17.5-61.1-60.4v-92.4h-25.6v-47.2h26.3c14.8-8.1,20.9-26.3,20.9-42.5h45.5Z"/>
    <path class="st0" d="M3030.8,428.9c0,49.9-23.6,104.2-95.8,104.2s-96.5-42.5-96.5-104.2,34.7-101.2,96.1-101.2,96.1,38.1,96.1,101.2ZM2903.7,428.9c0,35.1,9.8,53,31.7,53s30-18.6,30-53-10.1-53-30-53-31.7,15.2-31.7,53Z"/>
    <path class="st0" d="M1245.9,833.1l-.3,33.7c0,23.3,1,35.1,3,58h-80.3c3.7-38.5,4.7-49.9,4.7-85.4l.3-83.7c0-39.5-1.3-50.6-5.1-90.1h121.4c62.1,0,91.4,33.1,91.4,82s-19.2,74.9-55,83c5.4,22.9,17.9,35.4,42.5,35.4s16.2-1.3,24.6-4.4l-.3,64.1c-12.8,4.4-22.9,5.7-36.1,5.7-56.3,0-82-36.8-87-98.5h-24ZM1242.2,722.8v61.4h37.4c21.9,0,34.4-8.1,34.4-30.7s-13.2-30.7-35.4-30.7h-36.4Z"/>
    <path class="st0" d="M1413.3,826c0-60.7,37.1-100.9,99.5-100.9s80,24.3,80,60-35.4,61.4-108.3,62.7c4.4,17.9,17.2,28.7,39.1,28.7s42.8-5.1,64.4-14.5l.3,48.6c-19.2,10.1-44.9,18.6-79.3,18.6-63.4,0-95.8-40.5-95.8-103.2ZM1482.7,818.6c38.5-.7,54.7-8.4,54.7-25.6s-7.1-23.6-23.6-23.6-31,20.9-31,45.5v3.7Z"/>
    <path class="st0" d="M1738.5,737.9v47.6h-33.7v86c0,19.9.7,34.7,2.4,53.3h-71.9c1.7-18.9,2.4-35.1,2.4-53.3v-86h-30.4v-47.6h48.9v-7.8c-30.7-7.4-46.9-20.2-46.9-43.5s32.4-40.5,61.7-40.5,47.6,6.7,66.1,16.2v48.2c-14.8-5.7-30.7-10.1-46.6-10.1s-23.3,4.4-23.3,15.2,10.1,17.5,21.3,22.3h49.9Z"/>
    <path class="st0" d="M1826.8,833.8c0,28,4,41.5,24,41.5s26-15.2,26-42.5v-103.6h67.5c-1.3,20.6-2.7,40.1-2.7,63.4v78.3c0,19.2,1.3,37.8,2.7,54h-66.8c4.7-18.9,7.1-28,7.1-47.6h-7.4c-5.1,34.7-25,52.3-56.7,52.3-46.2,0-58.7-34.1-58.7-78.3v-58.7c0-30.4,0-37.1-2.4-63.4h69.5c-2,26-2,33.7-2,63.4v41.2Z"/>
    <path class="st0" d="M2030.9,909.7c-39.8-11.8-59-44.2-59-90.4s36.8-94.1,97.8-94.1h5.1c1.7-29.7,18.2-50.9,51.6-50.9s23.6,2.7,33.4,8.1v37.4c-12.1-4.7-25.6-7.4-37.1-7.4s-24.3,4.4-29.3,14.5c52.6,8.1,73.9,43.9,73.9,92.4s-29.7,95.5-99.2,95.5c-18.2,1.7-42.2,8.1-42.2,20.6s25.6,21.3,52,21.3,61.4-9.1,86.4-19.9l.3,51.3c-30,13.8-65.8,21.3-100.2,21.3-54.3,0-93.4-15.5-93.4-50.6s27-40.1,60-43.2v-5.7ZM2040,819.2c0,28.7,8.1,43.9,30.4,43.9s28.7-17.9,28.7-43.5-8.8-43.2-29.4-43.2-29.7,13.2-29.7,42.8Z"/>
    <path class="st0" d="M2190.8,683c0-20.6,17.5-29.7,40.8-29.7s39.8,8.4,39.8,29.7-15.9,30.4-39.8,30.4-40.8-8.8-40.8-30.4ZM2194.6,924.8c3.7-37.1,4-57.4,4-85.7v-19.6c0-32.7-.3-60.4-4.4-90.4h74.2c-1.7,19.2-2.4,34.1-2.4,53.6v87.7c0,23.3.3,35.1,2.4,54.3h-73.9Z"/>
    <path class="st0" d="M2484.7,825.3c0,49.9-23.6,104.2-95.8,104.2s-96.5-42.5-96.5-104.2,34.7-101.2,96.1-101.2,96.1,38.1,96.1,101.2ZM2357.5,825.3c0,35.1,9.8,53,31.7,53s30-18.6,30-53-10.1-53-30-53-31.7,15.2-31.7,53Z"/>
  </g>
  <g>
    <path class="st1" d="M1063.1,214.6c-22-31-60.7-34.4-79.3-35.9-9.3-.8-17-1.2-24.3-1.2-28.4,0-51.4,5.8-79.2,20.1-62,31.8-111.4,77.6-140,128.2-13.8-4.8-29.5-8.7-49.1-10.1-12.5-.9-25.5-1.4-38.4-1.4-74.3,0-150.4,15.2-214.2,42.3-24.2-17.1-47.8-21.3-65.3-21.3-71.8,0-130.6,70.4-159.1,130.7-16.8,35.5-52,139.5-58.3,183.4-2.8,19.3-11.1,76.5,31.5,111.6l-31.1,41.8c-5.2,7-8.5,15.3-9.5,24-3.5,29.9,7.1,48.9,16.6,59.5,3.1,3.4,6.5,6.5,10.1,9.2.9,8.2,3.2,16.7,7.7,25.1,8.8,16.5,24.1,28.4,43.3,33.6,5.5,1.5,11.4,2.2,17.4,2.2h0c27,0,53.8-15.9,71.6-29.1,12.6-9.5,21.5-18.2,28.1-26.1,5.4,3.3,11.5,5.7,18,7.1,4,.8,8.2,1.2,12.4,1.2,23.8,0,42.9-13.7,54.2-21.9,1.2-.8,2.2-1.6,3.1-2.2,19.2-13,39.4-28.4,59.2-45.7.3.2.6.4.8.6,8.9,6.2,19.4,14.3,30.7,22.9,49.2,37.8,110.4,84.9,175,84.9,5.1,0,10.2-.3,15.2-.9,14.3-1.7,36.9-10.6,67-26.4,46.9-24.6,57.1-37.6,63.1-47.8,3.2-5.5,6.6-16,9.7-27,.4,1,.7,2.1,1,3.1,1.4,4.2,2.7,8.2,3.6,11.5v2.6c0,8.8,0,20.9,2.7,33.1,8.2,38.2,37.1,51.9,59.3,51.9,4.7,0,9.4-.6,14.1-1.7,16.4-3.8,30-14,38.4-28.7,16.3-28.6,7.7-62.5-4.3-100.6-.8-2.6-1.9-6-2.4-7.9-1.4-11,.8-20,4.9-35.5,3.1-11.6,6.6-24.8,8.1-40.6,2.6-26.2,2.7-72.8.2-99.7-1.4-15.6-6.7-29.5-10.6-39.6q0,0,0,0c3.6-7.7,8.2-18.4,9.8-31.1,1.9-14.5.2-27.9-1.3-38.1,2.6-3.5,6-7.8,8.7-11.1,16.7-20.9,37.5-47,43.2-77.8,3.8-20.5,1.4-42.9-.7-62.6-.4-3.4-.8-7.8-1.2-11.6,2.8-2.8,6.4-6.3,9.2-8.9,15.5-14.7,33.1-31.4,39.2-55.4,5.7-22.2,11-55-8.8-82.9ZM619.1,442.5s0,0,0,0h0Z"/>
    <path class="st0" d="M1003.2,262.6c-51.2-21.3-94.8,4-135.4,34.2-48.2,35.8-72.2,77.1-107.2,123.9-56.4-41.2-139.9-30.7-205.7-20.2-35.1,5.6-95.9,29.2-126.1,28.5-17-.4-31.6-37.1-75.6-11.2-64.1,37.8-96.2,173-114.4,242.1-.6,2.3-1.2,7,2,6.3,11.2-9.2,61-69.9,75.2-55.8l-3.2,29c-22.1,17-56.3,70.4-76.9,82.1-4.6,2.6-8.7,6.3-14.2,3-21.4-15.4-19.7-44.1-16.3-67.9,5.3-36.3,37.9-135,54.1-169.2,30.1-63.7,105.8-148.6,170.3-71.3,75.5-39.8,172.6-56.7,257.9-50.5,33,2.4,50.3,13.6,79.2,26,16.6-65.6,77.9-119.6,136.2-149.5,27.4-14.1,45.3-16.3,76.4-13.6,40,3.5,55.4,12.5,44.1,56.9s-45.2,43-49.7,62.3c-3.3,13.8,7,55.1,2.5,79.4-6,32.4-50.7,69.8-53.6,87.5-1.4,8.4,4.7,26.8,2.7,42-1.7,12.9-11.8,25.5-12.4,35.1-.7,10.2,11.5,29.6,13,46.7,2.1,23.2,2.1,67.1-.2,90.3-3.1,31.6-17.9,54.1-12.6,90,1.7,11.5,28.3,74.5,6.1,79.7-19.1,4.5-13.6-36.4-15.3-44.7-3.5-17.3-12.5-33.7-12.9-51.9-1-49.4,24.6-92.5,17-154.1-2.1-17.4-16.2-39.6-16.1-52,0-14.7,15.3-34.6,16.6-47.6,1.3-13.5-7.8-22.9-7.3-33.3,1.5-34.2,60.6-65.6,59-116.4-.6-18.3-11.1-35.3-13-47.8-3.5-22.2,63.3-77.4,55.9-87.6Z"/>
    <path class="st0" d="M672.5,556.7c1.4,9,21.2,57.8,26.3,68.2,35.5,71.8,122.3,82.8,110.8,176.3-.7,6-10.3,43.4-12.3,46.8-7.1,12.2-77.2,48-93,49.9-62.6,7.5-138-64.8-186.4-98.4,7.9-1.5,12.8,1.1,19.6,4,39.1,16.6,132.8,98,175.2,73.5l6.3-44.4c-3.3-11.5-13.6-7.2-20.7-13.3-18.6-16-35-32.9-30.2-59.8,13.9-12.1,82.9-29.8,92.8-16.1,1.2,43.1-40.9,74.3-28.2,120.5,3.5,4,54.4-28,57.6-34.2,1.2-2.3,9.5-46.6,9.5-50.3.6-46.8-65.9-80.3-92.2-116-39.5-53.6-47.3-114.8-43.6-179.6.9-16.3,9.4-32.8,4.3-49.4,17.3,6.3,4.3,22.2,4.3,27.9,0,27.2-3.9,69.8,0,94.5Z"/>
    <path class="st0" d="M294.5,700.6l-51.5,107.3h21.5s-8.6,60.1-8.6,60.1c17.4-3.6,29.6-17.2,49.4-12.9,20,2.8-43.7,57.4-67.7,50.9-29.5-8-4.4-47.9-7.5-50.9-21.1,7.8-36.6,1.9-33.7-22.7l98.2-131.9Z"/>
    <path class="st0" d="M565.1,451.5c30.3,35.5,30.2,94.7,25.3,139.1-11,98.9-109.8,200.1-188.9,253.4-7.9,5.3-22.2,17.4-31.7,15.4-5.1-1.1-7.1-5.5-2.3-10.8,9.8-10.9,38-26.9,51.7-38.5,80.3-68.3,154.2-130.8,163.3-244.7,3.4-43.3-5.3-73.6-17.3-114Z"/>
    <path class="st0" d="M508.1,559.6c46.3-9.7,36.4,67.8-6.4,47.6-21.2-10-16.7-42.7,6.4-47.6Z"/>
    <path class="st0" d="M739.1,548.1c28.9.8,24.1,39.1,6.3,47.2-35.3,16-53.9-48.5-6.3-47.2Z"/>
  </g>
  <path class="st0" d="M2597.4,790c-9,0-17.1-2-24.1-6-7.1-4-12.6-9.5-16.6-16.6-4-7.1-6-15.1-6-24s2-16.8,6.1-23.9c4.1-7.1,9.6-12.6,16.7-16.7,7.1-4.1,15.1-6.1,24-6.1s16.8,2,23.8,6c7,4,12.6,9.6,16.6,16.6,4.1,7.1,6.1,15.1,6.1,24s-2,16.9-6,24c-4,7.1-9.6,12.6-16.6,16.6s-15,6-23.9,6ZM2597.4,785.4c7.9,0,15-1.8,21.3-5.4,6.3-3.6,11.3-8.5,15-14.9,3.7-6.3,5.5-13.5,5.5-21.6s-1.8-15-5.5-21.5c-3.7-6.5-8.6-11.5-15-15.2-6.3-3.7-13.4-5.5-21.3-5.5s-15.2,1.8-21.6,5.5c-6.5,3.7-11.5,8.7-15,15.2-3.6,6.5-5.4,13.6-5.4,21.5s1.8,15.2,5.4,21.6c3.6,6.3,8.6,11.3,15,14.9,6.5,3.6,13.7,5.4,21.6,5.4ZM2576,774.2v-62.7h23.5c7.1,0,12.7,1.7,16.6,5.1s5.8,8,5.8,13.8-1.2,8.1-3.5,11c-2.4,3-5.8,5.1-10.4,6.3l13.6,26.6h-12.7l-12.2-25.2h-9.5v25.2h-11.3ZM2599,739.7c3.6,0,6.4-.9,8.5-2.6,2.1-1.7,3.2-4,3.2-6.8s-1.1-5.3-3.2-7c-2.2-1.7-5-2.6-8.5-2.6h-11.7v19h11.7Z"/>
</svg>