<?xml version="1.0" encoding="UTF-8"?>
<svg id="Capa_2" xmlns="http://www.w3.org/2000/svg" version="1.1" viewBox="0 0 178.8 195.2">
  <!-- Generator: Adobe Illustrator 29.5.1, SVG Export Plug-In . SVG Version: 2.1.0 Build 141)  -->
  <defs>
    <style>
      .st0 {
        fill: #e3f049;
      }
    </style>
  </defs>
  <g id="Capa_1-2">
    <g>
      <path class="st0" d="M94.7,97.3h0c9.6-2.2,19.7,1.8,28.3,6.2,23.4,12,64.1,46.6,38.9,64.3-9.8,6.7-21.9,6-33.2,5.7-33-1.1-35.3,17.2-60,21.4-14.8,2.1-23.8-6.1-23.9-20.3,0-2.3.3-4.7.8-7,3.2-12.9,9.1-27.4,14.1-39.4,2.2-5,4.5-10,7.8-14.3,6.6-8.3,16.8-14.2,27.1-16.6h0Z"/>
      <path class="st0" d="M44.2,15.8h0c17.4-2.2,28.4,17.3,31.8,32,3.7,15.4,2,38-16.9,42.3C25.4,97.3,7,23.1,44.2,15.8h0Z"/>
      <path class="st0" d="M103.1.1h0c17.2-1.9,27.6,17.8,31,32.4,3.6,15.4,1.8,38.3-17.5,42C82.5,80.4,65.1,6.5,103.1.1h0Z"/>
      <path class="st0" d="M159.3,41.8h0c13.6-.6,18.9,15,19.3,26.8.2,4.9-.6,10-2.2,14.8-7.1,21.7-30.9,29.9-38.3,5.5-1.3-4.1-2-8.7-1.7-12.8.8-12.6,7.4-32.8,22.8-34.2h0Z"/>
      <path class="st0" d="M13,82.7h0c7.2-1.7,14.4,1.6,20,5.8,12.2,9,25.3,31.8,11.9,45.1-23.6,21.5-66.5-41.7-31.9-50.9h0Z"/>
    </g>
  </g>
</svg>