<?xml version="1.0" encoding="UTF-8"?>
<svg id="Capa_2" data-name="Capa 2" xmlns="http://www.w3.org/2000/svg" viewBox="0 0 178.76 195.25">
  <defs>
    <style>
      .cls-1 {
        fill: rgba(245, 181, 211, .8);
      }
    </style>
  </defs>
  <g id="Capa_1-2" data-name="Capa 1">
    <g>
      <path class="cls-1" d="M84.07,97.33c10.39,2.36,20.53,8.26,27.14,16.61,3.36,4.3,5.66,9.27,7.83,14.26,4.98,12.01,10.95,26.55,14.13,39.41.5,2.34.8,4.65.82,6.99-.09,14.2-9.16,22.42-23.93,20.34-24.66-4.19-27.02-22.45-59.99-21.35-11.29.28-23.4.96-33.18-5.74-25.27-17.69,15.48-52.35,38.86-64.32,8.55-4.36,18.65-8.44,28.29-6.2h.04s0,0,0,0Z"/>
      <path class="cls-1" d="M134.57,15.82c37.2,7.28,18.8,81.48-14.92,74.32-18.97-4.32-20.61-26.94-16.93-42.3,3.45-14.76,14.38-34.22,31.81-32.01h.05s0,0,0,0Z"/>
      <path class="cls-1" d="M75.7.14c37.96,6.36,20.52,80.23-13.55,74.39-19.26-3.72-21.15-26.63-17.5-42.03C48.02,17.96,58.46-1.81,75.65.13h.05s0,0,0,0Z"/>
      <path class="cls-1" d="M19.42,41.79c15.34,1.43,21.99,21.62,22.79,34.24.24,4.19-.4,8.76-1.72,12.85-7.39,24.38-31.18,16.19-38.26-5.5C.63,78.6-.15,73.54.02,68.62c.48-11.87,5.71-27.48,19.34-26.85h.05Z"/>
      <path class="cls-1" d="M165.75,82.74c34.65,9.2-8.28,72.38-31.9,50.87-13.47-13.28-.39-36.15,11.86-45.12,5.56-4.14,12.78-7.43,19.98-5.76h.05s0,0,0,0Z"/>
    </g>
  </g>
</svg>