<?xml version="1.0" encoding="UTF-8"?>
<svg id="Capa_2" data-name="Capa 2" xmlns="http://www.w3.org/2000/svg" viewBox="0 0 234.83 103.66">
  <defs>
    <style>
      .cls-1 {
        fill: #ec6642;
      }

      .cls-2 {
        fill: #dedf50;
      }
    </style>
  </defs>
  <g id="Capa_1-2" data-name="Capa 1">
    <g>
      <path class="cls-2" d="M232.35,89.92c-3.63,8.87-10.68,13.74-19.86,13.74-10.48,0-21.73-6.57-29.34-12.09-2.19-1.58-4.58-3.88-6.9-6.09-1.58-1.52-4.23-4.07-5.18-4.64-.19-.1-2.68-1.24-12.63-1.24-5.86,0-12.31.38-17.99.71-4.33.25-8.06.46-10.89.48h-.26c-2.29,0-4.52-.18-6.67-.34-1.7-.14-3.31-.26-4.74-.29-2.09-.04-4.18-.06-6.28-.08-14.64-.18-29.71-.37-44.76-2.25-7.31,10.63-21.51,18.06-35.76,18.06-11.56,0-21.31-5.08-26.76-13.93-6.36-10.32-5.01-22.91,3.4-34.78C3.35,41.84.48,34.69.06,27.37-.49,18.15,3,10.09,9.63,5.27,14.44,1.77,20.23,0,26.84,0c12.1,0,23.1,5.99,27.28,8.57,2.06,1.27,3.82,2.7,5.37,3.96,2.62,2.12,4.18,3.33,5.73,3.46l100.7,5.47c3.72-.94,9.24-4.84,14.14-8.31,8.76-6.21,17.82-12.63,27.95-12.63,4.61,0,8.89,1.37,12.73,4.04,5.74,4.01,9.02,9.99,9.49,17.28.57,8.87-3.31,18.74-8.47,26.33,11.59,10.32,16.43,27.44,10.59,41.74Z"/>
      <path class="cls-1" d="M211.96,49.6c-.36-2.02,1.48-4.11,2.6-5.83,7.98-10.85,11.97-29.54-2.87-34.22-15.27-4.28-30.67,18.56-46.68,20.1-3.08-.14-5.62-.31-9.54-.51-24.57-1.34-77.93-4.24-89.34-4.87-7.09-.42-12.82-6.61-18.87-9.94-10.77-6.07-27.41-10.09-35.83,1.09-5.2,7.23-3.09,18.86,2.58,25.93,3.35,3.83,3.52,6.67.48,10.74-8.18,10.88-8.01,25.91,4.79,32.75,12.55,6.52,30.96.42,39.28-10.4,2.87-4.08,6.92-5.42,11.77-4.53,18.8,2.22,37.81,1.45,56.67,2.5,12.91.82,38.33-4.04,48.97,2.08,2.78,1.76,5.42,4.41,7.94,6.65,6.86,6.18,14.74,11.26,23.76,13.52,9.94,2.67,17.06-3.78,18.48-13.46,1.65-10.19-2.9-20.77-10.74-27.24-1.31-1.16-3.14-2.64-3.43-4.21l-.02-.14h-.01ZM214.17,79.92c-1.82,9.8-20.99-4.84-24.5-7.72-4.57-3.78-9.36-7.54-15.02-8.82-16.06-3.35-32.64,2.25-48.84.75-15.96-1.03-32.75-2.62-48.5-4.89-4.33-.68-9.29-1.65-13.65-2.02-3.1-.24-5.85-.06-8.37,1.57-3.51,2.22-5.65,7.04-9.07,10.17-5.54,5.43-17.01,8.38-22.97,2.88-3.85-4.98.83-11.64,6-16.18,3.01-2.71,7.05-4.57,9.43-7.85,2.51-3.4.61-7.69-3.02-9.11-4.55-1.69-9.9-2.66-12.45-7.37-6.36-11.13,6.9-11.64,14.15-7.87,7.03,3.03,12.08,8.14,19.4,10.71,4.59,1.65,9.47,2.15,14.25,2.4,21.61,1.03,46.21.39,68.5-.55,10.03-.52,20.29-1.66,30.31-3.15,5.71-.94,10.46-3.45,15.79-6.1,7.12-2.81,17.27-12.14,24.75-7.67,3.31,2.73.7,10.51-3.27,16.19-2.85,4.46-7.71,7.07-10.97,11.09-3.29,3.96-1.78,8.88,2.45,11.29,1.95,1.27,4.14,2.35,6.09,3.67,6.17,3.98,10.63,11.04,9.54,18.38l-.03.19h0Z"/>
    </g>
  </g>
</svg>