<?xml version="1.0" encoding="UTF-8"?>
<svg id="Capa_2" data-name="Capa 2" xmlns="http://www.w3.org/2000/svg" viewBox="0 0 181.7 132.96">
  <defs>
    <style>
      .cls-1 {
        fill: #71160c;
      }

      .cls-2 {
        fill: #fbdd9d;
      }
    </style>
  </defs>
  <g id="Capa_1-2" data-name="Capa 1">
    <g>
      <path class="cls-2" d="M170.07,107.01c-1.57,8.95-6.76,16.7-14.62,21.82-6.51,4.24-15.48,5.27-24.64,2.84-7.72-2.05-14.64-6.3-18.99-11.65-1.67-2.07-3.05-4.97-4.37-7.77-.45-.96-1.07-2.27-1.52-3.12-1.66-.68-4.98-1.59-6.52-2.02-.71-.19-1.33-.36-1.86-.52-2.41-.69-8.57-2.42-15.71-4.32-16.12-4.28-23.39-5.79-26.55-6.31-.52.54-1.17,1.11-1.97,1.6-9.51,5.83-18.58,7.31-28.53,4.66-3.24-.86-6.6-2.16-10.24-3.99C.64,91.28-3.21,71.47,2.63,58.41c2.1-4.7,6.18-10.21,11.89-13.65-1.66-4.99-3.06-10.62-1.95-17.47,1.32-8.15,6.64-15.79,14.61-20.97C36.01.58,46.7-1.4,55.77,1c1.68.45,3.31,1.05,4.83,1.78,7.62,3.66,15.08,10.01,19.96,16.97,1.34,1.91,2.52,3.93,3.51,6.05.51,1.07,1.07,1.6,5.02,2.86,2.65.84,5.57,1.7,9.18,2.69,1.87.52,3.76,1.03,5.64,1.53,4.9,1.3,8.63,2.16,12.08,2.76.26.05.5.09.74.12,1.29-.4,4.03-1.89,5.9-2.91,3.76-2.05,7.64-4.17,11.47-5,7.51-1.61,14.7-1.54,21.38.24,13.81,3.67,23.98,14.63,25.89,27.93,1.71,11.95-3.33,23.55-13.66,32.11,2.66,5.93,3.5,12.43,2.36,18.88Z"/>
      <path class="cls-1" d="M74.39,24.09c1.09,1.55,2.04,3.19,2.85,4.91,1.96,4.18,5.32,5.5,9.57,6.86,3.13,1,6.3,1.91,9.47,2.79,6.07,1.68,12.21,3.36,18.42,4.45.55.1,1.11.19,1.67.26,4.18.53,13.29-6.81,19.32-8.11,35.61-7.65,53.84,31.47,22.02,50.75,9.02,11.98,6.24,28.29-6.38,36.51-9.82,6.39-26.54,1.51-33.63-7.24-2.29-2.83-4.91-10.54-6.66-11.92-2.02-1.6-8.46-3.16-11.37-4-7.04-2.04-42.87-11.93-47.2-11.17-1.87.33-1.87,2.22-3.09,2.96-10.93,6.7-20.18,5.99-31.45.36-10.1-5.05-12.72-20.32-8.4-29.98,2.57-5.74,8.19-11.37,14.47-12.33-2.28-7.16-5.24-12.85-3.97-20.67,2.46-15.27,23.61-25.48,37.3-18.9,6.47,3.11,12.93,8.62,17.06,14.5ZM145.49,86.43c-.33-.53-.86-3.76-.43-4.27,5.16-2,9.39-1.91,14.05-5.38,9.41-7.01,11.84-17.06,4.39-26.53-1.48-1.88-3.23-3.54-5.24-4.86-5.41-3.54-12.06-4.05-18.3-3.01-3.3.55-6.52,1.5-9.64,2.68-3.01,1.14-5.91,3.1-9.03,3.8-3.62.81-6.61-.14-9.97-1.36-3.63-1.33-7.36-2.37-11.1-3.36-7.43-1.96-15.01-3.66-22.04-6.84-5.85-2.65-9.73-12.08-15.39-16.46-9.31-7.2-19.63-9.6-29.97-3.18-7.89,4.9-7.92,15.56-4.74,23.33,2.09,5.12,5.25,6.16,8.31,10.33-.86,6.58-6.49,3.08-11.17,4.1-11.12,2.41-15.47,18.59-8,26.88,6.2,6.87,15.86,9.83,24.54,6.35,4.08-1.64,7.74-6.84,11.33-6.49,6.7.65,16.46,4.59,23.52,6.23,10.35,2.41,22.78,4.06,32.89,6.9,9.77,2.74,6.9,8.1,10.92,14.29,10.62,16.35,39.32,10.61,36.14-10.68-1.44-9.64-8.83-8.87-11.07-12.45Z"/>
    </g>
  </g>
</svg>