<?xml version="1.0" encoding="UTF-8"?>
<svg id="Capa_2" data-name="Capa 2" xmlns="http://www.w3.org/2000/svg" viewBox="0 0 281.1 205.69">
  <defs>
    <style>
      .cls-1 {
        letter-spacing: 0em;
      }

      .cls-2 {
        fill: #9b9bcd;
      }

      .cls-3, .cls-4 {
        fill: #71160c;
      }

      .cls-4 {
        font-family: PPAgrandirNormalVariable-Medium, 'PP Agrandir Normal Variable';
        font-size: 28.81px;
        font-variation-settings: 'wght' 469, 'ital' 0;
        font-weight: 500;
      }

      .cls-5 {
        letter-spacing: 0em;
      }
    </style>
  </defs>
  <g id="Capa_1-2" data-name="Capa 1">
    <g>
      <g>
        <path class="cls-2" d="M263.11,165.55c-2.43,13.85-10.45,25.84-22.61,33.75-10.07,6.55-23.95,8.15-38.12,4.39-11.94-3.17-22.66-9.75-29.37-18.03-2.59-3.21-4.71-7.7-6.76-12.02-.7-1.48-1.66-3.52-2.35-4.82-2.57-1.05-7.71-2.46-10.09-3.13-1.1-.29-2.06-.56-2.88-.8-3.72-1.07-13.26-3.75-24.3-6.68-24.94-6.62-36.19-8.95-41.07-9.76-.81.84-1.8,1.72-3.04,2.48-14.71,9.02-28.75,11.3-44.15,7.22-5.02-1.33-10.2-3.35-15.85-6.18C.99,141.22-4.97,110.57,4.08,90.36c3.24-7.28,9.57-15.79,18.39-21.12-2.57-7.71-4.73-16.43-3.02-27.03,2.04-12.61,10.27-24.43,22.61-32.44C55.72.9,72.26-2.17,86.28,1.55c2.6.69,5.12,1.62,7.48,2.75,11.78,5.67,23.33,15.49,30.89,26.26,2.07,2.95,3.9,6.08,5.43,9.36.79,1.66,1.66,2.48,7.77,4.43,4.1,1.29,8.61,2.63,14.2,4.17,2.9.8,5.81,1.6,8.72,2.37,7.59,2.01,13.35,3.34,18.68,4.27.4.07.78.14,1.14.18,1.99-.61,6.24-2.92,9.13-4.51,5.82-3.17,11.82-6.45,17.74-7.73,11.62-2.5,22.75-2.38,33.08.37,21.37,5.67,37.1,22.64,40.05,43.2,2.64,18.48-5.15,36.44-21.14,49.68,4.11,9.18,5.42,19.23,3.65,29.2Z"/>
        <path class="cls-3" d="M115.08,37.27c1.68,2.4,3.16,4.94,4.41,7.59,3.03,6.47,8.24,8.51,14.81,10.61,4.85,1.55,9.74,2.95,14.65,4.31,9.39,2.59,18.89,5.2,28.5,6.88.86.15,1.72.29,2.58.4,6.47.83,20.56-10.54,29.89-12.55,55.09-11.84,83.29,48.69,34.07,78.51,13.96,18.54,9.66,43.76-9.87,56.48-15.18,9.89-41.06,2.34-52.04-11.2-3.54-4.37-7.59-16.3-10.3-18.44-3.13-2.47-13.09-4.89-17.59-6.2-10.89-3.16-66.32-18.46-73.03-17.29-2.9.51-2.9,3.43-4.78,4.58-16.9,10.36-31.22,9.26-48.65.56-15.63-7.81-19.68-31.43-12.99-46.39,3.97-8.88,12.68-17.58,22.39-19.08-3.52-11.07-8.1-19.87-6.15-31.98,3.81-23.62,36.53-39.43,57.71-29.23,10.01,4.82,20,13.34,26.39,22.44ZM225.08,133.71c-.51-.81-1.32-5.82-.67-6.6,7.99-3.1,14.52-2.95,21.74-8.33,14.57-10.84,18.32-26.39,6.78-41.05-2.29-2.91-5-5.48-8.1-7.51-8.37-5.48-18.65-6.26-28.31-4.65-5.1.85-10.09,2.32-14.92,4.15-4.66,1.76-9.14,4.8-13.97,5.88-5.6,1.25-10.22-.21-15.42-2.11-5.62-2.05-11.39-3.67-17.17-5.2-11.5-3.03-23.22-5.66-34.1-10.58-9.05-4.1-15.05-18.69-23.82-25.47-14.41-11.14-30.36-14.86-46.37-4.92-12.21,7.58-12.25,24.07-7.34,36.09,3.24,7.91,8.13,9.53,12.85,15.97-1.32,10.19-10.05,4.77-17.27,6.34-17.2,3.73-23.94,28.77-12.37,41.58,9.59,10.62,24.54,15.21,37.96,9.82,6.32-2.54,11.97-10.58,17.53-10.04,10.37,1,25.47,7.1,36.39,9.64,16.01,3.72,35.24,6.28,50.88,10.67s10.67,12.53,16.9,22.12c16.43,25.29,60.83,16.42,55.91-16.52-2.23-14.91-13.66-13.72-17.12-19.27Z"/>
      </g>
      <text class="cls-4" transform="translate(70.68 91.96) rotate(13.38)"><tspan x="0" y="0">el campi</tspan><tspan class="cls-1" x="113.66" y="0">t</tspan><tspan class="cls-5" x="127.11" y="0">o</tspan></text>
    </g>
  </g>
</svg>