<svg width="32" height="32" viewBox="0 0 32 32" fill="none" xmlns="http://www.w3.org/2000/svg">
<path d="M24.0209 7.9791H24.0355M8.70841 1.4166H23.2917C27.3188 1.4166 30.5834 4.6812 30.5834 8.70827V23.2916C30.5834 27.3187 27.3188 30.5833 23.2917 30.5833H8.70841C4.68134 30.5833 1.41675 27.3187 1.41675 23.2916V8.70827C1.41675 4.6812 4.68134 1.4166 8.70841 1.4166ZM21.8334 15.0812C22.0134 16.2949 21.8061 17.5344 21.241 18.6235C20.6759 19.7126 19.7818 20.5957 18.6858 21.1474C17.5898 21.699 16.3478 21.891 15.1364 21.6961C13.9251 21.5012 12.806 20.9292 11.9384 20.0616C11.0708 19.194 10.4989 18.075 10.3039 16.8636C10.109 15.6522 10.301 14.4102 10.8526 13.3142C11.4043 12.2183 12.2874 11.3241 13.3765 10.759C14.4656 10.1939 15.7051 9.98663 16.9188 10.1666C18.1568 10.3502 19.303 10.9271 20.188 11.8121C21.0729 12.697 21.6498 13.8432 21.8334 15.0812Z" stroke="#31391A" stroke-width="2" stroke-linecap="round" stroke-linejoin="round"/>
</svg>
