<?xml version="1.0" encoding="UTF-8"?>
<svg id="Capa_2" data-name="Capa 2" xmlns="http://www.w3.org/2000/svg" viewBox="0 0 11.99 16">
  <defs>
    <style>
      .cls-1 {
        fill: #f5b5d2;
      }
    </style>
  </defs>
  <g id="Capa_1-2" data-name="Capa 1">
    <path class="cls-1" d="M6.4,0c.32.05.64.09.95.16,2.32.51,4.15,2.47,4.55,4.82.21,1.25,0,2.43-.46,3.59-.52,1.33-1.27,2.54-2.11,3.69-.93,1.28-1.97,2.48-3.09,3.59-.21.2-.3.2-.51,0-1.58-1.58-3-3.28-4.16-5.19-.64-1.06-1.17-2.18-1.45-3.4C-.42,4.76.75,2.1,2.97.83,3.75.38,4.58.1,5.49.03c.04,0,.07-.02.1-.03.27,0,.54,0,.81,0ZM8.75,6c0-1.52-1.24-2.75-2.75-2.75-1.53,0-2.75,1.24-2.74,2.77,0,1.51,1.25,2.73,2.78,2.73,1.5,0,2.73-1.25,2.72-2.75Z"/>
  </g>
</svg>