<?xml version="1.0" encoding="UTF-8"?>
<svg id="Capa_2" data-name="Capa 2" xmlns="http://www.w3.org/2000/svg" viewBox="0 0 179.96 199.16">
  <defs>
    <style>
      .cls-1 {
        fill: #ec6642;
      }

      .cls-2 {
        fill: #dedf50;
      }
    </style>
  </defs>
  <g id="Capa_1-2" data-name="Capa 1">
    <g>
      <path class="cls-1" d="M179.42,151.55l-.06.66c-.75,8.33-2.29,25.64-14.89,27.18-1.02.12-2.09.18-3.26.18-2.34,0-4.69-.24-6.98-.47-2.13-.22-4.14-.42-5.97-.42-1.34,0-2.43.11-3.25.35-.11.05-.25.12-.41.21.3,3.35-.59,5.94-1.62,7.76-4.69,8.24-16.87,9.22-24.93,9.88l-1.2.1c-17.1,1.45-33.09,2.18-47.51,2.18-12.83,0-24.23-.59-33.89-1.77-17.72-2.16-21.67-10.39-26.06-23.69C-3.63,134.28-5.01,74.29,17.53,35.86c.5-.85,1.12-1.64,1.73-2.38-.06-.3-.12-.58-.17-.82-.27-1.23-.53-2.52-.62-3.78-.54-8.71.92-14.77,4.46-18.54,2.36-2.51,5.48-3.84,9.03-3.84,4.13,0,8.69,1.81,13.94,5.54,1.02.72,1.95,1.47,2.81,2.21C53.03,7.49,58.71.02,66.4,0c4.63,0,8.81,2.38,12.08,6.67,2.98-3.22,6.58-5.94,10.91-5.97,6.53,0,10.47,4.09,12.96,8.6,3.09-2.75,7.03-5.45,12.19-5.45,1.67,0,3.35.29,5,.87,3.95,1.4,6.39,4.13,8.07,6.8,3.81-3.1,8.32-6.18,13.43-6.18.43,0,.87.02,1.29.07,6.99.74,11.56,6.24,12.22,14.7.76,9.74.17,18.02-1.76,24.65,20.4,37.26,29.6,74.13,26.63,106.8Z"/>
      <path class="cls-2" d="M145.41,45.43c2.85-7.34,2.99-16.95,2.38-24.79-.29-3.85-1.79-8.03-6.17-8.49-5.36-.57-11.78,6.96-16.07,9.71-2.49-3.65-3.56-9.08-8.26-10.75-7.15-2.53-11.7,5.37-16.61,8.81-.42.29-.49.68-1.23.48-1.47-4.76-3.87-12.96-10.01-12.93-5.12.03-11.63,12.1-12.45,11.46-1.39-4.71-4.91-12.18-10.57-12.16-6.35.02-12.84,12.89-16.05,17.53-3.1-1.88-5.43-4.65-8.38-6.74-12.65-8.97-17.62-3.21-16.75,10.88.12,1.88,1.25,5.19.99,6.81-.13.84-2.18,2.89-2.84,4.03C2.26,75.28,3.01,132.75,15.83,171.56c4.11,12.45,6.64,17.4,20.45,19.09,24.23,2.96,55.5,1.64,79.99-.43,8.47-.72,26.67-1.53,20.27-14.63,2.24-.35,4.48-2.46,6.48-3.04,6.19-1.81,14.51.86,20.62.12,7.42-.91,8.48-15.8,9.01-21.73,3.35-36.75-9.55-73.96-27.26-105.51h.02ZM112.87,180.95c-22.85,1.69-51.08,2.93-73.71.49-8.2-.88-9.74-.9-12.83-8.66-11.71-29.51-13.6-69.62-8.77-100.76,1.57-10.09,5.04-27.02,10.06-35.31,1.76-2.92.66-16.27,3.46-18.05,1.88-1.2,8.38,4.79,9.87,6.17,2.57,2.39,6.01,7.85,9.93,7.7,4.55-.16,9.11-9.92,11.95-13.34.81-.99,2.41-3.21,3.62-3.21,1.07,0,4.15,13.34,8.34,14.16,6.74,1.32,10.14-7.29,14.15-11.21,3.11,8.26,5.59,17.17,15.83,9.96,2.45-1.72,7.04-7.14,9.09-8,.8-.35.65.31.83.6,2.38,4.06,2.8,10.39,8.52,11.39,5.64.98,10.77-6.56,15.29-9.07-.08,2.51.11,5.05,0,7.56-.08,1.77-.38,5.95-.86,7.43-.69,2.1-7,9.45-8.8,12.68-17.31,31.08-9.3,87.07-2.9,121.28.38,2.07,1.04,4.27,1.81,6.23-.44.6-13.04,1.82-14.89,1.95v-.02ZM163.33,167.23c-7.46.27-15.4.23-22.38,3.24-1.04.45-4.96,3.11-5.38,2.68-.55-7.88-2.63-15.55-3.77-23.32-1.88-12.96-3.18-26.26-3.58-39.36-.68-22.87-.1-46.23,15.89-64.18l12.8,40.88c4.77,18.01,8.42,36.78,8.65,55.49.04,3.21-.36,23.38-2.23,24.58h0Z"/>
      <path class="cls-2" d="M97.68,104.88c-7.13-7.53-21.4-24.2-32.89-20.29-7.6,2.58-25.97,24.4-31.45,31.51-.48.62-3.56,4.47-3.22,4.83l14.64-11.22c-.15,1.89-.85,3.68-.98,5.6-.53,7.54-.25,19.27.51,26.85.66,6.6,5,8.11,10.95,8.56,8.06.6,31.12.77,38-2.08,8.29-3.42,4.33-16.42,3.12-23.41-1.23-7.19-2.96-14.31-4.73-21.38l11.71,9.27-5.66-8.25ZM92.12,134.8c.08,2.91.95,7.58-2.8,7.97-11.38-.02-24.81,1.92-36.03,1.11-.88-.07-1.8-.08-2.55-.63l-4.93-29.46c.06-1.63-.56-4.54.39-5.83,4.95-3.64,9.22-8.57,13.96-12.39,2.08-1.67,6.27-5.15,8.85-5.21,5.91-.15,16.34,9.39,21.4,12.52.63,4.11.03,8.33.23,12.46.3,6.45,1.32,13.04,1.48,19.46Z"/>
    </g>
  </g>
</svg>