<?xml version="1.0" encoding="UTF-8"?>
<svg id="Capa_2" xmlns="http://www.w3.org/2000/svg" version="1.1" viewBox="0 0 180 199.2">
  <!-- Generator: Adobe Illustrator 29.5.1, SVG Export Plug-In . SVG Version: 2.1.0 Build 141)  -->
  <defs>
    <style>
      .st0 {
        fill: #71160c;
      }

      .st1 {
        fill: #f5b5d2;
      }
    </style>
  </defs>
  <g id="Capa_1-2">
    <g>
      <path class="st1" d="M179.4,151.6v.7c-.8,8.3-2.3,25.6-14.9,27.2-1,.1-2.1.2-3.3.2-2.3,0-4.7-.2-7-.5-2.1-.2-4.1-.4-6-.4s-2.4.1-3.2.4c-.1,0-.2.1-.4.2.3,3.4-.6,5.9-1.6,7.8-4.7,8.2-16.9,9.2-24.9,9.9h-1.2c-17.1,1.6-33.1,2.3-47.5,2.3s-24.2-.6-33.9-1.8c-17.7-2.2-21.7-10.4-26.1-23.7C-3.6,134.3-5,74.3,17.5,35.9c.5-.8,1.1-1.6,1.7-2.4,0-.3-.1-.6-.2-.8-.3-1.2-.5-2.5-.6-3.8-.5-8.7.9-14.8,4.5-18.5,2.4-2.5,5.5-3.8,9-3.8s8.7,1.8,13.9,5.5c1,.7,2,1.5,2.8,2.2C53,7.5,58.7,0,66.4,0c4.6,0,8.8,2.4,12.1,6.7,3-3.2,6.6-5.9,10.9-6,6.5,0,10.5,4.1,13,8.6,3.1-2.8,7-5.4,12.2-5.4s3.3.3,5,.9c3.9,1.4,6.4,4.1,8.1,6.8,3.8-3.1,8.3-6.2,13.4-6.2s.9,0,1.3,0c7,.7,11.6,6.2,12.2,14.7.8,9.7.2,18-1.8,24.7,20.4,37.3,29.6,74.1,26.6,106.8h0Z"/>
      <path class="st0" d="M145.4,45.4c2.9-7.3,3-17,2.4-24.8-.3-3.9-1.8-8-6.2-8.5-5.4-.6-11.8,7-16.1,9.7-2.5-3.6-3.6-9.1-8.3-10.8-7.2-2.5-11.7,5.4-16.6,8.8-.4.3-.5.7-1.2.5-1.5-4.8-3.9-13-10-12.9-5.1,0-11.6,12.1-12.4,11.5-1.4-4.7-4.9-12.2-10.6-12.2-6.3,0-12.8,12.9-16,17.5-3.1-1.9-5.4-4.6-8.4-6.7-12.6-9-17.6-3.2-16.8,10.9.1,1.9,1.2,5.2,1,6.8-.1.8-2.2,2.9-2.8,4C2.3,75.3,3,132.8,15.8,171.6c4.1,12.4,6.6,17.4,20.4,19.1,24.2,3,55.5,1.6,80-.4,8.5-.7,26.7-1.5,20.3-14.6,2.2-.4,4.5-2.5,6.5-3,6.2-1.8,14.5.9,20.6.1,7.4-.9,8.5-15.8,9-21.7,3.4-36.8-9.6-74-27.3-105.5h0ZM112.9,180.9c-22.8,1.7-51.1,2.9-73.7.5-8.2-.9-9.7-.9-12.8-8.7-11.7-29.5-13.6-69.6-8.8-100.8,1.6-10.1,5-27,10.1-35.3,1.8-2.9.7-16.3,3.5-18,1.9-1.2,8.4,4.8,9.9,6.2,2.6,2.4,6,7.9,9.9,7.7,4.5-.2,9.1-9.9,12-13.3.8-1,2.4-3.2,3.6-3.2s4.2,13.3,8.3,14.2c6.7,1.3,10.1-7.3,14.2-11.2,3.1,8.3,5.6,17.2,15.8,10,2.4-1.7,7-7.1,9.1-8,.8-.4.7.3.8.6,2.4,4.1,2.8,10.4,8.5,11.4,5.6,1,10.8-6.6,15.3-9.1,0,2.5.1,5,0,7.6,0,1.8-.4,5.9-.9,7.4-.7,2.1-7,9.5-8.8,12.7-17.3,31.1-9.3,87.1-2.9,121.3.4,2.1,1,4.3,1.8,6.2-.4.6-13,1.8-14.9,1.9h0s0,0,0,0ZM163.3,167.2c-7.5.3-15.4.2-22.4,3.2-1,.4-5,3.1-5.4,2.7-.6-7.9-2.6-15.6-3.8-23.3-1.9-13-3.2-26.3-3.6-39.4-.7-22.9-.1-46.2,15.9-64.2l12.8,40.9c4.8,18,8.4,36.8,8.6,55.5,0,3.2-.4,23.4-2.2,24.6h0Z"/>
      <path class="st0" d="M97.7,104.9c-7.1-7.5-21.4-24.2-32.9-20.3-7.6,2.6-26,24.4-31.5,31.5-.5.6-3.6,4.5-3.2,4.8l14.6-11.2c-.2,1.9-.8,3.7-1,5.6-.5,7.5-.2,19.3.5,26.9.7,6.6,5,8.1,11,8.6,8.1.6,31.1.8,38-2.1,8.3-3.4,4.3-16.4,3.1-23.4-1.2-7.2-3-14.3-4.7-21.4l11.7,9.3-5.7-8.2h0ZM92.1,134.8c0,2.9.9,7.6-2.8,8-11.4,0-24.8,1.9-36,1.1-.9,0-1.8,0-2.5-.6l-4.9-29.5c0-1.6-.6-4.5.4-5.8,5-3.6,9.2-8.6,14-12.4,2.1-1.7,6.3-5.2,8.9-5.2,5.9-.2,16.3,9.4,21.4,12.5.6,4.1,0,8.3.2,12.5.3,6.4,1.3,13,1.5,19.5Z"/>
    </g>
  </g>
</svg>