<?xml version="1.0" encoding="UTF-8"?>
<svg id="Capa_1" xmlns="http://www.w3.org/2000/svg" version="1.1" viewBox="0 0 1920 500">
  <!-- Generator: Adobe Illustrator 29.5.1, SVG Export Plug-In . SVG Version: 2.1.0 Build 141)  -->
  <defs>
    <style>
      .st0 {
        fill: #ffdf53;
      }
    </style>
  </defs>
  <g>
    <path class="st0" d="M1473.5,140.9c3.5-11.2,11-21.6,21-27.9,5.1-3.2,10.9-5.1,16.8-6.9,14-4,30.9-8.8,45.7-10.7,2.7-.3,5.3-.3,8,0,16,1.9,24.6,12.9,21.1,29-6.7,26.7-27.6,27.1-29,63.6-.6,12.5-.8,26-9.2,35.9-22.1,25.7-58-23.6-69.6-50.9-4.2-10-8-21.7-4.7-32h0s0,0,0,0Z"/>
    <path class="st0" d="M1385.4,75c11.2-40.2,93.7-10.6,82.8,25.8-6.4,20.4-32.1,19.4-49.2,13.4-16.4-5.7-37.5-20.1-33.6-39.1h0c0,0,0,0,0,0Z"/>
    <path class="st0" d="M1362.9,138c10.3-41.1,92.4-12.7,83,24.2-5.8,20.8-31.8,20-49,14.1-16.2-5.5-37.7-19.5-34.1-38.3h0c0,0,0,0,0,0Z"/>
    <path class="st0" d="M1405.4,205.4c2.9-16.8,26.2-21.6,40.6-20.9,4.8.3,9.9,1.5,14.4,3.5,27,11.2,15.8,36.5-9.3,41.6-5.5,1.2-11.3,1.4-16.9.6-13.4-2-30.6-9.7-28.8-24.7h0q0,0,0,0Z"/>
    <path class="st0" d="M1463.6,48.9c13.2-37.1,81.2,18.2,55,41.6-16.1,13.2-40.9-4.1-50.1-18.7-4.2-6.7-7.4-15-4.9-22.8h0c0,0,0,0,0,0Z"/>
  </g>
  <g>
    <path class="st0" d="M1715.5,336.1h0c4.9-9.7,15.8-15.4,25.9-19.5,27.5-11.2,87.7-21.1,85.3,12.7-1.1,13-10.4,22.7-18.7,32-24.7,27-10.1,41.9-24.1,65.6-8.8,13.9-22.6,15.7-35.4,5.8-2.1-1.7-3.9-3.6-5.6-5.6-9.2-11.8-17.9-27.1-25-39.7-2.9-5.3-5.7-10.8-7.1-16.7-2.7-11.5-.7-24.2,4.7-34.6h0Z"/>
    <path class="st0" d="M1606.5,321.1h0c10.6-16.3,35.8-11.8,51.4-4.2,16.4,7.8,35.4,25.1,25.6,44.2-17.9,33.5-97.3-3.4-77-39.9h0Z"/>
    <path class="st0" d="M1634.8,260.4h0c10.6-15.9,35.8-10.7,51.2-3.3,16.4,7.8,35.4,25.6,24.9,44.4-19.3,32.8-97.7-4.7-76.1-41.1h0Z"/>
    <path class="st0" d="M1712.4,242.4h0c9.2-12,26.9-5.4,37.9,2.6,4.5,3.3,8.5,7.6,11.6,12.3,14.3,21.3,4.5,47.1-22.6,36.1-4.6-1.8-9.1-4.5-12.7-7.6-10.7-9.6-23.9-29.5-14.2-43.4h0Z"/>
    <path class="st0" d="M1643.8,394.7h0c3.7-7.3,11.8-11.1,19.5-12.8,16.8-4,46.6,1.1,48.8,21.9,2.2,35.1-85,26.6-68.3-9.1h0Z"/>
  </g>
  <g>
    <path class="st0" d="M1060.8,140.1c5.2-10.5,14.3-19.6,25.1-24.3,5.6-2.3,11.6-3.3,17.6-4.1,14.4-1.8,31.9-3.8,46.8-3.4,2.7.2,5.3.5,7.9,1.2,15.6,4.4,22.3,16.6,16.2,31.9-10.9,25.3-31.5,22.4-38.7,58.2-2.6,12.3-4.9,25.5-14.7,34-25.8,21.9-53.5-32.5-60.7-61.3-2.6-10.5-4.5-22.7.4-32.4h0s0,0,0,0Z"/>
    <path class="st0" d="M984.2,61.1c17.4-37.9,94.2,4.3,77.7,38.5-9.6,19.2-34.8,14.1-50.7,5.5-15.3-8.2-33.9-25.8-27-43.9h0c0,0,0,0,0,0Z"/>
    <path class="st0" d="M952,119.9c16.6-39,93.3,2,78.2,37-9,19.6-34.6,14.8-50.6,6.2-15.1-8-34.1-25.2-27.6-43.2h0c0,0,0,0,0,0Z"/>
    <path class="st0" d="M983.4,193.1c5.5-16.1,29.3-17.2,43.4-14.3,4.7,1,9.5,3.1,13.7,5.7,24.9,15.3,9.8,38.5-15.8,39.6-5.7.3-11.4-.4-16.8-2.1-12.9-4.1-28.7-14.4-24.5-28.9h0q0,0,0,0Z"/>
    <path class="st0" d="M1065.5,47.7c18.9-34.6,77.3,30.7,47.7,49.7-18,10.5-39.8-10.5-46.5-26.4-3.1-7.2-4.9-16-1.2-23.3h0c0,0,0,0,0,0Z"/>
  </g>
  <g>
    <path class="st0" d="M1270.1,347.5h0c7.8-7.6,20-9.3,30.8-9.9,29.7-1.6,89.8,8.9,76.4,40-5.3,11.9-17.3,18-28.2,24.1-32.2,17.4-23.3,36.3-44.3,54.1-12.9,10.3-26.5,7.4-35.3-6.1-1.4-2.3-2.5-4.6-3.5-7.2-4.8-14.1-8-31.4-10.6-45.8-1-6-1.8-12.1-1.2-18.1,1.2-11.7,7.3-23.1,15.8-31.1h0Z"/>
    <path class="st0" d="M1172.1,297.5h0c15.3-11.9,37.6.7,49.9,12.9,12.9,12.7,25.1,35.3,9.6,50.1-27.9,25.8-90.7-35.2-59.6-63h0Z"/>
    <path class="st0" d="M1218.8,249.5h0c15.2-11.5,37.3,1.6,49.4,13.7,12.9,12.7,25.1,35.8,8.9,50.2-29,24.7-90.8-36.5-58.4-63.9h0Z"/>
    <path class="st0" d="M1298,258h0c12.6-8.3,27.2,3.8,34.9,14.9,3.2,4.6,5.5,9.9,6.9,15.4,6.5,24.8-11.3,46-33.2,26.7-3.8-3.2-7.2-7.2-9.5-11.4-6.9-12.6-12.9-35.7.9-45.6h0Z"/>
    <path class="st0" d="M1183.1,379.2h0c5.9-5.7,14.8-6.6,22.6-5.7,17.2,1.8,43.7,16.4,38.9,36.7-9.4,33.9-89.1-2.8-61.5-31h0Z"/>
  </g>
  <g>
    <path class="st0" d="M613.5,141.3c6.6-9.7,16.8-17.6,28.1-20.7,5.8-1.6,11.9-1.7,18-1.8,14.6.2,32.1.5,46.9,2.9,2.7.5,5.2,1.2,7.6,2.3,14.8,6.4,19.9,19.4,11.8,33.8-14.1,23.7-34.2,18-46.1,52.6-4.2,11.8-8.3,24.6-19.1,31.8-28.5,18.3-48.7-39.3-52-68.8-1.2-10.8-1.5-23.1,4.7-32h0s0,0,0,0Z"/>
    <path class="st0" d="M548.1,52.8c22.3-35.3,92.8,16.8,71.9,48.5-12,17.7-36.4,9.3-51-1.3-14.1-10.1-30.2-30.1-21-47.2h0s0,0,0,0Z"/>
    <path class="st0" d="M508.4,106.8c21.7-36.4,92.1,14.5,72.6,47.1-11.5,18.3-36.3,10-50.9-.6-13.9-10-30.5-29.6-21.6-46.5h0s0,0,0,0Z"/>
    <path class="st0" d="M529.8,183.5c7.6-15.2,31.3-13.1,44.9-8.3,4.5,1.6,9,4.3,12.8,7.5,22.6,18.5,4.6,39.5-20.9,37.1-5.6-.5-11.2-1.9-16.3-4.3-12.2-5.8-26.5-18.1-20.5-32h0s0,0,0,0Z"/>
    <path class="st0" d="M630.5,50.3c23.3-31.8,72.5,40.8,40.7,55.6-19.2,8-38-15.7-42.6-32.3-2.1-7.6-2.7-16.5,1.9-23.2h0s0,0,0,0Z"/>
  </g>
  <g>
    <path class="st0" d="M846.1,336.1h0c4.9-9.7,15.8-15.4,25.9-19.5,27.5-11.2,87.7-21.1,85.3,12.7-1.1,13-10.4,22.7-18.7,32-24.7,27-10.1,41.9-24.1,65.6-8.8,13.9-22.6,15.7-35.4,5.8-2.1-1.7-3.9-3.6-5.6-5.6-9.2-11.8-17.9-27.1-25-39.7-2.9-5.3-5.7-10.8-7.1-16.7-2.7-11.5-.7-24.2,4.7-34.6h0Z"/>
    <path class="st0" d="M737.1,321.1h0c10.6-16.3,35.8-11.8,51.4-4.2,16.4,7.8,35.4,25.1,25.6,44.2-17.9,33.5-97.3-3.4-77-39.9h0Z"/>
    <path class="st0" d="M765.5,260.4h0c10.6-15.9,35.8-10.7,51.2-3.3,16.4,7.8,35.4,25.6,24.9,44.4-19.3,32.8-97.7-4.7-76.1-41.1h0Z"/>
    <path class="st0" d="M843.1,242.4h0c9.2-12,26.9-5.4,37.9,2.6,4.5,3.3,8.5,7.6,11.6,12.3,14.3,21.3,4.5,47.1-22.6,36.1-4.6-1.8-9.1-4.5-12.7-7.6-10.7-9.6-23.9-29.5-14.2-43.4h0Z"/>
    <path class="st0" d="M774.4,394.7h0c3.7-7.3,11.8-11.1,19.5-12.8,16.8-4,46.6,1.1,48.8,21.9,2.2,35.1-85,26.6-68.3-9.1h0Z"/>
  </g>
  <g>
    <path class="st0" d="M194,140.1c5.2-10.5,14.3-19.6,25.1-24.3,5.6-2.3,11.6-3.3,17.6-4.1,14.4-1.8,31.9-3.8,46.8-3.4,2.7.2,5.3.5,7.9,1.2,15.6,4.4,22.3,16.6,16.2,31.9-10.9,25.3-31.5,22.4-38.7,58.2-2.6,12.3-4.9,25.5-14.7,34-25.8,21.9-53.5-32.5-60.7-61.3-2.6-10.5-4.5-22.7.4-32.4h0s0,0,0,0Z"/>
    <path class="st0" d="M117.4,61.1c17.4-37.9,94.2,4.3,77.7,38.5-9.6,19.2-34.8,14.1-50.7,5.5-15.3-8.2-33.9-25.8-27-43.9h0c0,0,0,0,0,0Z"/>
    <path class="st0" d="M85.2,119.9c16.6-39,93.3,2,78.2,37-9,19.6-34.6,14.8-50.6,6.2-15.1-8-34.1-25.2-27.6-43.2h0c0,0,0,0,0,0Z"/>
    <path class="st0" d="M116.6,193.1c5.5-16.1,29.3-17.2,43.4-14.3,4.7,1,9.5,3.1,13.7,5.7,24.9,15.3,9.8,38.5-15.8,39.6-5.7.3-11.4-.4-16.8-2.1-12.9-4.1-28.7-14.4-24.5-28.9h0q0,0,0,0Z"/>
    <path class="st0" d="M198.7,47.7c18.9-34.6,77.3,30.7,47.7,49.7-18,10.5-39.8-10.5-46.5-26.4-3.1-7.2-4.9-16-1.2-23.3h0c0,0,0,0,0,0Z"/>
  </g>
  <g>
    <path class="st0" d="M392.7,331.5h0c7.8-7.6,20-9.3,30.8-9.9,29.7-1.6,89.8,8.9,76.4,40-5.3,11.9-17.3,18-28.2,24.1-32.2,17.4-23.3,36.3-44.3,54.1-12.9,10.3-26.5,7.4-35.3-6.1-1.4-2.3-2.5-4.6-3.5-7.2-4.8-14.1-8-31.4-10.6-45.8-1-6-1.8-12.1-1.2-18.1,1.2-11.7,7.3-23.1,15.8-31.1h0Z"/>
    <path class="st0" d="M294.7,281.5h0c15.3-11.9,37.6.7,49.9,12.9,12.9,12.7,25.1,35.3,9.6,50.1-27.9,25.8-90.7-35.2-59.6-63h0Z"/>
    <path class="st0" d="M341.4,233.5h0c15.2-11.5,37.3,1.6,49.4,13.7,12.9,12.7,25.1,35.8,8.9,50.2-29,24.7-90.8-36.5-58.4-63.9h0Z"/>
    <path class="st0" d="M420.6,241.9h0c12.6-8.3,27.2,3.8,34.9,14.9,3.2,4.6,5.5,9.9,6.9,15.4,6.5,24.8-11.3,46-33.2,26.7-3.8-3.2-7.2-7.2-9.5-11.4-6.9-12.6-12.9-35.7.9-45.6h0Z"/>
    <path class="st0" d="M305.7,363.2h0c5.9-5.7,14.8-6.6,22.6-5.7,17.2,1.8,43.7,16.4,38.9,36.7-9.4,33.9-89.1-2.8-61.5-31h0Z"/>
  </g>
</svg>