<?xml version="1.0" encoding="UTF-8"?>
<svg id="Capa_2" xmlns="http://www.w3.org/2000/svg" version="1.1" viewBox="0 0 96.3 96.2">
  <!-- Generator: Adobe Illustrator 29.5.1, SVG Export Plug-In . SVG Version: 2.1.0 Build 141)  -->
  <defs>
    <style>
      .st0 {
        fill: #71160c;
      }

      .st1 {
        fill: #f5b5d2;
      }
    </style>
  </defs>
  <g id="Capa_1-2">
    <g>
      <path class="st1" d="M96.2,59c-1.8,24.4-25.9,37.2-48.7,37.2s-18.5-2.2-25.7-6.3C4.7,80.2-3.3,60.3,1.3,39.3,6,17.6,22.5,1.9,42.4.2c1.4-.1,2.8-.2,4.2-.2,13.1,0,25.3,5.5,34.5,15.4,10.6,11.4,16.2,27.7,15,43.6h0Z"/>
      <path class="st0" d="M43,8C8,11-6.4,64.8,25.7,83.1c21.2,12.1,60.6,3.1,62.7-24.7,2-26.2-17.2-52.9-45.3-50.5h0ZM33.6,75.6c-13.5-6.5-18.1-21.4-13.5-35.2,7.4,3.3,15.9,2.2,23.5,4.2,17.9,4.8,2.2,23.2,5,34.4-5.3-.5-10.3-1.2-15.1-3.5h0ZM59.2,77.9c-2.8.6-5.6.7-8.4,1.2-1.2-1.7,5.3-13.4,6.2-15.8,3.2-8.5,3.2-18.1-5.6-23-9.6-5.2-20.4-.4-30.4-2.4,5-14.8,20.3-24.4,35.8-19.4-2.4,18.1,8,35.3,24.3,42.8-3.6,8.9-12.7,14.6-21.9,16.5h0ZM81.9,59.1c-4.4-3.3-8.5-8.3-11.6-12.9-5.5-8-9.8-17.1-11.4-26.8,5.7,2.4,11.1,6.3,15.1,11.1,5.9,7,9.1,19.5,7.9,28.6Z"/>
    </g>
  </g>
</svg>