<?xml version="1.0" encoding="UTF-8"?>
<svg id="Capa_2" data-name="Capa 2" xmlns="http://www.w3.org/2000/svg" viewBox="0 0 96.31 96.22">
  <defs>
    <style>
      .cls-1 {
        fill: #ec6642;
      }

      .cls-2 {
        fill: #dedf50;
      }
    </style>
  </defs>
  <g id="Capa_1-2" data-name="Capa 1">
    <g>
      <path class="cls-1" d="M96.15,59.02c-1.82,24.43-25.86,37.2-48.69,37.2-9.58,0-18.46-2.17-25.67-6.29C4.73,80.17-3.33,60.31,1.28,39.33,6.04,17.64,22.55,1.91,42.36.19c1.41-.12,2.84-.19,4.24-.19,13.08,0,25.34,5.47,34.55,15.38,10.58,11.4,16.19,27.71,14.99,43.63Z"/>
      <path class="cls-2" d="M43.04,7.98C7.97,11.03-6.37,64.82,25.68,83.13c21.19,12.1,60.6,3.09,62.67-24.69,1.96-26.24-17.21-52.89-45.31-50.45h0ZM33.59,75.64c-13.45-6.46-18.09-21.36-13.51-35.16,7.43,3.32,15.91,2.18,23.55,4.21,17.86,4.75,2.21,23.17,5.02,34.43-5.27-.52-10.26-1.16-15.07-3.47h0ZM59.18,77.89c-2.79.6-5.59.67-8.37,1.23-1.19-1.69,5.26-13.37,6.17-15.79,3.24-8.49,3.23-18.13-5.62-22.95-9.63-5.25-20.37-.39-30.41-2.44,4.97-14.83,20.3-24.44,35.79-19.37-2.42,18.11,8.01,35.33,24.3,42.83-3.59,8.92-12.72,14.55-21.86,16.5ZM81.93,59.06c-4.44-3.31-8.46-8.33-11.61-12.92-5.5-8.03-9.75-17.12-11.42-26.76,5.72,2.44,11.13,6.32,15.14,11.09,5.91,7.02,9.13,19.53,7.89,28.59Z"/>
    </g>
  </g>
</svg>