<?xml version="1.0" encoding="UTF-8"?>
<svg id="Capa_2" data-name="Capa 2" xmlns="http://www.w3.org/2000/svg" viewBox="0 0 311.82 192.92">
  <defs>
    <style>
      .cls-1 {
        fill: #9b9bcd;
      }

      .cls-2 {
        fill: #71160c;
      }
    </style>
  </defs>
  <g id="Capa_1-2" data-name="Capa 1">
    <g>
      <path class="cls-1" d="M308.78,30.38c-1.2-1.19-2.65-2.04-4.26-2.54.82-4.29.26-8.06-2.87-11.13-1.87-1.84-4.39-2.86-7-2.86-.03,0-.22,0-.22,0-.36-.02-.72-.03-1.08-.03-2.41,0-4.61.58-6.53,1.73-.42.25-.81.53-1.19.83-1.66-1.03-3.58-1.6-5.55-1.6-6.93,0-10.78,6.08-13.36,11.37-1.24,2.54-3.65,7.51-1.29,12.35-1.44,1.76-2.67,2.74-5.58,3.78-.39-.05-.79-.07-1.18-.07-1.7,0-3.4.43-4.93,1.3-.92.52-1.73,1.19-2.43,1.96-3.81-4.77-9.61-8.01-15.36-10.42-20.08-8.41-42.86-10.25-64.03-5.16-11.34,2.73-22.37,7.4-34.03,7.83-8.14.3-16.96-2.2-22.84-7.49-.31-2.16-1.06-3.86-1.52-4.91-.12-.28-.29-.67-.33-.79-.18-.66-.43-1.94-.68-3.17-1.59-7.98-4.26-21.33-16.07-21.33-7.23,0-11.64,5.94-13.1,7.89-1.61,2.17-5.99,9.36-7.18,13.08-.13.42-.24.83-.33,1.23-3.48,3.42-7.44,6.16-13.71,7.2-.09.02-.19.04-.28.05-.18-.9-.45-1.83-.85-2.8-.96-2.36-7.62-11.06-8.68-12.05-.98-.92-1.97-1.54-2.79-1.97-1.57-2.18-5.21-6.7-11.94-6.7-2.07,0-4.21.46-6.35,1.37-3.36,1.43-7.77,4.79-12.02,18.24-3.41,10.75-3.03,16.18-2.35,18.89-.45.36-.88.76-1.27,1.21-3.09,3.56-4.52,7.66-5.67,10.95-.43,1.23-.83,2.39-1.25,3.31l-.48,1.06c-.5,1.1-1.71,3.83-2.65,5.71-2.42,1.56-3.68,3.74-4.29,5.18-3.15,7.44.12,13.15,3.87,15.79.42.3.87.56,1.33.79.37.81.83,1.56,1.39,2.24-.56,2.12-.6,4.49.41,7.07.52,1.33,1.9,3.94,4.97,5.67.27,3.07,1.43,5.83,3.39,7.93-.21,1.55-.2,3,.08,4.46.01.07,1.53,6.71,6.9,9.26.09.74.23,1.46.44,2.17,1,3.31,3.22,5.23,4.16,6.05l.04.03c1.94,1.99,4.54,3.03,7.17,3.03,1.99,0,4-.59,5.74-1.81.14-.1.27-.2.41-.3.12,6.86-1.13,13.91-2.47,21.34-.2,1.08-.39,2.17-.58,3.25-.46,2.59.13,5.26,1.63,7.42l1.22,1.77c1.59,2.29,4.06,3.82,6.82,4.21.47.07.93.1,1.4.1.83,0,1.65-.11,2.44-.31-.09,1.75.27,3.51,1.09,5.09l1.21,2.34c1.35,2.61,3.77,4.49,6.63,5.15.75.17,1.5.26,2.26.26,2.13,0,4.22-.68,5.96-1.97.21-.16.41-.32.61-.49.73.17,1.47.26,2.22.26.85,0,1.7-.11,2.53-.32,1.58,10.3,10.16,10.62,11.2,10.62h0c5.64,0,9.45-4.03,12.21-8.26,1.17.95,2.52,1.72,4.03,2.28,1.14.42,2.32.63,3.48.63,3.06,0,6.04-1.41,7.97-3.96,2.34-3.08,2.66-7.18.96-10.55.16-.65.43-1.54.63-2.2.64-2.09,1.36-4.46,1.52-7.17v-.2c.16-2.18-.1-4.02-.61-5.57,1.04.11,2.07.05,2.99-.42,1.56-.79,2.19-2.27,2.21-3.95,4.59,5.6,10.39,10.31,16.76,11.03.54.06,1.05.09,1.53.09,3.02,0,5.77-1.19,7.75-3.36,1.26-1.38,2.67-3.71,2.66-7.13,4.64,3.97,10.3,7.29,17.06,7.29.87,0,1.74-.06,2.59-.17,4.05-.54,7.36-3.49,8.37-7.44.67-2.61.23-5.32-1.09-7.55,2.83,1.17,5.75,1.51,8.12-.25,2.49-1.84,3.05-5.34,2.18-8.37,5.06,4.24,12.3,8.25,18.46,10.17.98.31,1.99.45,2.97.45,3.51,0,6.87-1.86,8.68-5.04.12-.2.22-.41.32-.62l.05.06c.81.87,1.77,1.58,2.84,2.11l3.28,1.63c1.42.71,2.95,1.05,4.45,1.05.4,0,.79-.02,1.18-.07.08.12.16.25.24.37.68,1.02,1.26,1.9,1.73,2.75.78,1.42,1.58,3.04,2.44,4.74,2.25,4.52,4.8,9.64,8.28,13.87,1.59,1.93,5.3,6.44,11.18,6.44,3.02,0,5.82-1.21,7.88-3.41,3.28-3.49,3.41-7.97,3.22-11.04-.24-3.86-2.69-7.22-6.27-8.66.18,0,.37.03.55.03h0c3.33,0,6.38-1.35,8.58-3.8,2.56-2.85,3.6-6.71,3.09-11.47-.1-.91-.33-1.79-.66-2.62,2.69-2.1,3.84-4.55,4.46-6.26,2.75-7.55,2.3-16.32,1.91-24.05-.14-2.77-.27-5.38-.23-7.51.04-2.09.39-4.6.75-7.26.4-2.88.81-5.87.92-8.88l.03-.84c.15-3.67.24-6.67-.22-9.06-.07-.35-.16-.71-.27-1.07,1.83-1.1,3.74-2.32,5.57-3.78,3.75-2.99,6.72-6.45,9.2-10.08,1.27.47,2.61.72,3.98.72,8.6,0,13.2-8.92,14.78-12.76,2.83-6.87.64-11.09-1.71-13.42ZM132.59,132.83c-.26-.5-.54-1.03-.85-1.59.22-.03.43-.08.65-.12.08.72.21,1.43.41,2.12-.07-.14-.14-.27-.22-.41ZM179.64,127.48c.17.77.41,1.51.72,2.21-.77-.55-1.55-1.07-2.32-1.59.53-.21,1.06-.42,1.6-.62Z"/>
      <path class="cls-2" d="M294.65,23.84c1.33,1.3-3.84,12.44-4.81,14.54-3.37,7.34-7.12,14.59-13.55,19.71-4.05,3.23-9.19,5.34-13.29,8.55-1.92,1.01-3.64-2.08-3.17-3.71.38-1.34,3.39-2.27,4.29-3.38-4.1-2.11-1.96-4,.55-6.26l-6,1.08v-2.18c1.38.82,2.1.3,3.41-.13,11.43-3.72,11.11-9.22,18.18-15.63,1.71-1.55,3.67-2.1,5.41-3.86,1.52-1.55,5.19-7.81,6.26-8.45.82-.49,1.83-.26,2.72-.28ZM274.49,53.28c4.34-3.39,7.65-8.04,9.8-13.08-2.55,2.36-5.37,4.71-7.64,7.34-1.62,1.88-3.19,3.17-2.16,5.74Z"/>
      <path class="cls-2" d="M255.95,107.25c1.12-.2,2.08,1.42,2.41,2.22,1.24,3,1.92,6.5,3.43,9.65.31.65.29,1.61,1.24,1.75l.55-13.63c-2.29,1.62-4.01-1.58-4.32-3.58-1.26-8.18.82-19.19-.14-27.78-.15-1.3-1.22-2.32-1.03-3.73,1.68-1.96,8.84-2.04,9.32.46.32,1.67.09,5.72.02,7.66-.19,5.22-1.57,11.15-1.68,16.31-.18,8.36,1.84,20.31-1.08,28.36-.3.84-.61,1.38-1.35,1.91-.66-.62-1.37-1.19-1.79-2.02-1.38-2.79-4.11-11.61-5.14-15.03-.26-.87-.62-1.59-.43-2.56Z"/>
      <path class="cls-2" d="M49.2,37.35c-8.58.29-7.52-11.41-12.7-16.22-.31,0-1.88,2.69-2.19,3.25-2.15,3.94-2.82,10.9-3.53,15.56-.26,1.72,1.32-.74,1.08,1.07l-3.01,3c-.58.15-1.95-1.17-2.15-1.65-1.73-4.09,4.36-24.13,8.45-25.87,5.01-2.13,5.88,2.19,7.92,4.04.7.63,1.68.67,2.44,1.37.41.38,6.03,8,6.23,8.49,1.25,3.08-.8,4.84-2.55,6.94Z"/>
      <path class="cls-2" d="M88.03,178.11l2.72-.82c-1.6,2.79-6.07,9.72-6.43,2.32,1.55-2.78,10.08-23.78,9.16-24.94-8.27,4.56-14.44,12.07-21.46,17.96l-1.36-1.45c-.38-1.47,2.8-5,3.64-6.53,2.16-3.98,3.72-7.91,5.29-12.15,1.43-.21.67.9.56,1.66-.45,3.11-1.88,5.69-2.48,8.7,3.05-2.64,12.78-11.52,16.61-10.93,3.02.47-.3,8.83-.96,11.04-1.53,5.11-3.79,10.03-5.29,15.15Z"/>
      <path class="cls-2" d="M104.37,34.75c-3.53-2.07-6.4-8.95-6.94-12.95-.19-1.39.27-8.33-.96-8.3-3.28,5.74-6.81,11.4-11.17,16.34.74-2-.23-3.85.41-5.84.68-2.12,4.26-8.24,5.68-10.15,8.9-11.98,10.53,7.23,12.17,13.27.81,2.97,2.74,4.42.81,7.63Z"/>
      <path class="cls-2" d="M62.03,92.89c-.27-.2-.4-.85-.75-1.12-2.71-2.04-6.19-4.47-5.15-8.51,1.04-2.14,7.11-1.85,9.27-1.63,1.93.19,3.98.48,3.46,2.88-.09.42-3.47,7.17-3.81,7.66s-.73,1.22-1.36,1.36c-.68.06-1.15-.27-1.66-.64Z"/>
      <path class="cls-2" d="M234.67,131.78c5.12,10.73,10.7,22.16,18.54,31.07l1.09-1.09c.35,5.74-2.03,4.15-4.59,1.04-3.91-4.75-6.71-11.67-9.67-17.06-2.14-3.9-5.04-6.77-6.21-11.75-.25-1.07-.89-2.57.84-2.2Z"/>
      <path class="cls-2" d="M143.63,128.51c-.04.69.17,1.34.52,1.93,1.73,2.89,9.2,10.09,12.02,12.53,3.74,3.22,8.05,5.54,12,8.44-7.57,1.01-14.66-7.3-19.36-12.52-1.66-1.84-9.53-9.53-5.18-10.37Z"/>
      <path class="cls-2" d="M38.7,101.25c.83-.19,1.22.65,1.35,1.36.73,4.14-1.81,16.96-3.3,21.22-.32.92-.45,1.86-1.33,2.48-.55-.62-1.55-1.2-1.79-2.01-.81-2.66,2.9-12.67,3.58-16.41.18-.98-.34-1.8-.17-2.83.08-.52,1.26-3.72,1.66-3.81Z"/>
      <path class="cls-2" d="M61.86,96.35l3.44,2.83c2.58,1.23,5,1.38,7.68.38,2.65-.99,5.29-5.19,8.15-4.24,3.87,4.33-6.49,8.21-9.71,8.13-3.3-.08-9.69-3.18-9.56-7.1Z"/>
      <path class="cls-2" d="M50.7,54.1c7.58.36.93,16-4.02,7.55-2.4-4.1-1.05-7.79,4.02-7.55Z"/>
      <path class="cls-2" d="M81.63,59.67c-.25-.25-1.7-3.03-1.77-3.42-1.22-6.72,8.03-6.83,8.72-3.23.68,3.54-3.66,9.96-6.95,6.66Z"/>
      <path class="cls-2" d="M34.05,94.16l-3.82,16.62,2.18-.26c.69.8-2.54,6.49-4.54,5.48-.29-.06-1.28-1.76-1.34-2.09-.63-3.3,5.58-15.12,5.88-19.38l1.64-.37Z"/>
      <path class="cls-2" d="M68.41,141.05c.95-.13.51,1.24.54,1.9.15,3.46-.17,6.87-.62,10.29-.71,5.45-2.43,14.61-3.9,19.83-.24.87-.48,1.22-1.21,1.76l-1.21-2.34c2.97-10.27,5.94-20.66,6.39-31.44Z"/>
      <path class="cls-2" d="M51.5,131.78l1.46.79c-.85,3.96-.11,8.02-.38,12.01-.29,4.33-.94,11.01-1.66,15.24-.17.99-.54,1.83-1.33,2.47l-1.22-1.77c1.67-9.5,3.67-19.03,3.13-28.74Z"/>
      <path class="cls-2" d="M25.87,105.07c-2.14.35-2.8-1.64-2.69-3.47.12-2.03,2.25-11.33,2.95-13.45.22-.66.79-1.78,1.65-1.61,1.23.78.52,1.2.47,2.06-.33,5.37-2.06,11.02-2.37,16.47Z"/>
      <path class="cls-2" d="M23.14,52.19c-.36,3.69-10.22,27.21-12.26,27.24-1.29-.91-.92-2.49-.41-3.7.58-1.37,1.53-.52,2.24-1.5,1.45-1.99,3.94-7.7,5.08-10.23,1.8-3.99,2.6-8.66,5.35-11.82Z"/>
      <path class="cls-2" d="M259.21,139.95l1.09-1.63c.18,1.69.17,4.62-2.2,4.15l-14.15-21.59c1.17-.26,1.24.58,1.73,1.26,4.09,5.73,8.35,11.33,12.2,17.24l1.32.57Z"/>
      <path class="cls-2" d="M139.82,153.59c.03.92.29,1.18-.79,1.06-7.12-.81-16.47-15.14-18.29-21.78,2.03,2.1,3.04,5.13,4.68,7.58,3.51,5.25,8.18,11.21,14.4,13.14Z"/>
      <path class="cls-2" d="M28.6,76.73l-9.26,18.29c-4.68-.62.83-5.48,2.18-7.65,1.87-2.98,3.44-6.58,5.33-9.39.47-.71.61-1.49,1.74-1.25Z"/>
      <path class="cls-2" d="M24.78,66.37c.64,2.48-6.7,17.88-7.62,18.28l-1.61-.35c-.21-.92-.12-1.79.25-2.65.93-2.16,4.39-6.3,5.79-8.92.97-1.83,1.6-3.63,2.32-5.54.15-.4-.71-1.26.86-.81Z"/>
      <path class="cls-2" d="M301.74,37.48c.88.87-4.2,11.23-7.04,8.67-.69-.96,3.7-7.39,4.6-8.12.61-.49,2.1-.89,2.44-.55Z"/>
      <path class="cls-2" d="M193.25,124.15l-3.26,1.36c5.13,5.67,12.96,7.76,18.53,12.8-5.24-1.63-11.75-5.31-15.82-8.98-2.78-2.51-5.94-5.55.55-5.18Z"/>
      <path class="cls-2" d="M221.81,131.03c2.09,2.17,4.18,4.36,6.33,6.48l-3.28-1.63-12.53-13.36,5.46,4.08c1.58,1.21,2.72,3.08,4.02,4.44Z"/>
      <path class="cls-2" d="M105.47,177.56c-5.97-2.22.26-11.55.55-16.07h-2.19s1.91-1.36,1.91-1.36c1.07.76.89,1.86.82,2.97-.27,4.54-4.22,10.17-1.1,14.46Z"/>
      <path class="cls-2" d="M280.48,24.94c.76.79-3.91,9.08-5.99,9.26-.6-.77,4.44-10.88,5.99-9.26Z"/>
      <path class="cls-2" d="M48.78,106.16c3.27.86,6.08-3.33,8.71-4.91.8.89-5.82,6.5-7.05,6.86-.7.2-.88.42-1.4-.31l-.26-1.64Z"/>
    </g>
  </g>
</svg>