<?xml version="1.0" encoding="UTF-8"?>
<svg id="Capa_2" xmlns="http://www.w3.org/2000/svg" version="1.1" viewBox="0 0 186.7 156.2">
  <!-- Generator: Adobe Illustrator 29.5.1, SVG Export Plug-In . SVG Version: 2.1.0 Build 141)  -->
  <defs>
    <style>
      .st0 {
        fill: #31391a;
      }

      .st1 {
        fill: #f9f5ea;
      }
    </style>
  </defs>
  <path class="st1" d="M183.9,7.4c-4.4-6.2-12.2-6.9-15.9-7.2C166.1,0,164.6,0,163.1,0,157.4,0,152.8,1.2,147.3,4c-12.4,6.4-22.3,15.6-28.1,25.7-2.8-1-5.9-1.7-9.8-2-2.5-.2-5.1-.3-7.7-.3-14.9,0-30.2,3-43,8.5-4.9-3.4-9.6-4.3-13.1-4.3-14.4,0-26.2,14.1-31.9,26.2-3.4,7.1-10.4,28-11.7,36.8-.6,3.9-2.2,15.3,6.3,22.4l-6.2,8.4c-1,1.4-1.7,3.1-1.9,4.8-.7,6,1.4,9.8,3.3,11.9.6.7,1.3,1.3,2,1.8.2,1.6.6,3.4,1.5,5,1.8,3.3,4.8,5.7,8.7,6.7,1.1.3,2.3.4,3.5.4h0c5.4,0,10.8-3.2,14.4-5.8,2.5-1.9,4.3-3.6,5.6-5.2,1.1.7,2.3,1.1,3.6,1.4.8.2,1.6.2,2.5.2,4.8,0,8.6-2.8,10.9-4.4.2-.2.5-.3.6-.4,3.9-2.6,7.9-5.7,11.9-9.2,0,0,.1,0,.2.1,1.8,1.2,3.9,2.9,6.2,4.6,9.9,7.6,22.1,17,35.1,17s2,0,3-.2c2.9-.3,7.4-2.1,13.4-5.3,9.4-4.9,11.5-7.5,12.7-9.6.6-1.1,1.3-3.2,1.9-5.4,0,.2.1.4.2.6.3.8.5,1.6.7,2.3v.5c0,1.8,0,4.2.5,6.6,1.6,7.7,7.4,10.4,11.9,10.4s1.9-.1,2.8-.3c3.3-.8,6-2.8,7.7-5.8,3.3-5.7,1.5-12.5-.9-20.2-.2-.5-.4-1.2-.5-1.6-.3-2.2.2-4,1-7.1.6-2.3,1.3-5,1.6-8.2.5-5.3.5-14.6,0-20-.3-3.1-1.4-5.9-2.1-7.9q-.5-1.4,0,0c.7-1.6,1.6-3.7,2-6.2.4-2.9,0-5.6-.3-7.6.5-.7,1.2-1.6,1.7-2.2,3.4-4.2,7.5-9.4,8.7-15.6.8-4.1.3-8.6-.1-12.5,0-.7-.2-1.6-.2-2.3.6-.6,1.3-1.3,1.8-1.8,3.1-3,6.6-6.3,7.9-11.1,1.1-4.5,2.2-11-1.8-16.6h0ZM94.9,53.2h0s0,0,0,0Z"/>
  <path class="st0" d="M171.9,17.1c-10.3-4.3-19,.8-27.2,6.9-9.7,7.2-14.5,15.5-21.5,24.8-11.3-8.3-28.1-6.2-41.3-4-7,1.1-19.2,5.9-25.3,5.7-3.4,0-6.3-7.5-15.2-2.2-12.9,7.6-19.3,34.7-22.9,48.6-.1.5-.2,1.4.4,1.3,2.2-1.8,12.2-14,15.1-11.2l-.7,5.8c-4.4,3.4-11.3,14.1-15.4,16.5-.9.5-1.7,1.3-2.9.6-4.3-3.1-4-8.8-3.3-13.6,1.1-7.3,7.6-27.1,10.9-34,6-12.8,21.2-29.8,34.2-14.3,15.2-8,34.6-11.4,51.7-10.1,6.6.5,10.1,2.7,15.9,5.2,3.3-13.1,15.6-24,27.3-30,5.5-2.8,9.1-3.3,15.3-2.7,8,.7,11.1,2.5,8.9,11.4-1,4.1-9.1,8.6-10,12.5-.6,2.8,1.4,11.1.5,15.9-1.2,6.5-10.2,14-10.8,17.5-.3,1.7.9,5.4.5,8.4-.3,2.6-2.4,5.1-2.5,7-.1,2.1,2.3,5.9,2.6,9.4.4,4.7.4,13.5,0,18.1-.6,6.3-3.6,10.8-2.5,18,.3,2.3,5.7,14.9,1.2,16-3.8.9-2.7-7.3-3.1-9-.7-3.5-2.5-6.8-2.6-10.4-.2-9.9,4.9-18.6,3.4-30.9-.4-3.5-3.2-7.9-3.2-10.4s3.1-6.9,3.3-9.6c.3-2.7-1.6-4.6-1.5-6.7.3-6.9,12.1-13.2,11.8-23.3-.1-3.7-2.2-7.1-2.6-9.6-.7-4.5,12.7-15.5,11.2-17.6h0Z"/>
  <path class="st0" d="M105.6,76.1c.3,1.8,4.2,11.6,5.3,13.7,7.1,14.4,24.5,16.6,22.2,35.3-.1,1.2-2.1,8.7-2.5,9.4-1.4,2.4-15.5,9.6-18.7,10-12.6,1.5-27.7-13-37.4-19.7,1.6-.3,2.6.2,3.9.8,7.8,3.3,26.6,19.6,35.2,14.7l1.3-8.9c-.7-2.3-2.7-1.4-4.2-2.7-3.7-3.2-7-6.6-6.1-12,2.8-2.4,16.6-6,18.6-3.2.2,8.6-8.2,14.9-5.7,24.2.7.8,10.9-5.6,11.6-6.9.2-.5,1.9-9.3,1.9-10.1.1-9.4-13.2-16.1-18.5-23.3-7.9-10.8-9.5-23-8.8-36,.2-3.3,1.9-6.6.8-9.9,3.5,1.3.8,4.5.8,5.6,0,5.5-.8,14,0,19h0Z"/>
  <path class="st0" d="M29.8,104.9l-10.3,21.5h4.3l-1.7,12.1c3.5-.7,5.9-3.5,9.9-2.6,4,.6-8.8,11.5-13.6,10.2-5.9-1.6-.9-9.6-1.5-10.2-4.2,1.6-7.3.4-6.8-4.6l19.7-26.4h0Z"/>
  <path class="st0" d="M84,55c6.1,7.1,6.1,19,5.1,27.9-2.2,19.8-22,40.1-37.9,50.8-1.6,1.1-4.5,3.5-6.4,3.1-1-.2-1.4-1.1-.5-2.2,2-2.2,7.6-5.4,10.4-7.7,16.1-13.7,30.9-26.2,32.7-49.1.7-8.7-1.1-14.8-3.5-22.9h0Z"/>
  <path class="st0" d="M72.6,76.7c9.3-1.9,7.3,13.6-1.3,9.5-4.3-2-3.4-8.6,1.3-9.5Z"/>
  <path class="st0" d="M118.9,74.3c5.8.2,4.8,7.8,1.3,9.5-7.1,3.2-10.8-9.7-1.3-9.5Z"/>
</svg>