<?xml version="1.0" encoding="UTF-8"?>
<svg id="Capa_2" data-name="Capa 2" xmlns="http://www.w3.org/2000/svg" viewBox="0 0 329.93 221.29">
  <defs>
    <style>
      .cls-1 {
        fill: #ec6642;
      }
    </style>
  </defs>
  <g id="Capa_1-2" data-name="Capa 1">
    <g>
      <path class="cls-1" d="M59.74,114.52l14.53-14.37c-5.84-5.62-9.13-13.86-10.83-21.69-2.57-11.82-1.41-26.16,5.63-36.27l-2.22,8.52c-2.25,10.2-1.74,21.17.57,31.34,1.38,6.05,3.65,12.62,7.37,17.6,3.67-2.42,7.15-5.1,10.97-7.29,17.22-9.93,39.29-14.71,59.15-12.89,5.81.53,11.9,1.6,17.07,4.39.46-.04,3.01-7.36,3.48-8.49,11.15-26.69,31.42-58.32,58.71-70.51,31.56-14.08,52.75,4.4,67.26,30.8,18.02,32.75,24.02,70.39,38.5,104.6-.64-.17-1.27-1.27-1.65-1.83-5.38-7.77-9.23-18.06-12.58-26.91-10.98-29.09-23.79-81.64-49.96-99.79-26.18-18.15-53.55,2.28-70.12,22.09-21,25.09-32.52,56.21-42.36,87.01-.61-.09-.31-1.58-.27-2.01.41-4.12,1.68-9.08,2.64-13.15,1.69-7.1,3.97-14.03,6.19-20.97-.12-.71-9.39-1.98-10.61-2.09-23.75-2.03-49.93,4.39-69.46,18.06-22.62,15.83-35.64,42.52-45.01,67.78-5.16,13.89-9.74,28.54-11.14,43.35-.73.04-.57.12-.64-.47-1.44-12.27,2.61-27.51,6.24-39.26,6.04-19.54,14.54-38.9,26.88-55.26-.42-21.27-22.87-32.82-41.52-35.12-4.8-.59-9.68-.55-14.5-.99-.44-.04-1.91-.15-2.06-.63,18.11-2.86,39.33-.32,51.98,14.21,2.83,3.25,7.74,11.35,7.74,15.64v4.58h.02Z"/>
      <path class="cls-1" d="M309.7,203.6c-6.17-5.46-11.08-12.32-15.11-19.49-10.47-18.68-13.23-38.47-17.3-59.16-3.53-17.99-4.18-37.88.81-55.6.55-.06.35,1.09.32,1.43-2.65,39.33,3.9,86.68,23.95,121.03l7.33,11.79Z"/>
      <path class="cls-1" d="M183.3,131.57c1.95-5.08,4.3-9.99,6.24-15.09,6.81-17.89,10.8-36.92,15.65-55.42l2.12-6.25c-2,21.71-6.15,44.28-15.84,63.92-2.17,4.41-4.9,9.21-8.16,12.84h-.01Z"/>
      <path class="cls-1" d="M80.6,216.23c7.46-16.49,8.29-34.9,13.82-52.05,2.35-7.31,5.43-15.22,10.19-21.24-2.46,6.98-4.97,13.93-6.86,21.1-3.21,12.12-4.93,24.7-8.86,36.64-1.76,5.36-4.13,11.68-8.3,15.55h.01Z"/>
      <path class="cls-1" d="M224.06,214.02c-.6.07-.21-.62-.17-.95.54-4.26,1.36-8.49,1.75-12.79,1.88-20.99,3.59-40.95,6.68-61.87.07-.5.13-1.91.58-2.1.44,5.62.61,11.27.33,16.91-.75,15.22-2.62,33.88-5.53,48.8-.81,4.15-1.85,8.16-3.64,12Z"/>
      <path class="cls-1" d="M164.97,211.18c2.08-4.97,4.33-9.95,5.01-15.36.82-6.45-.01-13.09.36-19.54.65-11.08,4.32-23.79,11.37-32.39-4.11,9.62-6.75,19.37-7.57,29.85-1.01,12.9.81,27.4-9.17,37.43h0Z"/>
      <path class="cls-1" d="M253.76,55.76c-1.71-.73-3.27-1.77-5.06-2.35-.52-.17-3.56-1.01-3.78-.8,1.35,3.02,2.31,7.46-1.26,9.17-.19.27,3.06,4.64,3.52,5.47.89,1.59,1.82,3.47,2.16,5.26l-4.89-6.32c-1.03-.57-2.15-3.06-3.18-3.16-2.21-.22-5.65,5.73-6.96,7.25-.32.37-.49.78-1.09.65,1.43-3.18,2.74-6.58,5.37-9-3.12-2.39-2.66-5.89-1.89-9.32-4.1.75-7.69,2.93-10.74,5.69-.46-.51,3.4-4.29,3.96-4.73,7.09-5.69,17.97-4.65,23.85,2.2v-.02Z"/>
      <path class="cls-1" d="M64.48,103.46l-5.64-10.64c-6.09-10.64-14.63-20.32-25.85-25.64l-12.75-4.47c23.25-.35,40.02,19.31,44.24,40.75Z"/>
      <path class="cls-1" d="M279.05,218.44c-.28.26-2.79-1.73-3.16-2.05-7.31-6.22-13.49-17.59-16.27-26.7-2.53-8.31-3.79-17.22-3-25.9l3.56,16.81c3.98,13.6,9.47,27.08,18.88,37.84h-.01Z"/>
      <path class="cls-1" d="M69.85,99.67c-.59.13-.75-.33-1.11-.63-4.72-3.96-8.71-10.39-11.18-16-4.81-10.91-5.89-23.14-3.83-34.86.51.05.59,1.36.63,1.74.13,1.55-.11,3.18,0,4.73,1.18,15.95,6.16,32.01,15.48,45.01h.01Z"/>
      <path class="cls-1" d="M292.32,141.68c-10.17-13.79-9.23-32.63-4.42-48.33.54-.08.34.75.32,1.1-.54,6.63-1.17,13.24-.96,19.92.44,5.94.79,11.64,2.12,17.46.77,3.36,2.02,6.54,2.94,9.85Z"/>
      <path class="cls-1" d="M52.79,221.29c3.94-9.41,6.99-19.15,9.71-28.99l3.87-15.23c.25,15.47-4,31.99-13.58,44.22Z"/>
      <path class="cls-1" d="M166.23,134.73c-.54.07-.29-.72-.31-1.1-.47-12.32,3.58-29.32,10.81-39.43.7-.98,1.44-2.09,2.46-2.74-6.19,13.75-9.97,28.51-12.96,43.27Z"/>
      <path class="cls-1" d="M36.98,214.33s-.66.12-.63-.15c6.07-9.82,8.87-21.15,13.04-31.83l3.08-6.24c-2.88,13.36-5.5,27.19-15.18,37.44-.23.25-.28.74-.31.78h0Z"/>
      <path class="cls-1" d="M179.5,121.47c-.55.07-.29-.72-.31-1.1-.39-9.07,3.72-23.67,6.87-32.31l2.61-6.07c-1.75,13.43-5.76,26.42-9.17,39.49Z"/>
      <path class="cls-1" d="M292.95,214.02c-.79-.04-1.54-.68-2.18-1.13-9.78-6.88-16.41-20.18-15.53-32.21.04-.54-.03-1.05.5-1.41,1.68,13.13,8.27,25.2,17.21,34.74Z"/>
      <path class="cls-1" d="M301.16,209.92c-.25.23-1.43-.72-1.72-.95-5.12-4.03-10.39-11.08-12.96-17.06-2.12-4.96-3.4-10.35-3.32-15.79l2.92,8.61c3.74,9.1,9.01,17.48,15.08,25.19Z"/>
      <path class="cls-1" d="M131.79,185.6c-.57,6.43-2.11,12.5-5.56,17.98-2.25,3.57-5.19,6.58-8.19,9.51l-5.54,4.09c5.94-7.2,12.11-14.49,15.86-23.16,1.09-2.53,1.72-5.23,2.71-7.73.19-.48-.18-.85.71-.69h.01Z"/>
      <path class="cls-1" d="M161.49,125.89l-.33-2.7c.61-11.32,4.07-22.54,10.75-31.73l-10.43,34.43h.01Z"/>
      <path class="cls-1" d="M141.9,220.34l4.99-7.8c2.82-4.77,5.04-9.86,6.61-15.19l1.67-8.91c.84,6.08.28,12.24-2.16,17.9-1.93,4.46-6.27,10.26-10.01,13.37-.36.3-.51.77-1.1.63h0Z"/>
      <path class="cls-1" d="M182.35,217.18c6.93-7.61,6.04-18.4,7.31-27.91.17-1.26.33-3.44,1.21-4.31.08,9.56,1.91,19.02-3.59,27.52-1.19,1.84-2.87,3.84-4.94,4.69h.01Z"/>
      <path class="cls-1" d="M201,217.18c1.55-3.57,3.27-7.06,4.57-10.75,1.89-5.35,2.86-11.16,4.76-16.4.61-1.67,1.46-3.79,2.67-5.07-1.55,4.59-1.64,9.52-2.68,14.22-1.45,6.54-4.7,13.15-9.32,18.01Z"/>
      <path class="cls-1" d="M257.56,214.97c-6.66-7.99-9.41-19.4-8.21-29.69l1.99,9.54c1.73,6.83,3.69,13.58,6.22,20.16h0Z"/>
      <path class="cls-1" d="M94.5,216.23c1.04-2.53,2.73-4.81,3.95-7.25.75-1.49,1.28-3.09,2.1-4.54l6.58-15.69c-.56,10.27-5.03,20.51-12.63,27.48Z"/>
      <path class="cls-1" d="M304.01,132.21c-.54-.09-.54-.63-.71-1.02-1.58-3.67-2.99-9.12-4-13.06-1.3-5.11-2.39-10.34-2.86-15.61l2.84,7.41c2.58,7.17,3.97,14.69,4.73,22.28Z"/>
      <path class="cls-1" d="M315.71,136.95c-.65.6-4.72-4.13-5.19-4.76-4.84-6.51-6.08-14.2-4.29-22.08l.67,6.11c1.35,7.52,4.04,14.7,8.81,20.73Z"/>
      <path class="cls-1" d="M242.71,214.65c.61-2.96,1.38-5.96,1.57-9.01.38-5.92-.54-11.79-.31-17.69.02-.39-.24-1.17.31-1.1,2.14,9.04,4.29,19.7-1.57,27.79h0Z"/>
      <path class="cls-1" d="M229.64,46.5c-3.2,3.26-8.29-4.18-3.97-6.65,3.7-2.12,6.62,3.95,3.97,6.65Z"/>
      <path class="cls-1" d="M265.78,40.61c-8.24-2.17-13.72-11.03-13.9-19.27l2.14,4.95c2.99,5.56,6.65,10.52,11.75,14.32h.01Z"/>
      <path class="cls-1" d="M254.31,41.62c4.81-1.09,5.06,7.86.79,6.68-3.18-.88-3.64-6.03-.79-6.68Z"/>
      <path class="cls-1" d="M72.69,204.86c-.57.07-.31-.71-.28-1.06.46-4.93.97-9.89,2.88-14.5l2.45-4.97-5.06,20.53h0Z"/>
      <path class="cls-1" d="M276.84,41.23c-5.46-1.98-10.29-6.78-12.01-12.32l12.01,12.32Z"/>
      <path class="cls-1" d="M221.85,34.6l3.41-4,5.12-9.57c-.58,5.44-2.98,11.58-8.54,13.58h.01Z"/>
      <path class="cls-1" d="M238.28,36.5l7.26-12.63c-.69,3.82-1.93,8.07-4.71,10.91-.28.28-2.3,1.97-2.55,1.72Z"/>
      <path class="cls-1" d="M136.53,196.65c-.57.05-.34-1.07-.31-1.42.22-2.86,1.04-5.95,1.67-8.76l1.17-3.4c.29,4.68-.93,9.23-2.53,13.58h0Z"/>
      <path class="cls-1" d="M233.86,30.5l2.9-5.16,2.79-7.48c.23,3.96-.94,7.83-3.49,10.89-.24.29-1.85,2.1-2.2,1.74h0Z"/>
      <path class="cls-1" d="M122.93,193.17c-.54.07-.29-.72-.31-1.1-.09-2.35.02-4.87.4-7.18.06-.33.08-1.25.54-1.19.46,3.33.16,6.22-.64,9.47h.01Z"/>
    </g>
  </g>
</svg>