<?xml version="1.0" encoding="UTF-8"?>
<svg id="Capa_2" data-name="Capa 2" xmlns="http://www.w3.org/2000/svg" viewBox="0 0 176.31 255.53">
  <defs>
    <style>
      .cls-1 {
        fill: #ec6642;
      }

      .cls-2 {
        fill: #fbdd9d;
      }
    </style>
  </defs>
  <g id="Capa_1-2" data-name="Capa 1">
    <g>
      <path class="cls-2" d="M173.81,209.06c-.03-.09-.06-.19-.1-.28l-.02-.06c-2.06-5.32-6.22-8.63-10.88-8.63-2.76,0-5.41,1.23-7.48,3.47-.55.6-1.04,1.23-1.5,1.88.4-8.01.91-18.13,1.52-30.31v-.03c2.51-1.64,3.9-4,3.77-6.57.03-3.16-1.87-5.32-3.13-6.76-.17-.19-.34-.38-.5-.57-.48-11.49-1.17-23.62-3.31-35.51.16-.14.32-.31.47-.48.02-.02.04-.04.06-.07,2.51-2.97,3.08-6.72,1.55-10.04-1.52-3.27-4.87-5.47-8.33-5.47s-6.2,1.92-7.89,5.27c-1.44,2.67-1.43,5.89.02,8.62.88,1.67,2.23,2.98,3.84,3.8.17,2.78.2,8.15.22,12.31.02,5.02.05,10.18.23,14.41-1.06-2.09-3.2-3.46-5.57-3.46-1.86,0-3.58.86-4.72,2.36-.03.04-.06.08-.08.12-.79,1.11-1.18,2.36-1.37,3.66.12-2.41.28-4.81.44-7.18.34-5.14.7-10.45.67-15.76.55-14.66-4.85-28.62-10.08-42.12-4.38-11.31-8.55-22.08-9.34-32.93.25.02.5.02.75.02,8.06,0,15.69-8.69,20.72-15.23l.08-.12c4.57-6.39,6.36-12.49,5.33-18.13-1-5.49-4.64-10.36-10.81-14.47-.04-.02-.08-.05-.12-.07-7.63-4.73-17.39-10.15-25.09-10.15-3.24,0-5.54.95-7.16,2.19-.95-.53-2-1.01-3.13-1.34-2.86-.95-5.92-1.43-9.1-1.43-5.36,0-10.81,1.38-15.48,3.91-.4-.02-.81-.04-1.24-.04-11.33,0-31.94,8.06-37.2,19.18-2.39,5.06-1.62,10.42,2.18,15.11,1.31,1.77,2.81,3.4,4.26,4.98,1.6,1.74,3.1,3.37,4.26,5.07.01.02.02.04.04.06.51.72,1.02,1.54,1.56,2.42,1.84,2.99,3.92,6.36,7.49,7.9.79.42,1.66.65,2.61.67.67,6.58.37,13.74-.9,21.34-1.49,7.23-3.38,14.63-5.21,21.78-3.87,15.15-7.85,30.7-8.63,46.65-2.35.04-3.8,1.1-4.6,1.99-.05.06-.09.11-.14.17.34-9.88.67-20.04.81-30.07,0-.17,0-.35-.03-.52,1.44-.96,4.23-2.93,4.15-8.3,0-.21-.02-.41-.06-.61-.76-4.42-4.25-7.38-8.68-7.38-2.89,0-5.66,1.31-7.4,3.51-1.74,2.2-2.31,5.05-1.61,8,.41,1.78,1.36,3.3,2.76,4.41-1.28,10.17-2.24,21.42-3.02,35.1-.04.03-.08.06-.13.09-2.09,1.48-4.94,3.49-5.15,8.17-.27,5.52,2.93,7.85,4.46,8.97.06.04.11.08.17.12-.41,10.99-.75,21.84-.69,32.75-1.7-1.57-3.87-2.47-6.14-2.47-2.12,0-4.13.77-5.81,2.23-.09.07-.17.16-.26.24-5.89,6.11-5.89,15.31-5.89,22.69,0,1.49,0,2.89-.05,4.2-.45,5.57-.53,15.53,3.91,20.35,1.73,1.88,3.97,2.87,6.5,2.87,1.61,0,3.33-.41,5.12-1.22.25-.11.48-.25.71-.41,5.11-3.75,6.66-11.79,7.3-19,.26.05.52.07.8.07.9,0,2.89-.31,3.92-2.82,2.02,1.22,4.36,2.03,6.77,2.43,2.3,5.82,6.67,9.56,12.26,10.39,1.05.19,2.12.29,3.19.29,8.12,0,15.21-5.45,17.03-13,2.96,1.05,7.83,2.73,15.01,2.73,4.52,0,9.42-.67,14.61-2,.31,4.65,1.2,10.84,7.63,13.44,2.9,1.22,7.05,1.92,11.39,1.92s14.53-.71,19.4-7.23c1.16-1.56,2.32-3.91,2.31-7.07,1.6-.32,3.14-1.02,4.53-2.06.05.28.11.61.16.91.57,3.32,1.21,7.08,5,7.08.76,0,1.49-.21,2.14-.6.36,2.38,1.03,4.79,2.43,7.07,1.1,1.94,2.5,3.47,4.09,4.5,1.59,1.04,3.37,1.6,5.23,1.6,1.04,0,2.09-.17,3.12-.51.23-.08.46-.18.68-.29,13.39-7.39,12.07-31.45,8.39-42.69ZM130.46,160.63v.17h0c0-.06,0-.11,0-.17Z"/>
      <path class="cls-1" d="M170.02,210.18c-2.33-6.06-7.94-8.13-11.77-3.96-3.89,4.28-4.97,10.82-5.33,16.43-.03,1.09-1.25.81-2,.9-.85.03-1.72.31-1.94.24.57-12.12,2.44-49.23,2.54-51.16,1.8-.68,3.83-2.08,3.66-4.01.09-2.55-2.42-4.14-3.57-6.07-.52-12.47-1.2-25-3.51-37.29-.48-1.33.88-1.85,1.61-2.67,5.09-6.04-4.45-13.3-8.16-5.87-1.68,3.07.23,7.21,3.8,7.55,1.11.72.44,20.41,1.02,31.06-.12,8.53,1.6,5.24-3.36,8.76-4.62,5.97-2.54-5.71-3.99-7.81-.46-1.74-2.67-2.47-3.81-.97-1.39,1.97-.47,6.3-.92,8.75-.12,1.29-1.81.5-2.94.71-1.04-.23-5.08.61-4.88-.59,0-10.17,1.38-20.31,1.31-30.48,1.09-27.72-20.7-53.56-19.49-80.84,7.45,6.78,17.92-5.99,22.37-11.76,7.52-10.53,6.57-19.67-4.47-27.03-6.25-3.87-24.03-14.77-29.25-6.58-.07.18-.16.4-.38.34-1.45-1.07-3.08-2.13-4.86-2.64-7.29-2.43-15.94-1.19-22.53,2.77-11.78-1.65-46.67,12.33-34.01,27.78,2.57,3.5,6.19,6.63,8.66,10.24,2.3,3.25,4.2,7.72,7.57,9.04,1.44.93,3.77-.82,4.34.33,1.35,8.58.94,17.41-.49,25.95-5.49,26.73-15.84,53.35-13.61,81.11-2.26,1.7.44-7.88-3.46-9.43-5.99-.62-.69,9.45-3.72,9.25-2.66.27-2.28-3.13-4.82-3.93-1.45-.58-.82-2.44-.93-3.69.38-11.18.77-22.37.93-33.56-.82-4.87,4.21-2.32,4.12-8.7-1.17-6.77-11.67-4.67-9.95,2.57.28,1.21,1.07,2.22,2.35,2.8.54.26.79.7.7,1.29-1.66,12.71-2.62,25.55-3.31,38.35-2.49,2.07-5.02,2.81-5.18,6.41-.28,5.58,4.31,5.17,4.68,7.86-.62,16.48-1.11,32.94-.35,49.41.33,1.41-1.79,1.52-2.68,1.61-1.12-4.07-.7-8.78-3.06-12.68-1.61-3.02-5.23-4.2-7.97-1.82-5.83,6.06-4.56,16.58-4.85,24.39-.55,6.66-.62,22.97,9.96,18.17,4.53-3.32,5.5-12.79,5.87-18.27.16-2.42.02-4.98-.03-7.42.08-.82,1-.83,1.66-1.18.7-.27,1.37-.67,1.4.26,1.91,14.84,2.48,2.02,2.78-3.77.17-1.8.22.71.19,1.14.15,6.35,6.6,9.27,12.2,9.41,1.4,5.29,4.72,9.43,9.98,10.18,6.93,1.34,14.3-3.03,15.8-10.04.6-10.14,6.62,6.58,36.93-3.19.78,4.99-.52,12.48,5.58,14.92,8.37,3.53,31.27,1.99,27.17-11.81-.35-.83.17-1.03.85-.86,6.08,1.56,11.22-6.25,9.74-11.7-4.35-12.42-9.57-14.83-8.76-30.07.11-7.49-.79-17.23-8.31-21.11-.92-.36-.65-1.29.25-.96,1.34.86,6.37,1.1,6.54,2.27-.42,8.12,5.98,9.45,6.02.44.22-.51,1.33-.34,1.67-.15.42.35.46,1.04.8,1.48.77,1.56,2.82,1.93,3.88,3.11.23,18.96-2.5,38.12,0,57.03.4,1.6.87,6.43,1.65,5.47,1.85-6.53-1.63-11.19,4.48-9.01,1.68,5.41.02,12.29,3.28,17.54,1.76,3.15,4.51,4.93,7.81,3.85,10.85-5.99,9.87-27.87,6.55-38.01l-.04-.1h0ZM106.35,8.81c6.33,1.83,16.67,7.64,21.43,12.1,5.42,5.24,3.51,11.68-.68,17.55-1.73,2.49-11.15,13.83-15.34,11.66-2.08-2.12-1.03-10.73-1.07-14.26.4-7.07-1.83-14.77-5.56-20.73-1.06-1.58-2.37-3.08-3.52-4.62-.43-.7-1.3-1.51-1.35-2.27.03-.06.08-.1.17-.12,1.22-.24,4.63.38,5.83.67l.07.02h0ZM69.6,16.18c1.11-2.07,2.58-5.34.54-7.14-.21-.21-.41-.41-.03-.58,7.39-1.88,18.91-2.5,25.68-.15.51.19,1.09.36,1.49.71.72.77,1.29,1.96,2.08,2.72,4.87,4.34,6.8,10.87,7.63,17.25.72,5.7-.75,11.69-.57,17.46-.06,1.47.66,3.18.8,4.48-.08,1.38-.78,2.73-.96,4.1-1.38,7.96-.14,15.36,1.76,23.13.15.58-.24.92-.76,1.03-3.18.82-6.42,1.43-9.67,1.89-11.39,1.24-26.78,3.01-37.31-2.2-.15-.19-.21-.44-.2-.72.47-7.86.4-16.4-3-23.63-.26-.53-.23-1.02.14-1.51,1.59-2.23,2.68-4.78,3.38-7.42,2-7.64,1.09-16.04,5.3-23.17,1.17-2.09,2.52-4.05,3.66-6.17l.05-.09h-.01ZM54.45,49.43c-.91,1.45-1.53,1.93-2.79.35-1.01-1.2-1.73-2.42-2.55-3.74-2.66-4.83-6.3-7.68-10.11-12.6-3.4-4.33-3.25-6.22.65-10.04,6.7-6.38,15.86-11.68,24.82-13.63,1.89-.1,5.1.34,3.51,2.97-1.56,3.03-4.37,6.09-6.01,9.12-1.91,3.6-3.07,7.57-3.76,11.59-.87,4.98-.92,11.3-3.71,15.9l-.06.09ZM26.75,217c-.29.68-.46,1.67-.76,2.12-.02-1.77.14-3.6.21-5.38.86-14.46,1.39-28.91,2.06-43.37.13-.32.41-.54.71-.71,1.78-1.01,3.1-2.58,3.75-4.53.09-.24.18-.53.41-.63.28-.16,1.1.03,1.63.07.47.05.77.2.73.7-.03,1.83.21,4.75,2.34,4.82,2.87.04,2.19-3.66,2.77-5.48.17-.24.67-.29,1.02-.29.24.01.36.01.42.2.17,1.1,1.24,8.45,1.59,10.88.07.64.22.7-.19,1.22-7.92,10.04-4.24,26.21-13.13,35.4-1.35,1.5-2.76,3.02-3.53,4.92l-.03.08h0ZM38.56,227.84s-.09-.05-.16-.18c-.23-.48-.56-1.19-.74-1.71-.53-1.84-1.01-3.76-1.24-5.67-.05-.37-.13-.35-.27-.03-1.29,2.6-1.06,5.87,1.06,7.91.11.14.42.37.37.5-.52.07-1.54-.33-2.06-.48-.32-.12-.57-.2-.71-.49-.37-1.11-1.02-4.03-1.32-5.5-.09-.38-.11-.88-.21-1.24-.04-.08-.09-.06-.17.06-.42.8-.61,1.74-.7,2.64-.1.87.07,1.75.31,2.6.02.15,0,.23-.09.24-.7-.23-1.27-.99-1.7-1.58-1.76-2.43-1.13-5.6.71-7.78,12.52-11.3,7.54-23.95,12.13-37.84.58-1.34.57.92.67,1.35,1.49,12.23,3.19,27.57-2.8,38.77-1.36,2.68-2.58,5.46-3.06,8.44l-.02.02h0ZM48.67,236c-5.97-.98-6.11-7.91-3.46-12.51.14-.24.32-.39.52-.12,1.75,2.74,3.33,5.9,3.28,9.24-.06,1.03.09,2.42-.28,3.35l-.06.04ZM56.5,234.36c-1.63,1.31-4.13,2.02-6.22,1.99-.75-.01-.57-.5-.27-1.01,2.59-4.75.71-9.64-3.07-13.19-.44-.37-.72-.87-.45-1.42,3.69-6.78,4.26-14.68,4.25-22.24.05-9.97-1.44-19.78-3.07-29.59-.04-.28-.05-.5.04-.54.13-.02.35.13.48.26,1.35,1.19,2.79,2.27,4.28,3.29.5.32.79.8.81,1.4.29,13.89,12.6,51.46,3.27,61l-.07.06h0ZM102.8,200.95c-.17,4.86-.37,9.72-.66,14.59-.21,2.48-.61,7.27-.79,9.53-.11.82,0,1.22-.2,1.29-10.74.76-25.21,1.99-36.05-1.3-.08-13.82-3.04-27.62-5.4-41.28-.33-2.69-.87-5.46-1.05-8.15.07-.17.27-.17.56-.06,2.72,1.16,5.57,2.13,8.48,2.81,11.7,2.89,23.57.87,34.85-2.54.16.07.23.27.24.54-.08,8.12.18,16.33.03,24.47v.1h0ZM103.23,167.5c-.04.61-.42,1.11-1.03,1.25-13.99,3.86-30.82,5.6-44.32-.31-1.64-18.68-1.84-43.04,14.06-56.28,5.1-4.35,12.54-6.54,18.9-4.02,17.85,7.29,13.52,43.93,12.39,59.27v.09s-.01,0-.01,0ZM93.91,103.89c-9.16-4.34-19.1-1.36-26.18,5.16-15.69,14.18-16.64,36.95-15.2,56.65.02.35,0,.61-.21.62-.18,0-.46-.11-.65-.21-.87-.43-1.3-.65-2.12-1.11-1.01-.67-2.16-1.01-2.46-1.79-.51-2.93-.68-6.57-.68-9.68.03-24.46,9.4-47.46,13.38-71.31.07-.47.23-.76.7-.35,9.71,8.06,24.43,7.35,36.1,4.65,2.17-.55,4.33-1.23,6.39-2.09,1.76-.73,3.47-1.63,5.08-2.66.21-.12.39-.18.53-.12,5.38,17.77,14.89,34.97,14.1,54.15-.07,5.14-.48,10.27-.82,15.4-.21,3.08-.38,6.17-.43,9.26-.03.33.07.82-.2.97-1.43.55-12.11,5.17-12.85,5.35.94-17.95,5.73-52.44-14.38-62.85l-.1-.04h0ZM121.28,231.54c.11,1.87,1.9,6.76.46,7.22-3.75.96-9.23,1.16-13.01-.38-2.04-.74-2.39-3-2.57-4.97-.52-5.13.47-10.37.75-15.5.67-10.5,1.01-20.99.81-31.5-.03-3.37-.03-6.75.08-10.13.09-.93-.07-1.93.26-2.81.15-.29.47-.5.77-.66,4.32-2.23,8.52-4.82,12-8.17.65-.59.61.24.59.78-.1,1.71-.21,3.4-.22,5.11.58,17.31-6.3,36.07,2.48,52.2.38.57.23,1.16-.27,1.59-1.74,1.79-2.32,4.65-2.17,7.13v.09h.02ZM129,234.67c-.17,2.11-2.54,2.73-4.35,3.31-.35.12-.57.1-.48-.36.9-4.37-1.81-9.28.31-13.4.07-.02.13.03.21.12.71,1.1,1.5,2.38,2.19,3.58,1.12,1.97,2.28,4.47,2.13,6.65v.1ZM131.04,179.15c.39,3.45-.02,6.96-.24,10.42-.56,6.93.79,13.94,4.11,20.02,2.1,4.12,6.61,8.06,5.52,13.08-.15.17-.39-.03-.55-.16-1.31-1.29-2.88-2.03-4.75-2.01-.18.02-.76-.03-.51.22.39.31,1.8,1.19,2.39,1.59.56.38.99.84,1.54,1.26.34.32,1.05.75,1.08,1.15-.08.6-.77,1.43-1.17,1.94-.47.57-.72.51-.92-.15-.56-1.88-2.24-2.91-4.15-3.16-.36-.05-.91-.13-.35.3.79.66,2.61,2.2,3.1,2.62.32.34,1.1,1,.92,1.41-.09.13-.26.21-.41.27-1.16.36-2.74.71-3.92.26-.18-.13-.32-.33-.42-.54-.52-1.22-1.18-2.39-1.89-3.52-9.72-12.81-5.19-29.52-4.54-44.24.26-3.59.13-7.25.45-10.82.13-.2.41.06.55.2,2.43,2.52,3.7,6.29,4.13,9.76v.1h.02Z"/>
      <path class="cls-1" d="M81.76,54.31c.61.48,1.19,1.24,1.91,1.74.57.35.85.96.66,1.61-.31,1.34-.93,3.11-1.96,4.14-2.09,1.98-7.3,3.15-9.98,1.52-.51-.25-.78-.8-1.03-1.28-.13-.22-.24-.22-.28.03-.09.55.04,1.3.36,1.79,3.11,4.06,11.3,2.84,13.57-1.59.38-.85.62-.58,1.03.17,2.54,5.76,14.42,5.48,13.18-1.89-.07-.38-.19-.92-.41-.28-.81,5.37-8.55,4.52-10.91.8-.73-1.07-1.42-2.42-1.6-3.52-.03-.29,0-.58.16-.83.44-.56,1.01-1.04,1.21-1.75.94-3.13,4.61-2.08,5.95-4.54,2.37-7.18-15.49-8.23-16.06-1.88-.65,3.09,1.98,4.22,4.11,5.69l.08.06h.01Z"/>
      <path class="cls-1" d="M75.26,31.88c4.11-4-3.31-8.19-5.62-3.48-.96,3.08,2.99,6.1,5.53,3.56l.09-.08h0Z"/>
      <path class="cls-1" d="M97.76,32.48c3.64-1.63,1.58-7.42-2.34-5.16-4.14,1.45-1.4,6.62,2.24,5.21l.11-.04h0Z"/>
    </g>
  </g>
</svg>