<?xml version="1.0" encoding="UTF-8"?>
<svg id="Capa_2" data-name="Capa 2" xmlns="http://www.w3.org/2000/svg" viewBox="0 0 190.38 168.56">
  <defs>
    <style>
      .cls-1 {
        fill: #71160c;
      }

      .cls-2 {
        fill: #ec6642;
      }
    </style>
  </defs>
  <g id="Capa_1-2" data-name="Capa 1">
    <g>
      <path class="cls-2" d="M184.8,139.97c-5.88,8.6-12.26,12.95-18.96,12.95-1.56,0-3.74-.25-6.09-1.3-1.78.88-3.93,1.5-6.46,1.5-1.1,0-2.21-.12-3.31-.37-4.21-.95-8.44-3.72-10.76-8.77-4.64,4.72-11.49,5.26-16.58,5.41-.73.75-1.51,1.56-2.26,2.37-3.28,3.45-6.67,7.03-10.54,9.32-3.55,2.11-19.59,6.78-22.6,7.15-.99.12-2.05.18-3.15.18-10.4,0-26.19-5.52-33.86-10.47-.83-.53-1.6-1.09-2.32-1.66-2.96,5.83-7.93,12.27-15.48,12.28h0c-3.11,0-6.08-1.15-8.54-3.27-3.11-.41-5.99-1.65-8.42-3.67-5.31-4.4-6.49-10.31-7.28-14.21-.16-.84-.34-1.69-.5-2.27-.06-.1-.12-.19-.19-.29-.68-1.05-1.71-2.65-2.37-4.74-1.56-4.96-1.05-9.62-.65-13.35.05-.4.1-.87.14-1.34-.82-.84-1.63-1.86-2.27-3.1-2.47-4.7-2.82-10.6-.97-16.16.56-1.7,1.48-3.24,2.46-4.88,0-.01,0-.03.02-.04v-7.2c0-1.18.22-2.35.62-3.45-1.54-1.38-2.68-3.24-3.13-5.4l-1.09-5.19c-.1-.5-.17-1-.19-1.51-.25-4.57.16-15.04,3.46-21.95.9-1.9,2.14-3.4,3.04-4.49h0c.03-.16.05-.32.08-.45.25-1.37.56-3.07,1.26-4.89,3.73-9.73,8.22-13.53,13.43-17.93.73-.61,1.5-1.26,2.33-1.98.37-.32,1-.95,1.62-1.57,3.5-3.5,8.79-8.78,16.09-8.78h14.18c.21,0,.41.01.61.02,3.54-5.23,9.07-8.76,13.7-10.96,7.87-3.76,15.54-5.51,24.13-5.51,5.45,0,10.8.7,15.31,1.39,16.36,2.49,26.99,6.41,39.65,20.96,5.81,6.68,6.23,7.59,6.71,8.63,1,2.16,1.4,4.7,1.24,7.23,2.22.1,5.81.72,8.71,3.48,2.77,2.62,3.71,6.13,4.81,10.18.2.74.49,1.83.64,2.26.23.47.95,1.49,1.43,2.18,1.7,2.44,3.82,5.48,4.65,9.51.55,2.67.65,5.4.54,8.01,1.82,1.28,3.56,3.13,4.87,5.88,2,4.2,5.2,15.43,5.95,18.55,1.66,6.98,4.55,29.63-3.71,41.71Z"/>
      <path class="cls-1" d="M79.1,106.4c-.56.58-1.55.76-2.14,1.25-1.89,1.6-2.95,4.02-6.4,2.74-1.04,6.42,1.88,8.97,7.06,11.74,4.95.24,9.11.7,13.08-2.78,1.66-1.46,2.07-4.08,4.94-3.51,1.68,1.69-4.68,8.58-6.51,9.56-4.06,2.19-11.72,1.87-15.3-1.11l-4.35-4.63c-.29,5.6-11.65,12.05-12.54,3.81,5.11.72,9.22-.36,10.93-5.7.48-1.49,1.58-7.25.94-8.36-.43-.74-5.18-2.92-6.25-4.1-4.36-4.86-1.84-11.04,1.66-15.42,6.1-1.65,21.9-4.22,19.85,6.47-.18.93-4.38,9.44-4.95,10.03Z"/>
      <path class="cls-1" d="M158.74,48.94c1.18,1.12,2.25,7.09,3.14,9.13,1.41,3.22,4.77,6.33,5.48,9.78.77,3.74.17,8.45-.27,12.22l.49.64c2.69.45,4.69.65,5.96,3.31,1.43,2.99,4.4,13.03,5.24,16.56,2.07,8.71,2.88,26.27-2.23,33.75-3.9,5.7-11.15,13.55-16.32,4.41-1.46-.36-3.44,5.29-8.04,4.26-4.52-1.02-5.02-6.08-4.69-9.91.05-.59.25-3.01,1.01-3.06.57,3.21-.26,8.41,3.44,9.96,2.9,1.21,5.47-6.37,7.77-6.71,3.46-.52,3.2,4.54,6.27,5.26,2.04-.54,7.6-7.41,8.6-9.43,1.8-3.68,1.53-15.54,1.18-20.06-.62-8.1-4.49-15.21-6.11-23.06-10.49-1.42-4.5-10.48-5.99-17.17-.43-1.92-4.57-7.03-5.72-9.54-1.47-3.2-1.29-6.74-4.49-8.63l.47-1.61c.94-1.15,3.84-1.02,4.82-.09Z"/>
      <path class="cls-1" d="M62.92,25.35c1.32-5.02,6.8-8.7,11.25-10.82,11.64-5.55,21.14-5.16,33.63-3.26,15.57,2.37,23.26,5.75,33.61,17.64.76.88,4.97,5.8,5.18,6.26.95,2.06-.03,7.25-3,6.32-1.67-.53-7.42-8.93-9.27-10.94-14.21-15.47-45.12-20.46-63.79-10.94l-7.61,5.74Z"/>
      <path class="cls-1" d="M13.85,94.04c.67-.88.99,0,1.09.81.27,2.09-.03,4.91-.03,7.12,0,1.14.61,2.24.55,3.22-.22,3.67-7.58,10.46,1.68,12.65.51,5.29-.82,12.15.1,17.23.45,2.47,2.34,3.49,3,5.18,1.01,2.6,1.13,11.07,5.33,11.38,1.68.12,3.77-5.88,7.08,2.37,2.57-2.77,4.68-7.18,5.48-10.86.47-2.16,1.51-9.81,1.4-11.75-.02-.35-2.9-3.22-3.29-6.04-.27-1.98-.28-15.42.57-15.95.54-.34,3.05-.21,3.5.43l.24,15.84c1.6-.6,3.4-.53,3.83,1.36-1.64,5.86-1.15,12.12-2.77,17.96-.96,3.45-6.65,18.19-11.8,12.14-.53-.62-.61-1.92-.73-2.01-.3-.23-4.04,1.48-7.26-1.18-3.76-3.12-3.41-8.57-4.88-12.57-.5-1.37-1.83-2.74-2.3-4.24-1.74-5.51.97-11.96-.25-16.52-.09-.35-2.54-1.62-3.21-2.91-1.31-2.51-1.21-5.75-.33-8.37.47-1.41,2.99-4.95,2.99-5.73v-9.54Z"/>
      <path class="cls-1" d="M133.18,132.81c1.27,7.41-9.74,6.36-14.63,6.72-4.17,3.44-9.32,10.29-13.81,12.95-1.92,1.14-16.33,5.53-18.71,5.82-7.75.94-23.75-4.48-30.37-8.76-1.71-1.11-4.7-3.49-4.46-5.35,1.22,1.18,2.25,2.46,3.71,3.37,4.66,2.92,23.09,7.57,28.4,6.94,1.55-.18,15.16-5.16,16.86-6.05,5.28-2.78,11.87-12.47,16.03-14.5,2.5-1.21,6.24-.5,9.08-.74,2.63-.21,5.28-1.91,7.9-.41Z"/>
      <path class="cls-1" d="M11.13,83.14l-1.09-5.18c-.26-4.77.45-12.8,2.5-17.11.72-1.51,2.65-3.26,3.18-4.45.72-1.64.77-4.15,1.52-6.11,3.24-8.46,6.6-10.41,12.97-15.92,2.78-2.41,7.05-7.91,11.17-7.91h14.17c1.18,0,1,2.82-.67,3.69-4.13,2.15-10.55-2-17.23,2.39-2.61,1.72-11.52,9.26-13.46,11.61-2.31,2.8-4.06,6.63-5.2,10.07-.34,1.02-.01,2.48-.51,3.31-.33.55-2.38,1.18-3.3,2.15-1.67,1.75-4.06,8.9-4.06,11.2v12.26Z"/>
      <path class="cls-1" d="M134.89,81.23c-.01.15-.84.58-.54,1.36,5.14-3.94,4.5,4.37,4.91,7.63l2.72-.54c-.49,10.02-7.53,6.2-6-2.18-1.12.57-1.48,3.23-3.14,1.49-1.38-1.44,1.34-9.45.96-11.85-.97.07-1.09,2.52-2.44,2.18-1.11-.28-2.46-4.2-1.92-5.45l-2.54,1.56c-.63.06-1.29-.49-1.54-1.02-.27-.58-.74-5.63-.82-6.81-.32-5.04.4-9.97.54-14.98l1.92.53c.82,1.24,1.03,11.92.76,13.87-.31,2.2-2.04,3.95-1.58,6.31,2.63.2,4.25-7.54,4.69-7.66l2.39.03-.54,9.27,2.18-1.63c-.16,2.59.21,5.33,0,7.9Z"/>
      <path class="cls-1" d="M140.89,106.58c1.7-1.29,3.37-3.25,5.47-1.27.19,3.44-.17,6.85-1.66,9.99,2.94-.38,3.32,1.62,3.32,4.1,0,1.8-.41,6.29-.72,8.04-.78,4.37-3.65,2.51-4.14-.55-.26-1.65.98-3.9.46-5.74-.15-.53-2.82-1.39-3.19-3.51-.34-1.92,2.49-7.27,2.09-7.77l-1.84,1.07c-3.64-2.44-.41-6.84.07-10.21l2.32-5.58-2.17,11.44Z"/>
      <path class="cls-1" d="M100.93,60.36c11.14-2.54,6.15,16.04-.89,9.92-2.47-2.15-2.77-9.09.89-9.92Z"/>
      <path class="cls-1" d="M53.51,64.7c8.35-1.73,4.11,16.69-2.28,9.69-2.73-3-1.98-8.81,2.28-9.69Z"/>
    </g>
  </g>
</svg>