<?xml version="1.0" encoding="UTF-8"?>
<svg id="Capa_2" data-name="Capa 2" xmlns="http://www.w3.org/2000/svg" viewBox="0 0 182.98 139.72">
  <defs>
    <style>
      .cls-1 {
        fill: #dedf50;
      }

      .cls-2 {
        fill: #eb6743;
      }
    </style>
  </defs>
  <g id="Capa_1-2" data-name="Capa 1">
    <g>
      <path class="cls-2" d="M175.63,69.04c-2.13,3.35-4.13,6.52-4.99,9.85-.44,1.68-.61,4.01-.78,6.47-.49,6.75-1.15,16-9.01,21.6-3.44,2.45-7.3,3.69-11.5,3.69-1.24,0-2.45-.11-3.62-.29-4.98,7.55-12.82,14.55-22.27,19.76-11.37,6.27-23.91,9.59-36.26,9.59-20.76,0-38.9-9.15-50.71-25.34-1.88.46-3.78.72-5.64.72-6.83,0-12.57-3.3-15.74-9.04-2.61-4.74-2.57-8.76-2.54-11.69.02-1.07.03-2-.07-2.94-.53-5.11-2.97-9.53-5.58-14.21-4.58-8.26-10.28-18.53-4.44-33.29C9.58,26,36.85,9.85,54.71,8.43c.62-.05,1.29-.07,1.97-.07,2.71,0,5.43.38,7.82.73,1.36.19,2.76.39,3.66.43.75-.32,2.04-.93,2.96-1.36,2.32-1.1,4.5-2.14,6.4-2.69,4.59-1.32,8.58-1.95,12.57-1.95,1.42,0,2.85.08,4.26.24,1.51.17,3.38.74,6.12,1.65.78-.89,1.72-1.76,2.89-2.51,2.98-1.94,6.68-2.91,10.97-2.91,11.31,0,25.55,6.94,33.03,11.09.68.37,1.4.77,2.17,1.18,13.43,7.35,26.89,15.38,31.04,25.52,5.83,14.22-.15,23.66-4.94,31.25Z"/>
      <path class="cls-1" d="M173.64,40.63c-3.78-9.24-21.04-18.08-29.9-22.99-8.18-4.53-27.66-14.02-36.3-8.44-2.61,1.68-3.04,4.89-3.27,5.1-.41.37-8.55-2.85-10.68-3.09-4.83-.55-9.27.12-13.89,1.46-2.77.8-8.65,4.16-10.29,4.32-3.17.31-9.35-1.46-14.01-1.09-15.42,1.23-40,16.02-45.85,30.77-7.49,18.92,8.77,27.12,10.51,43.97.46,4.4-.7,7.42,1.71,11.77,3.66,6.64,11.93,6.11,17.74,2.75,17.02,28.87,52.12,34,80.42,18.4,8.81-4.87,17.9-12.54,22.16-21.82,5.09,1.65,9.84,2.44,14.49-.88,7.25-5.17,4.93-16.36,6.89-23.87,3.36-12.89,16.92-20.08,10.25-36.37h0ZM32.39,94.68c.67-8.19-1.66-15.26-5.5-22.28-4.45-8.14-11.12-13.19-6.64-23.57,5.35-12.42,26.83-25.59,39.56-28.99,3.45-.92,8.3-2.54,5.81,3.11-3.96,8.95-13.45,16.81-17.98,27.89-4.84,11.87-3.67,24.4-7.58,35.05-1.29,3.51-4,7.5-7.66,8.8h0ZM138.7,99.26c-16.31,18.08-46.58,27.59-70.15,21.05-10.52-2.92-19.91-9.43-28.07-16.44,7.99-4.48,11.3-14.31,12.35-23.01,1.74-14.42.93-22.91,7.53-36.72,2.74-5.73,10.12-16.02,10.3-22.07.04-1.33-.59-2.75-1.04-3.99,4.25-.49,32.49-3.35,33.95-1.58.05,10.62,7.44,18.87,12.03,27.63,8.09,15.47,11,42.2,21.47,53.55.72.78,1.98.47,1.63,1.56h0ZM154.17,65.08c-4.25,8.7-4.24,16.94-5.19,26.37-4.25-1.16-7.09-5.96-8.92-9.69-3.63-7.45-5.52-16.23-8.97-23.95-6.06-13.57-16.99-24.73-18.28-40.27,6.39.36,13.12,3.33,18.72,6.38,6.73,3.67,20.94,12.41,26.58,17.14,9.36,7.85-.17,16.32-3.93,24.02h.01Z"/>
      <path class="cls-1" d="M117.3,101.07c-8.86,15.9-25.74,4.85-27.16-9.62,3.95.36,10.08-2.17,12.77-5.05,2.46-2.65,2.77-6.46-.51-8.56-4.39-2.8-7.18-.58-11.48-.93-1.72-.14-2.52-.89-3.78-1.08-7.9-1.18-9.38,8.01-4.28,12.92,1.43,1.38,5.42,2.51,5.58,2.77.52.79-.77,6.8-1.16,8.14-4.98,16.99-21.19,11.72-24.68-2.27-.95-.14-.53,1.21-.41,1.76,3.57,16.53,23.59,19.77,27.05,1.4l.89-4.77c.46,5.74,4.15,12.08,9.52,14.49,10.48,4.71,21.83-4.36,18.55-15.57l-.9,6.38Z"/>
      <path class="cls-1" d="M84.13,54.42c1.87-12.15.61-24.69.06-36.88l-1.07,7.83c-1.6,21.97.65,52.07-29.15,53.68l4.58.53c6.35-.68,12.71-2.67,17.36-7.19,4.54-4.41,7.26-11.78,8.21-17.96Z"/>
      <path class="cls-1" d="M66.68,63.42c8.75.5,6.73-13.64-1.52-11.77-5.26,1.18-5.59,11.37,1.52,11.77Z"/>
      <path class="cls-1" d="M111.56,59.46c4.04-5.23-2.87-12.54-7.23-7.76-4.27,4.68,2.85,13.42,7.23,7.76Z"/>
    </g>
  </g>
</svg>