<?xml version="1.0" encoding="UTF-8"?>
<svg id="Capa_2" data-name="Capa 2" xmlns="http://www.w3.org/2000/svg" viewBox="0 0 309.34 212.59">
  <defs>
    <style>
      .cls-1 {
        fill: #ec6642;
      }

      .cls-2 {
        fill: #dedf50;
      }
    </style>
  </defs>
  <g id="Capa_1-2" data-name="Capa 1">
    <g>
      <path class="cls-2" d="M309.07,170.78c-.14-.4-.21-1.05-.28-1.79-.1-.96-.22-2.05-.54-3.26-3.74-13.77-16.4-17.97-26.59-21.33-2.2-.73-4.28-1.42-6.22-2.17-2.97-1.15-5.35-2.44-7.2-3.93,1.04-.82,1.65-1.81,2-2.4.02-.04.04-.07.07-.12.24-.19.65-.47.94-.67.65-.45,1.38-.95,2.05-1.54,6.92-6.12,10.96-14.39,11.38-23.28.47-9.67-3.37-19.6-10.53-27.26-14.04-15.03-29.66-17.02-47.16-17.93-5.52-.29-11.31-.43-17.69-.43-10.09,0-20.29.36-30.16.71-5.58.2-11.35.4-17.02.54-.96.02-1.92.05-2.88.07-2.99.07-6.08.16-9.09.16-6.99,0-12.24-.45-17-1.47-.65-.14-1.48-.34-2.24-.54-.01-.16-.03-.31-.05-.46-.05-.27-.09-.58-.14-.93-.78-5.18-1.44-8.36-2.72-10.33-1.77-2.74-5.68-4.88-8.92-4.88-.21,0-.41,0-.61.02-.89.07-1.87.27-2.85.68-.11-.24-.23-.49-.34-.72-3.85-8.14-7.84-16.54-14-23.81-1.54-1.82-3.19-3.38-4.79-4.88l-.25-.24C89.18,11.93,75.39.65,62.29.04c-.23-.03-.44-.04-.63-.04-1.5,0-2.91.65-3.84,1.79-.56.67-1.44,2.12-1.04,4.21.17.88.57,1.68,1.15,2.32.11.19.24.39.39.58,2.04,2.58,2.83,4.21,3.88,7.32-.22.03-.44.05-.65.07-6.41-4.82-14.13-7.46-21.95-7.46-2.29,0-4.58.23-6.8.69-3.34.68-5.96,2.04-8.27,3.24-.44.23-.84.52-1.19.88-1.38,1.38-1.86,3.34-1.27,5.12.29.87,1.28,2.94,4.27,3.38,4.09.61,5.81,1.42,7.69,3.64.69.82,1.77,2.78,2.35,4.15-.23.29-.47.6-.67.94-4.59,7.23-4.95,13.55-5.33,20.23-.07,1.11-.13,2.23-.22,3.38-1.56.36-3.4.71-5.33,1.07-8.05,1.52-17.17,3.24-21.77,8.19-7.61,8.2.97,18.31,3.79,21.64,14.79,17.42,38.46,28.68,60.32,28.68,4.09,0,8.11-.39,11.96-1.15.74-.15,1.47-.32,2.18-.5,1.6,3.31,3.42,6.46,5.2,9.53-1.83,3.18-2.17,6.65-.84,9.76,1.58,3.72,5.31,6.09,9.81,6.28l3.05,5.74c-3.49,9.91-6.35,18.73-8.71,26.91-.28.98-.57,2.23-.92,3.67-.53,2.26-1.61,6.83-2.37,8.23-.67.41-2.26,1.08-3.16,1.46-1.23.52-2.4,1.01-3.36,1.55-7.53,4.28-10.65,10.01-8.33,15.33,2.1,4.86,8.48,5.68,10.38,5.82.75.05,1.55.08,2.35.08,2.19,0,4.37-.2,6.43-.47,1.53,1.97,4.06,3.7,8.21,4.4,1.71.28,3.57.42,5.53.42,6.95,0,15.22-1.82,22.11-4.87,12.16-5.38,22.39-25.75,24.71-35.65,2.06-8.85,1.15-17.16-.82-24.67,8.48,2.79,17.67,4.24,27.04,4.24,2.84,0,5.68-.14,8.5-.4-5.84,12.61-6.08,28.67.18,40.53,7.26,13.76,22.78,22.3,40.52,22.3,8.94,0,17.37-2.26,24.37-6.53,7.93-4.83,13.73-12.28,16.77-21.54,2.09-6.35,2.75-13.32,1.97-20.17,10.15,1.45,20.29,3.4,28.24,9.15.18.12.58.41.62.43.32,2.03,1.92,3.65,3.99,3.97.24.03.49.05.73.05,1.33,0,2.58-.56,3.47-1.5.16-.1.32-.21.48-.32,1.62-1.26,2.27-3.42,1.58-5.36ZM241.97,176.63l-.79-.63,1.17-.11c-.12.25-.25.5-.38.74Z"/>
      <path class="cls-1" d="M303.63,166.99c-3.75-13.84-18.79-15.97-29.92-20.3-11.58-4.5-17.14-11.94-14.53-24.75.96-4.73,3.28-9.11,1.36-14.04l2.23,3.45c2.35,4.65,3.37,9.63,3.55,14.83l-1.04,8.38c.66-.51.96-1.5,1.55-2.06.83-.8,2.35-1.64,3.3-2.49,13.55-11.98,12.43-30.95.53-43.69-12.61-13.49-26.18-15.49-43.92-16.42-21.6-1.13-42.97.3-64.52.82-9.96.24-20.24.76-30.07-1.33-.86-.18-5.56-1.26-5.75-1.89-.18-.59-.14-2.25-.27-3.04-.35-2.21-1.06-7.73-2.15-9.42-.9-1.39-3.46-2.81-5.13-2.68-2.43.2-3.44,1.95-4.05,4.02-.09.3.13.37-.41.3-5.13-10.21-9.29-21.04-16.76-29.85-1.44-1.7-3.05-3.21-4.67-4.73-7.65-7.24-20.1-16.81-30.98-17.27-.31-.01-.59-.14-.51.3.7.21.44.62.61.83,2.45,3.11,3.49,5.28,4.77,9.09.63,1.87,1.22,3.65,1.03,5.68-2.58,0-5.16.18-7.71.58-7.23-6.11-17-9.02-26.4-7.1-2.59.53-4.71,1.6-7.02,2.8-.32.32.03.36.31.4,4.49.67,7.61,1.7,10.64,5.28,1.36,1.61,3.69,5.89,3.85,7.94.06.77-1.29,2.02-1.78,2.79-4.96,7.82-4.15,14.45-4.96,23.14-.12,1.31-.07,1.62-1.31,2-6.97,2.08-21.91,3.06-26.9,8.44-4.51,4.85.61,11.39,3.93,15.3,15.7,18.51,43.34,30.78,67.71,25.94,1.96-.39,3.88-.96,5.77-1.56,2.22,5.46,5.32,10.5,8.24,15.6-5.42,5.66-1.65,12.25,6.03,10.73l5.5,10.34c-3.36,9.45-6.54,18.97-9.32,28.62-.94,3.26-2.39,11.4-4.24,13.73-1.17,1.46-5.8,2.87-7.78,4-2.89,1.64-8,5.41-6.32,9.28.88,2.03,4.35,2.81,6.35,2.95,3.69.26,7.51-.27,11.15-.85.77,3.2,3.25,4.4,6.29,4.91,7.67,1.27,17.85-.97,24.92-4.1,9.74-4.31,19.64-22.29,21.98-32.37,2.6-11.11.04-21.45-3.86-31.86,16.11,7.88,35.43,9.59,52.92,5.78-10.04,11.47-12.39,31.13-5.27,44.63,10.46,19.84,39.65,25.22,58.18,13.92,14.6-8.91,19.54-27.22,15.31-43.26,12.7,1.75,26.27,3.2,36.94,10.9,1.44,1.04,2.5,1.54,2.54,3.56l.41-1.24.61.41c-.6-1.73-.43-3.55-.92-5.37v.02ZM66.22,7.91c.13-.12,2.8,1.47,3.16,1.69,4.18,2.55,8.34,5.94,12.05,9.13,4.35,3.76,8.54,7.76,12.08,12.31l-6.14-4.29c-5.27-3.11-11.08-5.29-17.22-5.83,1.43-4.81-1-9.36-3.92-13.01h0ZM38.83,19.05l-3-2.06c7.44.38,14.69,2.18,21.7,4.54.06.55-.01.32-.3.42-5.33,1.62-10.06,3.5-14.17,7.44.16-3.89-1.33-7.74-4.23-10.34h0ZM20.43,83.73c-2.85-3.1-6.95-6.6-8.82-10.4-1.13-2.3-.6-2.33,1.49-3.33.8-.39,7.37-2.68,7.64-2.39.27,5.33.55,10.83-.31,16.11ZM95.7,119.04l-9.84-12.9c5.64-2.38,11.13-5.26,15.62-9.49,2.96-2.78,6.26-7.01,6.08-11.27l-2.99,3.93c-6.28,6.09-14.53,10.46-23.05,12.5-13.85,3.3-28.02.8-40.93-4.65-.06-.53,0-.33.3-.42,1.23-.36,2.48-.59,3.68-1.08,5.94-2.38,9.99-8.15,6.56-14.41l-.47,3.56c-.9,3.82-4.2,6.09-7.45,7.84-.99.53-5.2,2.59-6.05,2.65-.79.05-5.24-2.7-6.19-3.3-2.99-1.92-5.76-4.14-8.48-6.41.43-1.67,1.21-3.18,1.5-4.91.82-4.79-.13-9.08-2.01-13.47,4.27-1.21,9.1-1.52,13.32-2.7,6.94-1.93,5.43-8.46,5.91-14.14.92-11.19,4.39-18.4,15.66-21.94,17.6-5.54,32.77,3.76,44.62,15.92,3.37,6.1,5.71,12.96,9.7,18.71.58.84,2.93,3.38,3.13,3.9.59,1.46.82,6.53,1.15,8.55,1.7,10.42,4.63,20.99,8.62,30.74-10.44,1.52-19.88,6.87-28.4,12.8v-.02ZM97.02,192.93c-1.42,1.87-3.11,4.12-3.32,6.5-4.4-.69-9.04-.59-13.23-2.17,3.24-4.27,10.85-4.08,14.02-7.88,2.15-2.58,3.02-6.82,3.82-10.03,1.72-6.9,3.36-14.27,4.79-21.24.82-3.96,1.61-7.94,1.85-11.99,2.81,5.59,4.62,11.9,5.45,18.11.34,2.52.65,5.52.45,8.04-.52,6.55-9.86,15.42-13.85,20.66h0ZM141.19,165.99c-1.5,8.68-8,20.37-14.08,26.73-5.08,5.32-18.47,8.2-25.62,7.29-.36-.05-1.43-.07-1.38-.49.08-.59,1.25-2.12,1.67-2.68,5.36-7.21,14.66-15.03,15.3-24.58.32-4.68-.67-10.64-1.73-15.23-2.11-9.2-6.59-17.51-11.51-25.46.09-.39,2.39-1.04,2.89-1.25,8.08-3.53,16.01-7.96,22.84-13.52,2.35,6.09,4.65,12.28,6.72,18.48,3.27,9.8,6.7,20.27,4.9,30.72h0ZM142.23,136c-3.05-7.54-6.36-14.98-10.28-22.11l19.64-.41c-2.95,7.76-1.98,16.4.41,24.17l-9.78-1.64h0ZM153.87,138.06c1.9-8.08,1.41-16.44.21-24.59l20.88.41c-1.57,6.8-1.4,14.18,1.03,20.77.67,1.82,1.67,3.51,2.49,5.26-8.25.13-16.46-.6-24.6-1.86h0ZM182.6,139.92c.57-6.81.88-13.79-.68-20.49-.29-1.25-1.5-4.16-1.56-5.06-.01-.27.09-.32.28-.46l38.75-.42c-1.27,6.55-.44,13.02,1.23,19.4-2.62.7-5.36.82-8.01,1.4-3.84.84-7.57,2.36-11.4,3.27-6.1,1.44-12.35,1.99-18.6,2.37h0ZM215.99,162.04c.21.47-.49,1.44-.68,2.01-.16.49-.61,2.47-.87,2.64l-6.83.3c.35-3.81,1.43-7.51,3.82-10.53l4.56,5.58h0ZM207.61,170.5l6.62-.62c-.12,2.02.84,3.8,1.43,5.65l-5.76,4.89c-1.25-3.16-2.17-6.49-2.28-9.92ZM211.74,183.41c2.04-1.62,3.55-3.9,5.27-5.89,1.69,2.21,4.17,4.11,6.9,4.77l.02,7.83c-4.79-.71-9.18-2.89-12.19-6.71h0ZM224.23,157.3c-2.15.27-3.96,1.04-5.74,2.23-1.64-1.46-3.09-3.13-4.67-4.64-.37-.36-.98-.23-.4-.8,2.93-2.93,7.04-4.51,11.15-4.66l-.32,7.87ZM131.89,108.69c-.56-.32-.88-.94-1.4-1.29-.57-.38-1.52-.45-1.65-1.04l-1.65-31.92c10.34,2.88,21.64,2.91,32.36,2.7,25.21-.51,50.65-3.02,75.85-.42,11.99,1.23,19.75,3.57,28.74,11.77,7.34,6.69,11.34,14.03,10.64,24.28-.38,5.47-2.77,10.42-5.58,14.98-.38.05-.18-.44-.15-.67,1.09-7.87.48-14.16-5.01-20.31-.83-.93-2.24-1.85-2.9-2.68-.56-.71-.8-1.76-1.45-2.48-2.41-2.66-7.85-2.47-11.28-2.58-7.75-.26-15.62.3-23.34.61-31.18,1.25-62.58,2.67-93.18,9.06h0ZM227.04,190.33c.32-2.55.1-5.1-.21-7.65,2.58.01,4.98-1.26,6.72-3.1l6.93,6.2c-3.68,3.18-8.64,4.5-13.44,4.54ZM234.38,161.61c-1.69-1.87-3.84-3.29-6.28-3.95-.06-2.61.07-5.24-.44-7.82,4.68.47,8.91,2.66,13.02,4.75l-6.3,7.02h0ZM243.78,156.66c1.73,3.24,5.12,6.22,4.96,10.12l-11.48,1.62c-.32-.03-.46-1.81-.57-2.29-.11-.5-.65-1.19-.53-1.67l7.61-7.79ZM242.86,183.51l-7.52-6.11c.96-1.85,1.5-3.79,1.88-5.83l11.54-1.07c-.39,4.81-2.62,9.49-5.89,13.01h0ZM292.85,160.61c-1.88-.82-3.71-1.74-5.66-2.39-7.78-2.63-16.01-2.59-24.15-2.2-2.43-7.32-7.8-12.82-14.11-17-6.03-4-13.41-6.23-20.65-6.32.66-6.64-.09-13.27-2.06-19.62,5.39-.23,10.85-.47,16.22-1.04,5.04-.54,10.34-1.24,15.2-2.68v2.99c0,1.19-2.08,5.64-2.58,7.13-3.99,12.23-.91,23.68,10.63,30.06,10.72,5.93,25.25,4.58,33.29,15.07l-6.13-4Z"/>
      <path class="cls-1" d="M65.25,39.49c-3.61.25-3.22,5.04-3.07,7.71.05.82.37,1.69.42,2.47.11,1.91-.25,3.86.27,5.72,1.02,3.65,4.48,3.69,6.12.44,1.69-3.35,1.5-8.22.42-11.74-.58-1.89-1.86-4.77-4.16-4.61Z"/>
    </g>
  </g>
</svg>