<?xml version="1.0" encoding="UTF-8"?>
<svg id="Capa_2" data-name="Capa 2" xmlns="http://www.w3.org/2000/svg" viewBox="0 0 308.11 220.48">
  <defs>
    <style>
      .cls-1 {
        fill: #272657;
      }

      .cls-2 {
        fill: #ec6642;
      }
    </style>
  </defs>
  <g id="Capa_1-2" data-name="Capa 1">
    <g>
      <path class="cls-1" d="M157.66,81.77l-7.59.73c-11.74.66-23.53,1.07-35.29.51.1-.43.78-.23,1.12-.25,1.76-.07,3.3.22,4.97.26,12.31.24,24.53-.55,36.8-1.25Z"/>
      <path class="cls-1" d="M186.84,79.79l-28.68,2c1.07-.27,2.51-.41,3.62-.49,8.35-.65,16.7-1.14,25.06-1.5h0Z"/>
      <path class="cls-1" d="M141.45,58.1l-.99-6.97c.7,2.58.91,4.28.99,6.97Z"/>
      <path class="cls-1" d="M140.95,63.83c.21-1.2.08-2.7.5-3.74-.05,1.58,0,2.18-.5,3.74Z"/>
      <path class="cls-2" d="M34.73.52c2.91.91,6.88,4.61,7.98,7.48l.25,1.5c.82.29,1.85-.51,2.61-.76,2.36-.78,4.74-1.51,7.12-2.23,1.18-.24,2.36-.55,3.49-.99.33-.08.67-.17.99-.25l2.25-.5c.38-.12.66-.16.99-.25,10.45-2.27,21.52-3.48,31.92-1.5,2.85.7,5.84,1.72,8.48,2.99.25.31.62.44.99.5,2.33,1.14,4,1.84,6.47,2.88,2.9,1.22,5.71,2.99,8.24,4.85.26.33.59.6.99.75.67.55,1.57,1.39,2.25,2l.99.75c10.13,11.25,15.62,18.28,19.7,33.4.49,2.3.81,4.63.99,6.97.02.52.02,1.48,0,2l-.5,3.74c-2.72,8.48-7.16,13.6-16.58,9.22-8.42-3.91-13.32-14-16.33-22.3-.38-1.03-1.98-6.85-2.25-7.11-.39-.39-.42.08-.52.35-.48,1.33-.64,2.78-.98,4.14-.18.38-.27.79-.25,1.24-.06.3-.17.59-.25.99-.84,4.69-1.62,9.49-.5,14.21,2.06,8.39,9.08,14.51,12.78,22.13,6.89.63,11.91,7.39,6.8,13.52-.52.62-2.25,1.89-2.43,2.3-.33.73-.07,1.51-.24,2.25-3.16,14.1-20.28,9.22-29.1,3.78-12.38-7.65-18.76-20.84-29.39-30.24-2.66-2.36-5.68-4.32-8.28-6.74,10.53,1.96,18.17,10.15,25.06,17.69-.07-5.01,1.59-10.48,4.87-14.33.24-.29,1.94-2.15,2.24-1.87-2.92,6.64-4.79,14.62-1.38,21.44,2.19,4.38,11.36,9.85,15.97,11.46,4.04,1.41,12.21,3.54,13.59-2.25-5.57-1.07-8.1-7.09-5.44-12.05.37-.69,1.78-2.03,1.6-2.67-6.04-10.13-15.24-19.04-13.87-31.9-1.32.59-2.07,1.21-3.61,1.26-7.32.26-8.81-10.72-6.86-15.97.5.1.41.53.49.87.25.98.31,2.15.57,3.17.9,3.5,3.71,11.45,8.26,6.66,2.68-2.81,3.18-7.95,4.32-11.64.8-2.62,1.93-5.16,2.7-7.8-4.59-2.26-10.32-4.13-15.49-3.74-.94.07-1.96.16-2.73.76-.3-.68,1.5-1.77,2.15-2.1,5.4-2.66,12.56-.72,16.93,3.09l-3.8-19.13c-2.44-1.51-5.13-2.53-7.91-3.18-8.5-1.99-18.64-1.4-27.27-.34-6.67.82-13.24,2.36-19.86,3.46,2.21,7.92,1.23,16.68.22,24.77-1.86,14.93-4.66,31.66-13.34,44.15,8.01,20.5,3.56,42.41-4.21,62.18-6.11,15.53-18.2,33.71,1.76,45.38,10.99,6.43,36.09,10.39,48,5.85.25-.1,1.9-.69,1.5-1.11-4.29-2-14.07-3.6-7.98-9.97-9.72-2.76-20.54-2.11-30.23-4.81-.46-.12-1.46-.29-1.69-.67,7.15-.77,14.36-1.28,21.58-1.01,3.79.14,12.33.67,15.31,2.89,2.14,1.59,2.36,4.25.76,6.34l3.16.96,4.07,2.29c-.17-.63.83-1.43.73-1.84-.1-.41-2.65-1.57-2.96-3.79-.7-5.08,5.53-7.02,9.4-8.26,6.19-1.97,12.8-3.04,19.05-4.88,6.77-1.98,13.49-4.51,19.39-8.41-1.37,3.21-4.62,5.72-7.5,7.58-8.2,5.3-17.84,7.37-26.96,10.44-.74.25-5.23,1.73-5.43,1.92-.43.42.08.42.38.49,2.33.56,5.6-.16,6.9,2.32.86,1.65.03,3.39-1.35,4.48l-2.18.93c9.64.96,19.42.29,29.05-.75,9.62-1.04,30.06-3.43,36.69-10.05,8.28-8.27.58-26.75-3.69-35.64-2.3-4.79-5.24-9.31-6.95-14.37,8.28,7.65,15.15,18.52,18.38,29.36.22.74,1.14,5.26,1.44,5.28,4.97-1.61,10.27-2.25,15.46-2.73,7.87-.74,16.52-1.11,24.42-1.25,7.21-.14,14.39.22,21.59.25l-4.82-2.53c-15.08-8.46-26.05-29.79-14.59-45.39,4.86-6.62,15.36-11.66,23.46-8.59.2.07,2.15.79,1.67,1.19-.1.08-1.9-.29-2.61-.24-15.55.9-25.16,14.5-20.01,29.47,6.93,20.15,30.63,27.84,50.18,27.36l4.36.49c-4.46,1.75-9.3,2.55-14.08,2.75-2.89.12-6.13-.31-8.96.02-3.89.46-18.18,5.47-21.68,7.5-1.88,1.09-4,2.24-2.08,4.35,6.11,6.7,29.8,5.45,38.45,5.08,10.94-.46,21.91-1.84,32.9-1,1.59.13,4.07.82,5.49.77.31,0,.52-.03.75-.27.34-.35,1.69-4.27,1.93-5.05,11.01-35.58-17.5-72.95-49.63-85.38-23.85-9.22-52.19-5.1-77.22-4.04-15.12.64-32.7,1.85-47.56-.83-1.34-.24-9.93-2.23-9.92-3.42,14.26.4,29.3-.08,42.89-1.24.16,0,.33,0,.5,0,9.54-.85,19.1-1.51,28.68-2,.25,0,.5,0,.75,0,5.43-.31,10.75-.56,15.96-.75h.99c11.59-.47,23.42-.23,34.66,2.25.33.09.76.18.99.25l2,.5c.8.27,1.29.31,2,.5l3.24.99c28.92,10.48,51.49,32.84,59.1,63.06,2.15,9.27,2.16,18.9,0,28.17-.29,1.15-.68,2.34-1,3.49-.26.55-.42,1.14-.5,1.75-.65,1.61-1.32,3.34-2,4.99l-.5.99c-.11.29-.19.64-.25.75-.31.25-.43.62-.5.99-10.59,20.31-30.64,34.05-54.23,32.65-7.32-.44-17.11-3.09-21.08-9.71,1.72.82,3.38,1.76,5.17,2.43,12.88,4.84,28.79,2.47,40.7-3.92l.91-1.08c9.47-5.38,17.19-13.62,22.01-23.38,1.28-1,1.09-1.11-.53-.34l-33.58,3.81c-3.11.51-6.2.61-9.25.29-7.71.53-15.38.81-22.99-.82-5.42-1.16-15.37-4.79-15.66-11.39-.19-4.38,3.24-6.64,6.81-8.27l5.41-1.94c-17.08.65-34.17,0-51.25-.24l-7.1-.51c1.18,6.04.46,12.89-3.5,17.81-7.11,8.84-24.6,11.15-35.31,12.56-10.71,1.41-33.41,4.18-42.48-.33-.32-.16-.62-.36-.87-.63-.52.47-.4,1.2-.69,1.8-1.32,2.78-5.32,4.36-8.11,5.1-13.19,3.49-33.64.91-46.18-4.41-7.17-3.04-13.96-8.43-17.07-15.71-6.08-14.24,2.3-27.24,7.47-40.13,4.15-10.36,7.91-21.35,9.11-32.52.89-8.26.4-16.35-.74-24.55-.38-.1-.41.1-.63.24-3.76,2.61-5.82,5.43-11.19,4.96C3.8,88.35.11,66.16,0,56.01-.17,39.64,6.61,4.63,26.19.79c2.76-.55,5.72-1,8.48-.25l.05-.02Z"/>
      <path class="cls-2" d="M59.17,37.91c-1.18,3.99-.55,13.09,4.18,14.64,3.41,1.12,5.86-2.44,6.42-5.42l.87-6.48c3.25,6.04,1.43,16.72-7.12,15.97-8.03-.72-8.85-12.63-5.15-18.13.21-.32.28-.68.8-.57Z"/>
      <path class="cls-2" d="M71.63,27.43c-5.69-2.13-11.86-3.13-17.95-2.62,5.04-3.76,12.46-3.05,16.96,1.25.21.2,1.26,1.12.99,1.37Z"/>
      <path class="cls-1" d="M92.33,3.01c-2.05-.02-4.06-.64-6.1-.76-8.68-.53-17.33.7-25.82,2.26,8.93-2.44,22.89-3.7,31.92-1.5Z"/>
      <path class="cls-1" d="M103.3,64.57c-1.31-5.33-.54-8.99.5-14.21-.65,4.79-1.48,9.39-.5,14.21Z"/>
      <path class="cls-1" d="M34.73.52c-1.76-.55-6.56-.12-8.48.25,2.59-.67,5.91-1.21,8.48-.25Z"/>
      <path class="cls-1" d="M59.41,4.75c-.71.22-1.4.67-2.25.5.64-.15,1.41-.71,2.25-.5Z"/>
      <path class="cls-1" d="M56.17,5.51c-.98.55-2.35.89-3.49.99,1.17-.36,2.27-.68,3.49-.99Z"/>
      <path class="cls-1" d="M42.95,9.49c-.47-.17-.19-1.04-.25-1.5.2.51.39.83.25,1.5Z"/>
      <path class="cls-1" d="M104.05,49.37c.02-.4-.15-1.03.25-1.24-.09.38-.16.83-.25,1.24Z"/>
      <path class="cls-1" d="M101.81,6.5c-.44.04-.87-.04-.99-.5.34.16.66.34.99.5Z"/>
    </g>
  </g>
</svg>