<?xml version="1.0" encoding="UTF-8"?>
<svg id="Capa_1" xmlns="http://www.w3.org/2000/svg" version="1.1" viewBox="0 0 2545 2428.6">
  <!-- Generator: Adobe Illustrator 29.5.1, SVG Export Plug-In . SVG Version: 2.1.0 Build 141)  -->
  <path d="M1257.2,1193.4c99.8-5.2,205.7,23.6,285.4,84.7,40.7,31.6,73.3,72.3,104.7,113.5,73.6,99.9,162.1,221,221.4,333.6,10.1,20.7,18.3,41.6,24,63.6,32.8,133.8-30,235.1-168.9,254.5-233.6,25.6-298.2-140-594.6-42.7-101.7,32.4-210,70.7-314.5,33.5-271-99.8,16.5-533.4,200.2-707.7,67.2-63.6,149.2-128.6,241.9-132.9h.4Z"/>
  <path d="M1522.3,293.3c354.6-29.6,363.3,717.1,40.5,738.6-182.3,9.4-250.7-199.1-253.7-353.4-3.6-148,49.4-359.9,212.7-385.1h.5Z"/>
  <path d="M951.3,301c359.3-40.2,376,700.8,53.2,735.7-183.5,15.8-254.8-194.8-258.2-349.3-3.9-145.7,44-359.3,204.5-386.3h.5Z"/>
  <path d="M539.4,841.3c142.5-27,250.6,145.4,287.7,262.1,12.1,38.8,17.1,83.5,14.8,125.5-9.3,248.9-244.5,234.6-360,49.1-25.8-40.8-44.8-86.3-54.9-133.1-23.7-113-13.2-273.6,111.9-303.6h.5Z"/>
  <path d="M1963.4,840.8c336-4.8,96.2,702.9-168.9,562.8-153.6-89.4-89.1-339.1.8-455.8,40.6-53.6,98.3-103.6,167.6-106.9h.5Z"/>
</svg>