<?xml version="1.0" encoding="UTF-8"?>
<svg id="Capa_2" data-name="Capa 2" xmlns="http://www.w3.org/2000/svg" viewBox="0 0 186.73 156.25">
  <defs>
    <style>
      .cls-1 {
        fill: #71160c;
      }

      .cls-2 {
        fill: #f5b5d2;
      }
    </style>
  </defs>
  <g id="Capa_1-2" data-name="Capa 1">
    <g>
      <path class="cls-2" d="M183.92,7.45c-4.42-6.22-12.18-6.89-15.91-7.21-1.86-.16-3.4-.24-4.87-.24-5.7,0-10.3,1.17-15.88,4.04-12.44,6.38-22.35,15.57-28.08,25.72-2.77-.97-5.92-1.74-9.84-2.02-2.51-.19-5.11-.28-7.7-.28-14.9,0-30.17,3.05-42.96,8.48-4.86-3.42-9.58-4.28-13.09-4.28-14.4,0-26.19,14.12-31.91,26.21-3.36,7.12-10.42,27.98-11.7,36.78-.56,3.87-2.22,15.34,6.31,22.39l-6.24,8.38c-1.05,1.41-1.71,3.07-1.91,4.82-.7,6,1.43,9.8,3.33,11.94.62.69,1.3,1.31,2.03,1.84.18,1.64.64,3.35,1.54,5.04,1.76,3.31,4.84,5.7,8.68,6.74,1.11.3,2.29.45,3.49.45h0c5.41,0,10.79-3.18,14.36-5.84,2.52-1.9,4.32-3.65,5.63-5.24,1.09.66,2.3,1.15,3.61,1.42.81.17,1.64.25,2.48.25,4.77,0,8.6-2.75,10.88-4.39.24-.17.45-.33.63-.45,3.86-2.6,7.9-5.69,11.88-9.16.06.04.11.08.17.12,1.78,1.24,3.9,2.87,6.15,4.6,9.87,7.59,22.14,17.03,35.09,17.03,1.02,0,2.04-.06,3.04-.18,2.87-.34,7.4-2.13,13.44-5.3,9.4-4.94,11.46-7.54,12.66-9.58.64-1.1,1.33-3.2,1.94-5.41.07.21.14.43.21.63.28.84.54,1.64.72,2.3v.53c0,1.77,0,4.2.54,6.64,1.65,7.67,7.44,10.4,11.89,10.4.94,0,1.89-.12,2.83-.34,3.29-.76,6.02-2.81,7.7-5.75,3.27-5.74,1.54-12.53-.87-20.17-.16-.52-.38-1.2-.48-1.58-.28-2.21.16-4.01.99-7.13.62-2.33,1.32-4.98,1.63-8.15.52-5.26.54-14.61.05-20-.28-3.12-1.35-5.91-2.12-7.95t0-.01c.73-1.55,1.64-3.69,1.97-6.23.39-2.9.03-5.59-.26-7.64.53-.71,1.21-1.56,1.74-2.22,3.35-4.2,7.52-9.43,8.66-15.6.76-4.12.28-8.6-.15-12.55-.08-.69-.17-1.56-.24-2.32.57-.57,1.29-1.26,1.84-1.78,3.11-2.95,6.64-6.3,7.87-11.12,1.14-4.46,2.2-11.04-1.77-16.63ZM94.87,53.16s0-.01,0-.02h0v.02Z"/>
      <path class="cls-1" d="M171.9,17.09c-10.27-4.28-19.01.81-27.16,6.86-9.66,7.17-14.48,15.47-21.5,24.84-11.32-8.26-28.06-6.16-41.26-4.05-7.04,1.12-19.24,5.86-25.29,5.72-3.4-.08-6.34-7.45-15.17-2.25-12.86,7.57-19.29,34.7-22.94,48.56-.12.47-.25,1.4.41,1.27,2.25-1.85,12.23-14.02,15.08-11.19l-.65,5.81c-4.43,3.41-11.3,14.12-15.43,16.47-.93.53-1.74,1.26-2.85.59-4.3-3.08-3.96-8.85-3.26-13.62,1.06-7.27,7.59-27.07,10.85-33.95,6.04-12.78,21.22-29.81,34.16-14.3,15.15-7.99,34.62-11.37,51.74-10.14,6.61.48,10.08,2.73,15.89,5.2,3.34-13.15,15.63-23.99,27.31-29.98,5.5-2.82,9.09-3.27,15.33-2.73,8.02.69,11.12,2.52,8.85,11.4-1.03,4.05-9.06,8.62-9.97,12.5-.65,2.77,1.41,11.06.51,15.93-1.2,6.49-10.17,14-10.76,17.55-.28,1.69.94,5.38.54,8.42-.34,2.59-2.37,5.11-2.5,7.03-.13,2.05,2.3,5.94,2.61,9.37.43,4.66.42,13.47-.04,18.11-.62,6.33-3.6,10.84-2.52,18.04.34,2.31,5.67,14.94,1.23,15.98-3.83.89-2.73-7.29-3.07-8.97-.7-3.47-2.51-6.76-2.59-10.41-.19-9.9,4.93-18.55,3.42-30.91-.43-3.48-3.24-7.94-3.24-10.43,0-2.95,3.06-6.93,3.32-9.55.27-2.7-1.56-4.59-1.47-6.67.3-6.86,12.15-13.15,11.84-23.35-.11-3.67-2.22-7.09-2.61-9.59-.7-4.45,12.69-15.53,11.21-17.57Z"/>
      <path class="cls-1" d="M105.57,76.08c.28,1.8,4.24,11.59,5.28,13.67,7.12,14.4,24.52,16.61,22.22,35.35-.15,1.19-2.07,8.7-2.46,9.38-1.43,2.44-15.48,9.62-18.66,10-12.55,1.5-27.68-13-37.39-19.73,1.59-.3,2.57.23,3.93.8,7.84,3.32,26.63,19.65,35.15,14.74l1.26-8.91c-.65-2.3-2.73-1.45-4.15-2.68-3.73-3.2-7.03-6.59-6.06-11.99,2.78-2.42,16.63-5.97,18.62-3.22.25,8.64-8.2,14.91-5.66,24.17.71.8,10.91-5.61,11.55-6.85.24-.46,1.9-9.34,1.91-10.08.12-9.38-13.22-16.1-18.49-23.26-7.92-10.75-9.49-23.02-8.75-36.01.18-3.26,1.89-6.58.85-9.92,3.46,1.26.85,4.46.85,5.6,0,5.45-.77,14,0,18.95Z"/>
      <path class="cls-1" d="M29.76,104.94l-10.33,21.52h4.31s-1.72,12.06-1.72,12.06c3.49-.71,5.93-3.46,9.9-2.58,4.01.56-8.76,11.52-13.58,10.21-5.91-1.6-.88-9.6-1.49-10.2-4.24,1.57-7.33.39-6.76-4.55l19.69-26.45Z"/>
      <path class="cls-1" d="M84.04,54.97c6.08,7.12,6.06,19,5.07,27.9-2.2,19.84-22.03,40.13-37.89,50.83-1.57,1.06-4.46,3.49-6.37,3.09-1.02-.21-1.43-1.1-.46-2.17,1.97-2.18,7.62-5.39,10.36-7.73,16.1-13.69,30.93-26.23,32.75-49.08.69-8.68-1.07-14.77-3.47-22.86Z"/>
      <path class="cls-1" d="M72.6,76.66c9.29-1.95,7.3,13.59-1.29,9.54-4.26-2.01-3.36-8.57,1.29-9.54Z"/>
      <path class="cls-1" d="M118.93,74.35c5.79.15,4.83,7.85,1.27,9.47-7.08,3.21-10.81-9.72-1.27-9.47Z"/>
    </g>
  </g>
</svg>