<?xml version="1.0" encoding="UTF-8"?>
<svg id="Capa_2" data-name="Capa 2" xmlns="http://www.w3.org/2000/svg" viewBox="0 0 173.21 104.08">
  <defs>
    <style>
      .cls-1 {
        fill: #ec6642;
      }

      .cls-2 {
        fill: #dedf50;
      }
    </style>
  </defs>
  <g id="Capa_1-2" data-name="Capa 1">
    <g>
      <path class="cls-1" d="M117.78,2c24.68,4.39,38.84,15.26,38.84,29.82,0,.52-.02,1.06-.07,1.59.74.68,1.27,1.19,1.71,1.71,9.71,11.05,14.45,19.8,14.93,27.5.01.21.02.47.02.78,0,.07-.05,6.24-1.4,9.17-.98,2.12-4.64,5.69-4.68,5.72-3.35,2.98-9.49,6.45-18.74,10.59-32.8,14.65-74.55,18.98-114.57,11.86-.54-.1-1.15-.2-1.8-.31-11.02-1.87-29.46-4.99-31.68-18.22-.22-1.34-.33-2.87-.33-4.69,0-4.48.68-9.94,1.09-13.2,1.81-14.47,5.3-24.21,12.9-35.93,6.73-10.38,24.68-17.6,32.09-20.22C68.69.16,94.82-2.09,117.78,2Z"/>
      <path class="cls-2" d="M164.7,69.29c.36-.8.75-5.13.68-6.18-.49-7.75-8.02-17.15-13-22.83-.82-.93-4.01-3.6-4.29-4.27-.34-.82.53-1.86.62-2.79,1.46-15.07-20.82-21.46-32.31-23.5-21.88-3.9-46.82-1.57-67.72,5.83-8.43,2.98-23.28,9.6-28.13,17.09-7.06,10.89-10.07,19.61-11.71,32.65-.52,4.16-1.46,11.71-.81,15.63,1.4,8.39,20.04,10.87,27.12,12.12,35.9,6.38,76.56,3.64,110.02-11.31,4.65-2.08,13.05-6.01,16.73-9.29.3-.26,2.68-2.95,2.77-3.15h0ZM26.76,32.34c.29-1.93,2.01-2.48,3.52-3.22,18.12-8.85,47.07-12.39,67.08-11.42,9.5.46,32.77,4.14,39.29,11.22,2.87,3.11.61,4.75-2.28,6.59-19.89,12.74-74.41,7.19-96.99,1.15-1.59-.42-10.33-3.04-10.63-4.32h.01ZM32.99,82.85c-3.41-.54-13.24-1.91-15.78-3.41-1.57-.93-1.19-5.65-1.16-7.41.13-6.86.68-14.9,1.79-21.67.8-4.9,2-10.21,4.84-14.34,6.28,5.81,15.96,8.64,24.18,10.79,24.94,6.54,68.35,11.47,91.52-1.35,3.09-1.71,5.3-3.6,7.82-6.04,2.87,5.83,7.09,10.95,9.76,16.91,3.8,8.48,4.16,10.94-4.35,15.58-29.88,16.28-85.59,16.19-118.62,10.94Z"/>
    </g>
  </g>
</svg>