<?xml version="1.0" encoding="UTF-8"?>
<svg id="Capa_2" data-name="Capa 2" xmlns="http://www.w3.org/2000/svg" viewBox="0 0 148.1 109.39">
  <defs>
    <style>
      .cls-1 {
        fill: #ec6642;
      }

      .cls-2 {
        fill: #dedf50;
      }
    </style>
  </defs>
  <g id="Capa_1-2" data-name="Capa 1">
    <g>
      <path class="cls-2" d="M147.67,71.02c-2.24,10.75-11.66,19.89-27.99,27.16-13.16,5.86-27.63,9.04-36.78,10.06-3.88.43-11.89,1.15-21.95,1.15-20.51,0-47.09-2.99-57.27-17.2C.02,87.1-1.01,80.45,1.04,75.26c1.67-4.22,5.09-7.12,9.7-8.24.64-3.06,1.32-6.18,2.23-9.26.3-1,.91-2.55,1.88-4.98.38-.94.88-2.18,1.24-3.15-.05-.11-.11-.2-.16-.3-.71-1.3-1.13-2.06-1.38-2.72-3.5-8.96-2.48-18.54,2.81-26.29,5.04-7.38,13.24-11.8,21.92-11.8,3.57,0,7.14.73,10.61,2.17.24.1.5.23.84.41C54.92,4.51,62.85,0,71.2,0c5.05,0,9.57,1.72,13.01,4.85,2.14-1.15,4.52-1.74,7.06-1.74,5.49,0,11.15,2.89,15.04,7.36,1.23-.57,2.77-1.09,4.59-1.09,1.52,0,3.02.36,4.74,1.13,4.51,2.03,7.69,6.78,8.51,12.68.6,4.36-.19,8.48-2.16,11.66,3.05,6.04,6.13,12.79,8.11,20.07,1.36-.2,2.7-.31,3.99-.31,4.99,0,8.94,1.6,11.41,4.64,1.68,2.06,3.42,5.78,2.17,11.76Z"/>
      <path class="cls-1" d="M126.38,60.96c-1.8-9.53-5.91-18.23-10.32-26.75,5.39-4.53,3.87-16.29-2.48-19.15-2.22-1-3.59-.91-5.78.24l-2.61,2.58c-3.47-7.95-14.93-13.94-21.73-6.11-7.31-12.37-27-6.31-30.35,6.11-.21.2-4.42-2.29-5.14-2.58-18.57-7.69-36.07,10.85-28.78,29.49.33.85,2.28,4.1,2.26,4.43-.06.98-3.13,8-3.7,9.94-1.16,3.91-1.95,7.96-2.76,11.96-.39,1.01-1.71.46-2.6.63-8.58,1.71-9.13,11.31-4.67,17.53,12.24,17.06,55.87,16.08,74.61,13.99,17.86-1.99,56.16-12.67,60.45-33.27,2.33-11.22-8.44-11.74-16.41-9.04h.01ZM38.92,18.94c5.73.03,8.4,3.39,12.8,5.54,6.09,2.97,6.15-3.59,8.29-7.07,2.84-4.63,12.26-8.34,16.68-4.07,2.64,2.56,3.17,9.28,6.09,9.57,5.47.52,1.77-9.33,9.31-9,3.81.17,7.4,3.86,9.21,6.96,1.45,2.49,1.49,6.17,5.08,5.55,2.66-.46,1.2-7.63,4.73-7.85,3.45-.21,5.42,5.72,5.58,8.46.26,4.06-.73,6.19-3.77,8.81-12.71,4.43-25.04,10.02-38.18,13.17-13.23,3.18-32.54,6.26-45.75,2.87-3.22-.82-4.22-.95-5.68-4.02-5.8-12.2,1.01-28.99,15.61-28.92h0ZM134.63,74.05c-11.26,14-36.85,20.91-54.04,22.8-16.41,1.81-54.95,2.32-67.15-9.32-2.41-2.29-4.92-6.59-2.52-9.72,2.08-2.72,6.14-.02,7.63-3.86l3.7-23.76c4.22,4.21,11.28,6.06,17.1,6.77,24.88,3.06,50.55-5.58,71.34-18.69.72-.45,4.02-3.12,4.39-3.1.32.02.65.62.79.93,3.13,6.72,4.2,17.23,6.01,24.5,2.27,9.1,8.87,2.03,14.64,4.38,2.91,1.19-.55,7.38-1.89,9.05h0Z"/>
    </g>
  </g>
</svg>