<?xml version="1.0" encoding="UTF-8"?>
<svg id="Capa_2" xmlns="http://www.w3.org/2000/svg" version="1.1" viewBox="0 0 148.1 109.4">
  <!-- Generator: Adobe Illustrator 29.5.1, SVG Export Plug-In . SVG Version: 2.1.0 Build 141)  -->
  <defs>
    <style>
      .st0 {
        fill: #71160c;
      }

      .st1 {
        fill: #f5b5d2;
      }
    </style>
  </defs>
  <g id="Capa_1-2">
    <g>
      <path class="st1" d="M147.7,71c-2.2,10.8-11.7,19.9-28,27.2-13.2,5.9-27.6,9-36.8,10.1-3.9.4-11.9,1.2-22,1.2-20.5,0-47.1-3-57.3-17.2C0,87.1-1,80.4,1,75.3c1.7-4.2,5.1-7.1,9.7-8.2.6-3.1,1.3-6.2,2.2-9.3.3-1,.9-2.5,1.9-5,.4-.9.9-2.2,1.2-3.2,0-.1-.1-.2-.2-.3-.7-1.3-1.1-2.1-1.4-2.7-3.5-9-2.5-18.5,2.8-26.3,5-7.4,13.2-11.8,21.9-11.8s7.1.7,10.6,2.2c.2.1.5.2.8.4C54.9,4.5,62.8,0,71.2,0s9.6,1.7,13,4.8c2.1-1.2,4.5-1.7,7.1-1.7,5.5,0,11.2,2.9,15,7.4,1.2-.6,2.8-1.1,4.6-1.1s3,.4,4.7,1.1c4.5,2,7.7,6.8,8.5,12.7.6,4.4-.2,8.5-2.2,11.7,3.1,6,6.1,12.8,8.1,20.1,1.4-.2,2.7-.3,4-.3,5,0,8.9,1.6,11.4,4.6,1.7,2.1,3.4,5.8,2.2,11.8h0Z"/>
      <path class="st0" d="M126.4,61c-1.8-9.5-5.9-18.2-10.3-26.8,5.4-4.5,3.9-16.3-2.5-19.1-2.2-1-3.6-.9-5.8.2l-2.6,2.6c-3.5-7.9-14.9-13.9-21.7-6.1-7.3-12.4-27-6.3-30.3,6.1-.2.2-4.4-2.3-5.1-2.6-18.6-7.7-36.1,10.9-28.8,29.5.3.8,2.3,4.1,2.3,4.4,0,1-3.1,8-3.7,9.9-1.2,3.9-1.9,8-2.8,12-.4,1-1.7.5-2.6.6-8.6,1.7-9.1,11.3-4.7,17.5,12.2,17.1,55.9,16.1,74.6,14,17.9-2,56.2-12.7,60.5-33.3,2.3-11.2-8.4-11.7-16.4-9h0ZM38.9,18.9c5.7,0,8.4,3.4,12.8,5.5,6.1,3,6.2-3.6,8.3-7.1,2.8-4.6,12.3-8.3,16.7-4.1,2.6,2.6,3.2,9.3,6.1,9.6,5.5.5,1.8-9.3,9.3-9,3.8.2,7.4,3.9,9.2,7,1.4,2.5,1.5,6.2,5.1,5.5,2.7-.5,1.2-7.6,4.7-7.9,3.4-.2,5.4,5.7,5.6,8.5.3,4.1-.7,6.2-3.8,8.8-12.7,4.4-25,10-38.2,13.2-13.2,3.2-32.5,6.3-45.8,2.9-3.2-.8-4.2-1-5.7-4-5.8-12.2,1-29,15.6-28.9h0ZM134.6,74.1c-11.3,14-36.8,20.9-54,22.8-16.4,1.8-55,2.3-67.2-9.3-2.4-2.3-4.9-6.6-2.5-9.7,2.1-2.7,6.1,0,7.6-3.9l3.7-23.8c4.2,4.2,11.3,6.1,17.1,6.8,24.9,3.1,50.6-5.6,71.3-18.7.7-.5,4-3.1,4.4-3.1.3,0,.7.6.8.9,3.1,6.7,4.2,17.2,6,24.5,2.3,9.1,8.9,2,14.6,4.4,2.9,1.2-.6,7.4-1.9,9.1h0Z"/>
    </g>
  </g>
</svg>