<?xml version="1.0" encoding="UTF-8"?>
<svg id="Capa_2" xmlns="http://www.w3.org/2000/svg" version="1.1" viewBox="0 0 678 93.9">
  <!-- Generator: Adobe Illustrator 29.5.1, SVG Export Plug-In . SVG Version: 2.1.0 Build 141)  -->
  <defs>
    <style>
      .st0 {
        fill: #b2d389;
      }
    </style>
  </defs>
  <g id="Capa_1-2">
    <path class="st0" d="M663.3,4.5c1,1.2.7,3.4,3.9,10.6,5.9,13.2,14.1,37.3,9.4,52.4-5,16-27.6,14.9-40.1,16.3-95,10.5-190.6,10.3-286,10.1-106.6-.2-213.2-.4-319.8-.6-7.6,0-15.9-.2-22-5.7C-3.8,76.3,0,47.1,2.9,31.3,6.6,10.6,14,5.9,31.3,4.3c50.7-4.7,103.1-.5,154-.7,102.8-.5,205.6-1,308.3-1.5,42.7-.2,85.3-.4,128-.6,9.7,0,23.6-3.2,32.9-.2,6.1,2,7.9,2.2,8.8,3.2h0Z"/>
  </g>
</svg>