<?xml version="1.0" encoding="UTF-8"?>
<svg id="Capa_2" data-name="Capa 2" xmlns="http://www.w3.org/2000/svg" viewBox="0 0 678.01 93.91">
  <defs>
    <style>
      .cls-1 {
        fill: #f5b5d2;
      }
    </style>
  </defs>
  <g id="Capa_1-2" data-name="Capa 1">
    <path class="cls-1" d="M663.33,4.54c.97,1.15.65,3.37,3.88,10.58,5.94,13.25,14.12,37.27,9.39,52.35-5.03,16-27.57,14.91-40.1,16.29-95.01,10.46-190.59,10.29-286,10.11-106.59-.2-213.17-.4-319.76-.6-7.63-.01-15.86-.25-21.97-5.73C-3.8,76.27,0,47.14,2.87,31.29,6.63,10.58,13.96,5.92,31.27,4.31c50.69-4.71,103.14-.49,154-.73,102.78-.49,205.55-.98,308.33-1.47,42.67-.2,85.33-.41,128-.61,9.72-.05,23.63-3.23,32.94-.16,6.09,2,7.93,2.2,8.78,3.21Z"/>
  </g>
</svg>