<?xml version="1.0" encoding="UTF-8"?>
<svg id="Capa_2" xmlns="http://www.w3.org/2000/svg" version="1.1" viewBox="0 0 678 113.9">
  <!-- Generator: Adobe Illustrator 29.5.1, SVG Export Plug-In . SVG Version: 2.1.0 Build 141)  -->
  <defs>
    <style>
      .st0 {
        fill: #e3f049;
      }
    </style>
  </defs>
  <g id="Capa_1-2">
    <path class="st0" d="M663.3,5.5c1,1.4.7,4.1,3.9,12.8,5.9,16.1,14.1,45.2,9.4,63.5-5,19.4-27.6,18.1-40.1,19.8-95,12.7-190.6,12.5-286,12.3-106.6-.2-213.2-.5-319.8-.7-7.6,0-15.9-.3-22-7C-3.8,92.5,0,57.2,2.9,37.9,6.6,12.8,14,7.2,31.3,5.2c50.7-5.7,103.1-.6,154-.9,102.8-.6,205.6-1.2,308.3-1.8,42.7-.2,85.3-.5,128-.7,9.7,0,23.6-3.9,32.9-.2,6.1,2.4,7.9,2.7,8.8,3.9h0Z"/>
  </g>
</svg>