<svg width="724" height="504" viewBox="0 0 724 504" fill="none" xmlns="http://www.w3.org/2000/svg">
<path d="M681.672 285.504C693.071 299.208 708.686 317.984 697.414 344.853C694.232 352.485 689.763 359.618 685.459 366.509C680.392 374.65 675.575 382.349 673.7 389.526C673.633 389.835 673.537 390.856 673.487 391.625C673.276 394.268 673.017 397.87 671.548 401.806C667.205 413.63 658.071 420.816 645.17 422.623C641.234 423.174 637.271 423.211 634.266 423.169C632.03 423.156 631.623 423.186 631.595 423.19C631.192 423.246 630.799 423.355 630.257 423.458C629.428 423.602 628.407 423.826 627.094 424.065C626.294 424.204 625.375 424.333 624.398 424.469C623.967 424.53 581.68 429.607 563.788 418.418C558.343 414.988 554.831 410.797 553.322 405.918C548.093 392.194 552.224 378.902 563.879 371.853C567.544 369.652 571.895 368.226 577.182 367.486C581.98 366.814 586.97 366.769 591.504 366.814C591.473 366.628 591.447 366.468 591.478 366.301C591.383 364.653 591.308 363.303 591.276 362.572C591.252 360.997 591.307 359.192 591.394 357.22C591.449 355.769 591.54 353.47 591.477 351.654C588.517 350.463 584.19 348.999 581.761 348.169C578.894 347.182 576.407 346.36 574.36 345.53C556.269 338.317 537.684 330.057 522.442 316.047C518.339 320.406 514.371 325.045 510.276 329.811C506.531 334.201 502.66 338.718 498.594 343.125C475.881 367.812 447.671 394.821 410.867 407.841C400.98 411.349 390.696 413.878 380.324 415.33C357.165 418.573 335.307 416.324 316.619 408.868C300.6 414.051 283.846 417.813 265.687 420.355C244.397 423.336 221.522 424.552 195.805 424.042C176.667 423.672 155.377 422.733 132.475 421.284C120.501 420.511 105.62 419.572 91.3357 416.373C82.4861 414.399 55.71 408.348 52.0575 389.204C48.4395 370.626 65.3385 355.792 96.1588 350.524L96.8771 350.423C101.125 345.336 108.705 339.783 121.894 337.936C131.921 336.532 142.52 337.526 151.033 338.348C153.634 338.61 156.053 338.843 158.159 338.957C176.218 339.913 191.636 339.469 205.284 337.559C209.249 337.003 213.073 336.305 216.674 335.501C215.779 333.993 214.815 332.603 213.787 331.359C209.401 326.147 198.503 317.981 171.142 308.554C168.898 307.779 166.263 306.951 163.418 306.097C143.505 299.955 110.34 289.735 108.542 262.218C107.385 261.264 106.626 260.581 105.995 259.961C87.6154 241.709 87.8924 226.969 91.3259 217.831C94.7769 208.8 102.435 202.827 112.377 201.435C115.25 201.033 118.304 201.014 121.707 201.327C129.027 202.044 135.535 203.365 141.829 204.635C150.709 206.44 158.371 207.981 166.983 207.619C169.727 207.507 172.939 207.194 176.731 206.663C180.524 206.132 184.697 205.411 189.014 204.671C193.527 203.875 198.189 203.087 202.93 202.423C216.319 200.548 233.747 199.279 249.714 206.272C251.052 206.901 252.346 207.618 254.037 208.607C254.497 208.542 254.952 208.451 255.412 208.387C255.958 208.311 256.48 208.265 256.972 208.223C278.33 206.539 297.169 218.657 308.624 241.446C309.269 242.689 310.045 244.541 311.456 247.937C311.987 249.196 312.729 251.025 313.496 252.824C315.5 253.033 317.519 253.159 319.521 253.178C323.735 253.241 328.126 252.953 332.522 252.337C365.45 247.727 403.69 224.324 443.103 184.667C449.357 178.374 455.593 171.62 461.606 165.116C469.12 157.013 476.877 148.603 485.111 140.59C498.699 127.254 519.252 107.116 547.122 103.214C548.013 103.089 548.904 102.964 549.803 102.893C550.234 102.832 550.67 102.799 551.076 102.769C550.122 90.1892 546.861 78.7763 537.687 71.6214C533.312 68.2593 531.157 68.561 530.007 68.7219C528.054 68.9955 525.535 69.947 522.572 71.587C521.82 72.0189 520.9 72.5016 520.259 72.8909C517.811 77.1266 513.352 80.0377 508.209 80.7578C507.376 80.8745 506.505 80.942 505.621 80.9296C502.711 80.9287 499.945 80.1998 497.56 78.9275C495.546 78.1205 493.681 76.9661 492.107 75.4441C487.665 71.1386 486.306 64.8496 488.658 59.3205C489.095 58.2249 489.468 56.9203 489.892 55.3909C490.92 51.8167 492.186 47.3654 495.384 42.5074C502.751 31.3758 513.447 24.5696 526.319 22.7673C548.875 19.6093 569.349 32.9135 577.108 38.7964C592.717 50.5767 603.484 65.6212 609.11 83.5363C611.272 90.4206 612.869 97.0845 613.868 103.506C644.341 108.441 666.928 126.186 676.971 153.61C688.325 184.716 679.935 206.771 671.028 230.151C669.507 234.121 667.95 238.232 666.452 242.525L665.795 244.251C665.332 245.541 664.196 248.64 663.688 250.372C664.232 254.57 666.923 262.877 669.75 268.797C672.4 274.361 676.907 279.774 681.672 285.504Z" fill="#F5B5D2"/>
<path d="M647.157 247.42C647.11 245.104 649.904 237.759 650.804 235.11C660.793 206.015 672.726 185.4 661.409 153.585C651.782 126.453 628.368 112.198 598.781 111.374C598.483 101.229 596.355 90.6757 593.385 80.9161C588.654 65.4768 579.806 52.7867 566.79 42.7134C549.935 29.5834 523.67 20.6663 509.539 42.6062C506.384 47.5119 506.179 52.2997 504.086 57.4159L505.397 56.9748L505.833 58.2275C507.025 54.8366 511.024 52.6361 514.233 50.8294C526.604 43.8102 537.082 43.3339 548.398 52.337C566.495 66.7992 568.341 90.4919 567.958 111.455C562.639 112.755 557.119 111.508 551.711 112.065C529.327 114.371 511.781 131.318 497.145 146.053C482.631 160.631 469.551 176.458 455.302 191.221C422.057 225.632 371.29 267.385 319.369 266.788C313.655 266.717 308.037 265.961 302.45 265.032C300.989 264.347 295.127 248.455 293.74 245.66C287.229 232.325 275.454 219.162 258.445 220.525C256.297 220.695 252.357 222.159 250.941 221.943C250.459 221.873 244.345 217.829 242.723 217.056C220.488 207.053 191.467 218.966 167.755 219.953C150.149 220.702 136.523 215.083 120.032 213.432C113.967 212.824 109.128 213.998 106.913 220C103.332 229.781 111.385 240.627 118.093 247.468C119.181 248.57 125.242 253.574 125.431 254.022C125.779 254.728 124.919 257.623 124.972 258.875C125.702 280.181 160.387 287.52 176.901 293.365C193.23 299.154 215.96 308.581 226.783 321.854C232.406 328.712 235.383 337.043 239.407 344.747C239.36 345.37 235.692 346.515 234.778 346.871C210.983 355.427 182.412 356.359 157.206 354.986C143.412 354.206 117.419 348.832 108.955 362.089C108.461 362.86 107.371 365.788 107.208 365.868C106.049 366.343 101.088 366.387 99.1429 366.724C88.7895 368.526 65.7072 374.739 68.2625 388.338C69.9178 397.223 87.2184 401.92 95.1526 403.742C107.635 406.615 120.743 407.522 133.547 408.362C154.042 409.686 175.583 410.748 196.111 411.173C237.449 411.953 278.571 408.258 317.453 394.222C343.953 407.556 377.487 405.488 404.956 395.45C437.541 383.582 463.891 358.088 486.069 333.335C498.392 319.577 509.221 304.384 523.417 292.231C537.437 312.264 558.484 322.381 580.917 331.6C586.612 333.941 600.869 337.985 604.743 341.624C609.4 345.935 607.628 357.106 607.797 363.128C607.887 366.082 608.969 380.396 608.01 381.934C607.325 382.984 603.46 383.262 602.015 383.415C593.908 384.193 579.416 382.17 572.919 386.214C563.827 391.864 569.02 403.207 569.097 403.503C569.518 405.402 571.374 406.897 573.012 407.949C582.318 413.939 612.861 413.394 623.936 411.32C629.274 410.326 628.852 410.079 634.471 410.108C644.897 410.227 652.219 409.142 655.943 398.78C657.304 394.973 656.796 390.876 657.688 387.444C661.968 370.817 675.644 355.408 682.073 339.534C693.756 310.922 665.42 296.398 654.718 273.395C651.583 266.654 647.407 254.689 647.19 247.443L647.157 247.42ZM138.098 361.606C166.308 365.036 183.815 368.08 212.599 360.203C222.766 357.421 232.534 352.876 240.042 345.775C244.202 353.964 250.819 360.79 258.458 366.097C258.126 366.593 257.146 366.902 256.551 367.044C213.14 376.835 170.489 365.077 126.821 364.801C121.612 364.769 116.242 365.376 111.072 365.03C117.882 358.533 129.369 360.514 138.122 361.574L138.098 361.606ZM655.346 374.627C654.036 379.491 652.502 385.898 650.925 390.743C650.246 392.381 649.607 393.901 648.244 394.937C646.322 396.334 645.17 392.806 644.043 392.744C642.038 393.258 640.687 396.027 638.867 396.962C637.25 398.063 636.422 396.559 636.656 394.902C638.087 386.746 644.917 380.191 650.891 374.346C652.155 373.24 653.729 371.502 655.184 371.04L655.356 371.015C655.986 371.092 655.92 372.333 655.379 374.65L655.346 374.627ZM636.001 377.923C632.534 385.476 634.628 392.144 630.615 398.852C627.836 403.536 625.875 403.959 620.494 404.315C614.874 404.651 608.654 404.177 602.909 404.278C595.376 404.414 582.267 406.081 575.539 403.526C567.94 400.676 568.575 392.327 576.992 390.916C583.944 389.717 596.945 392.711 605.16 392.058C614.862 391.329 617.888 388.01 618.765 379.15C619.856 368.133 618.8 356.194 619.582 345.081C617.573 334.903 611.037 330.612 601.849 326.648C587.338 320.457 572.24 316.114 558.584 307.924C525.515 288.066 514.581 252.389 522.798 216.804C528.137 193.558 542.328 176.591 559.102 159.784C556.191 160.148 552.725 162.188 550.093 163.743C508.453 188.113 496.272 248.929 521.17 288.105C513.399 291.717 506.654 297.701 500.457 303.437C474.254 327.651 453.222 354.785 421.901 374.195C390.74 393.499 356.046 398.981 319.439 393.404L334.14 386.804C348.107 379.834 364.939 367.805 373.089 354.789C373.417 354.266 374.043 353.952 373.739 353.156C367.268 356.441 361.66 361.085 355.544 364.934C294.454 403.167 214.44 400.971 144.229 397.024C131.117 396.285 118.075 395.424 105.065 393.663C105.175 392.695 105.634 392.993 106.209 392.91C117.552 391.413 129.147 392.231 140.424 390.324C138.307 389.034 135.204 388.194 132.777 387.537C121.304 384.546 111.244 384.318 100.157 388.885C99.0554 389.352 95.8897 391.432 95.3637 391.452C93.5273 391.549 88.1073 388.721 85.8449 388.543C85.8261 387.874 86.4008 387.791 86.863 387.557C90.1736 386.015 95.3431 385.437 99.0441 384.315C103.446 382.98 107.784 381.431 112.039 379.725C104.219 377.887 95.7654 378.883 88.7782 382.802L84.9529 382.962C101.871 376.07 121.171 376.168 139.327 377.019C174.001 378.593 210.401 386.551 244.871 380.037C264.504 376.337 294.945 365.954 310.791 354.375C311.738 353.678 317.179 349.282 317.388 348.748C317.732 347.775 316.787 348.303 316.365 348.42C305.333 351.496 293.907 356.699 282.537 360.047C279.868 360.824 264.666 365.397 263.374 364.856C262.78 364.634 256.044 356.509 255.177 355.319C244.459 340.855 243.842 324.122 230.853 310.351C210.293 288.575 180.773 285.221 153.54 276.5C143.005 273.122 128.806 266.858 127.361 255.059C138.492 263.641 157.906 274.023 172.657 270.858C177.547 269.817 181.854 267.152 186.206 264.957L180.899 264.855C163.202 269.452 141.711 256.011 130.077 244.283C129.442 243.619 126.054 240.441 126.521 239.87C128.676 239.559 131.257 238.235 132.93 236.93C134.085 236.064 137.428 232.334 138.271 231.177C138.701 230.555 138.879 228.906 139.277 228.821C139.765 228.75 146.542 230.319 147.949 230.48C162.331 232.183 175.625 230.937 189.746 228.059C208.74 224.227 230.039 215.863 248.195 226.65C237.357 232.412 227.969 250.001 228.512 261.678C228.865 270.136 233.718 285.054 239.2 291.765C243.57 297.04 249.277 299.267 254.049 303.561C259.646 308.603 263.551 315.009 269.612 320.012C291.091 337.793 333.044 335.433 322.932 299.75C319.78 288.673 312.571 280.169 305.89 270.917C348.317 283.296 390.218 261.295 422.535 236.899C441.866 222.297 459.065 205.205 475.264 187.557C506.108 153.941 531.731 109.546 585.679 111.977C606.075 112.868 634.115 125.532 644.572 142.776C677.441 197.063 609.064 249.839 633.802 307.51C638.498 318.504 646.614 326.793 651.767 336.966C661.838 356.757 643.152 362.336 636.041 377.805L636.001 377.923ZM673.336 327.723C673.49 334.391 668.34 343.363 665.285 349.262C666.698 333.272 653.564 320.808 646.91 307.13C640.109 293.081 639.121 280.096 642.15 265.021L644.537 273.521C648.363 292.674 672.903 308.641 673.307 327.728L673.336 327.723Z" fill="#71160C"/>
<path d="M219.23 250.695C218.758 251.602 214.315 257.645 213.43 257.073C215.971 251.081 216.887 245.043 215.071 238.644C213.109 231.706 205.776 239.341 202.757 241.792C202.423 242.092 201.951 243 201.411 242.378C203.192 236.971 209.342 227.631 216.413 231.229C222.84 234.472 222.163 245.317 219.197 250.671L219.23 250.695Z" fill="#71160C"/>
<path d="M179.1 248.817C175.563 249.859 173.607 244.796 177.118 243.589C180.927 242.228 182.805 247.723 179.1 248.817Z" fill="#71160C"/>
<path d="M186.448 259.68C182.624 260.399 181.977 255.063 185.229 254.258C188.706 253.392 190.991 258.856 186.448 259.68Z" fill="#71160C"/>
<path d="M173.067 260.94C170.651 260.533 170.226 256.955 172.638 256.047C177.745 254.162 178.515 261.917 173.067 260.94Z" fill="#71160C"/>
</svg>
