<?xml version="1.0" encoding="UTF-8"?>
<svg id="Capa_2" data-name="Capa 2" xmlns="http://www.w3.org/2000/svg" viewBox="0 0 265.11 211.41">
  <defs>
    <style>
      .cls-1 {
        fill: #ec6642;
      }
    </style>
  </defs>
  <g id="Capa_1-2" data-name="Capa 1">
    <g>
      <path class="cls-1" d="M166.19,26.1c7.88,7.95,15.78,15.93,23.85,23.7,10.15,2.92,18.14,11.05,22.51,20.46,19.41,13.23,58.74,33.67,51.73,62.68-3.64,15.1-19.03,19.4-31.46,10.93-14.59-9.94-20.46-30.87-20.29-47.76l-.49-3.36c-3.04,11.42-10.38,21.02-18.26,29.56-2.8,3.04-3.07,2.52-4.33,6.85-3.71,12.73-3.21,25.47.97,37.98,2.35,7.02,8.74,18.75,8.17,25.79-.41,5.09-4.3,7.71-8.99,5.33-6.95-3.53-15.86-22.72-17.98-30.2-1.64-5.77-2.13-11.09-.74-16.99.22-.97.84-1.94.8-2.93-6.51,6.54-13.17,12.67-12.8,22.72.33,8.89,7.3,31.55,2.43,38.7-4.11,6.04-10.91-4.24-12.83-7.46-6-10.12-9.82-22.8-9.98-34.59.72-.12.41.15.53.57,2.72,9.59,4.31,17.48,8.93,26.58,1.62,3.18,6.4,11.4,9.48,12.88,1.32.64,1.59-2.95,1.67-3.91,1.49-20-11.57-35.71,6.35-51.77,2.64-2.37,6.07-4.1,7.96-6.94.39-.58.77-1.35,1.34-1.76-3.4,8.68-3.11,16.53,0,25.21,2.26,6.31,10.13,21.77,15.33,25.65,5.52,4.14,4.92-2.71,4.04-6.27-2.25-9.14-7.27-17.47-9.1-27.16-2.06-10.91-1.05-28.1,5.78-37.28,9.64-12.96,20.97-28.01,19.48-45.33-.98-11.37-15.66-27.28-27.82-24.09-3.39.89-5.85,3.55-8.19,5.96l2.41,1.18c2.58,4.35-4.94,10.57-6.26,3.9-1.8,2.03-3.97,3.68-6.53,4.66-5.94,2.25-19.41,1.08-16.29,11.43,2.54,8.41,14.22,11.78,22.05,11.22,4.59-.33,8.5-2.28,12.79-3.12.26-.05.81-.32.75.13-7.62,4.37-15.45,6.94-24.3,4.8-8.12-1.96-17.95-9.71-14.96-19.09,2.34-7.32,10.96-7.03,16.91-8.68,8.01-2.22,9.84-11.31,17.14-14.91l4.48-1.85c-2.94.05-5.89-.08-8.84,0-19.46.51-44.57,1.82-56.51-17-11.93-18.82.82-40.95,23.36-29.31,9.8,5.06,18.01,15.11,25.69,22.88h0Z"/>
      <path class="cls-1" d="M78.88,10.32l-4.39,2.19c-18.78,12.77-32.56,34.09-14.62,54.43,16.47,18.66,46.99,24.45,70.8,25.08,6.58.18,13.24-.42,19.76.37-4.81,2-10.37,2.99-15.55,3.57-29.49,3.29-65.84-4.53-83.82-29.89l-3.22-5.84c-1.76,6.76-8.25,10.18-14.17,12.79-2.43,1.07-5.29,1.71-7.53,3.15-7.13,4.6-2.74,20.38-11.21,23.31-5.12,1.77-9.19-1.69-10.06,5.83-.75,6.43-.26,14.02-.5,20.63-.08,2.25-.31,4.57-.49,6.81.38-.34,1.26-.75,1.43-1.17.51-1.22.73-3.99,1.17-5.53,1.68-5.76,4.74-8.41,10.64-5.42,5.13,2.6,6.77,5.34,13.46,4.92,10.2-.64,16.46-7.04,18.23-16.79.36-1.96-.31-5.73,2.84-5.01.32.07.56.22.79.46.9.96,2.64,8.21,3.3,10.11,5.12,14.71,14.28,23.07,27.01,31.36,17.06,11.09,37.29,19.36,58.01,18.12l-5.41,1.42c-8.43.95-16.98-.63-25.2-2.24-14.62-2.88-33.36-15.49-44.17-25.62-6.94-6.51-11.67-14.34-14.41-23.47l-1.69,3.9c-5.75,10.54-19.73,14.59-30.36,8.9-1.78-.95-5.47-4.12-7.45-3.23-2.33,1.05-2.78,11.07-4.47,13.59-.19.28-.62.32-.87.69-.76,1.12-1.08,3.5-3.22,3.46-4.33-.1-3.46-7.55-3.39-10.55.19-7.73.29-16.17.74-23.84.21-3.5,1.04-8.23,4.67-9.74,5-2.09,9.05,1.66,11.12-5.27,2.07-6.93,1.36-15.18,9.19-18.87,5.58-2.63,11.63-3.3,16.64-7.45,1.15-.95,4.76-4.98,4.84-6.34.04-.71-.73-2.2-.91-3.04-2.96-12.81.69-22.99,9.13-32.64,3.62-4.13,14.16-13.11,19.73-13.11h3.6v-.02Z"/>
      <path class="cls-1" d="M157.08,72.7c3.03-.16,8.09,2.56,7.98,6.01-.02.48-.48,2.3-.67,2.8-1.94,5.26-10.23,3.71-12.18-.85-1.58-3.71.79-7.74,4.87-7.97h0Z"/>
      <path class="cls-1" d="M188.13,65.5c4.86-.95,3.38,9.62-1.24,7.34-2.53-1.24-1.42-6.81,1.24-7.34Z"/>
      <path class="cls-1" d="M232.02,138.35c-8.95-8.02-13.76-20.9-15.47-32.58-1.66-11.28-.8-22.8-3.51-33.86,3.01,2.4,5.93,4.93,8.96,7.3,13.33,10.39,33.24,22.74,38.11,39.88,5.68,19.97-11.68,33.97-28.1,19.27h0Z"/>
      <path class="cls-1" d="M162,26.57c8.11,7.69,16.16,15.5,24.95,22.48-2.14-.29-4.23-.91-6.37-1.2-6.62-.9-13.45-.41-20.11-.78-14.61-.81-32.64-3.63-40.64-17.47-6.88-11.9-3.04-29.66,13.83-25.01,10.47,2.89,20.58,14.61,28.34,21.96h0Z"/>
      <path class="cls-1" d="M174.2,62.26c2.41-.72,1.23,3.4-1.01,2.65-1.11-.38.23-2.42,1.01-2.65Z"/>
      <path class="cls-1" d="M157.07,74.44c2.76-.47,4.76.16,6.53,2.29,1.33,1.6,1.13,2.69-.05,4.43-2.68,3.98-7.91,3.06-9.53-1.33-.82-2.22.68-5.01,3.04-5.41h0Z"/>
      <path class="cls-1" d="M188.68,68.43l-.74-.12c1.89-1.92,1.43,2.1.13,2.85-1.02-.94.15-1.93.62-2.72Z"/>
    </g>
  </g>
</svg>