<?xml version="1.0" encoding="UTF-8"?>
<svg id="Capa_1" xmlns="http://www.w3.org/2000/svg" version="1.1" viewBox="0 0 661.2 436">
  <!-- Generator: Adobe Illustrator 29.5.1, SVG Export Plug-In . SVG Version: 2.1.0 Build 141)  -->
  <defs>
    <style>
      .st0 {
        fill: #71160c;
      }

      .st1 {
        fill: #f5b5d2;
      }
    </style>
  </defs>
  <path class="st1" d="M633.9,285.5c11.4,13.7,27,32.5,15.7,59.3-3.2,7.6-7.7,14.8-12,21.7-5.1,8.1-9.9,15.8-11.8,23,0,.3-.2,1.3-.2,2.1-.2,2.6-.5,6.2-1.9,10.2-4.3,11.8-13.5,19-26.4,20.8-3.9.6-7.9.6-10.9.5-2.2,0-2.6,0-2.7,0-.4,0-.8.2-1.3.3-.8.1-1.9.4-3.2.6-.8.1-1.7.3-2.7.4-.4,0-42.7,5.1-60.6-6.1-5.4-3.4-9-7.6-10.5-12.5-5.2-13.7-1.1-27,10.6-34.1,3.7-2.2,8-3.6,13.3-4.4,4.8-.7,9.8-.7,14.3-.7,0-.2,0-.3,0-.5,0-1.6-.2-3-.2-3.7,0-1.6,0-3.4.1-5.4,0-1.5.1-3.8,0-5.6-3-1.2-7.3-2.7-9.7-3.5-2.9-1-5.4-1.8-7.4-2.6-18.1-7.2-36.7-15.5-51.9-29.5-4.1,4.4-8.1,9-12.2,13.8-3.7,4.4-7.6,8.9-11.7,13.3-22.7,24.7-50.9,51.7-87.7,64.7-9.9,3.5-20.2,6-30.5,7.5-23.2,3.2-45,1-63.7-6.5-16,5.2-32.8,8.9-50.9,11.5-21.3,3-44.2,4.2-69.9,3.7-19.1-.4-40.4-1.3-63.3-2.8-12-.8-26.9-1.7-41.1-4.9-8.8-2-35.6-8-39.3-27.2-3.6-18.6,13.3-33.4,44.1-38.7h.7c4.2-5.2,11.8-10.7,25-12.6,10-1.4,20.6-.4,29.1.4,2.6.3,5,.5,7.1.6,18.1,1,33.5.5,47.1-1.4,4-.6,7.8-1.3,11.4-2.1-.9-1.5-1.9-2.9-2.9-4.1-4.4-5.2-15.3-13.4-42.6-22.8-2.2-.8-4.9-1.6-7.7-2.5-19.9-6.1-53.1-16.4-54.9-43.9-1.2-1-1.9-1.6-2.5-2.3-18.4-18.3-18.1-33-14.7-42.1,3.5-9,11.1-15,21.1-16.4,2.9-.4,5.9-.4,9.3-.1,7.3.7,13.8,2,20.1,3.3,8.9,1.8,16.5,3.3,25.2,3,2.7-.1,6-.4,9.7-1,3.8-.5,8-1.3,12.3-2,4.5-.8,9.2-1.6,13.9-2.2,13.4-1.9,30.8-3.1,46.8,3.8,1.3.6,2.6,1.3,4.3,2.3.5,0,.9-.2,1.4-.2.5,0,1.1-.1,1.6-.2,21.4-1.7,40.2,10.4,51.7,33.2.6,1.2,1.4,3.1,2.8,6.5.5,1.3,1.3,3.1,2,4.9,2,.2,4,.3,6,.4,4.2,0,8.6-.2,13-.8,32.9-4.6,71.2-28,110.6-67.7,6.3-6.3,12.5-13,18.5-19.6,7.5-8.1,15.3-16.5,23.5-24.5,13.6-13.3,34.1-33.5,62-37.4.9-.1,1.8-.2,2.7-.3.4,0,.9,0,1.3-.1-1-12.6-4.2-24-13.4-31.1-4.4-3.4-6.5-3.1-7.7-2.9-2,.3-4.5,1.2-7.4,2.9-.8.4-1.7.9-2.3,1.3-2.4,4.2-6.9,7.1-12,7.9-.8.1-1.7.2-2.6.2-2.9,0-5.7-.7-8.1-2-2-.8-3.9-2-5.5-3.5-4.4-4.3-5.8-10.6-3.4-16.1.4-1.1.8-2.4,1.2-3.9,1-3.6,2.3-8,5.5-12.9,7.4-11.1,18.1-17.9,30.9-19.7,22.6-3.2,43,10.1,50.8,16,15.6,11.8,26.4,26.8,32,44.7,2.2,6.9,3.8,13.5,4.8,20,30.5,4.9,53.1,22.7,63.1,50.1,11.4,31.1,3,53.2-5.9,76.5-1.5,4-3.1,8.1-4.6,12.4l-.7,1.7c-.5,1.3-1.6,4.4-2.1,6.1.5,4.2,3.2,12.5,6.1,18.4,2.7,5.6,7.2,11,11.9,16.7Z"/>
  <path class="st0" d="M599.4,247.4c0-2.3,2.7-9.7,3.6-12.3,10-29.1,21.9-49.7,10.6-81.5-9.6-27.1-33-41.4-62.6-42.2-.3-10.1-2.4-20.7-5.4-30.5-4.7-15.4-13.6-28.1-26.6-38.2-16.9-13.1-43.1-22-57.3-.1-3.2,4.9-3.4,9.7-5.5,14.8l1.3-.4.4,1.3c1.2-3.4,5.2-5.6,8.4-7.4,12.4-7,22.8-7.5,34.2,1.5,18.1,14.5,19.9,38.2,19.6,59.1-5.3,1.3-10.8,0-16.2.6-22.4,2.3-39.9,19.3-54.6,34-14.5,14.6-27.6,30.4-41.8,45.2-33.2,34.4-84,76.2-135.9,75.6-5.7,0-11.3-.8-16.9-1.8-1.5-.7-7.3-16.6-8.7-19.4-6.5-13.3-18.3-26.5-35.3-25.1-2.1.2-6.1,1.6-7.5,1.4-.5,0-6.6-4.1-8.2-4.9-22.2-10-51.3,1.9-75,2.9-17.6.7-31.2-4.9-47.7-6.5-6.1-.6-10.9.6-13.1,6.6-3.6,9.8,4.5,20.6,11.2,27.5,1.1,1.1,7.1,6.1,7.3,6.6.3.7-.5,3.6-.5,4.9.7,21.3,35.4,28.6,51.9,34.5,16.3,5.8,39.1,15.2,49.9,28.5,5.6,6.9,8.6,15.2,12.6,22.9,0,.6-3.7,1.8-4.6,2.1-23.8,8.6-52.4,9.5-77.6,8.1-13.8-.8-39.8-6.2-48.3,7.1-.5.8-1.6,3.7-1.7,3.8-1.2.5-6.1.5-8.1.9-10.4,1.8-33.4,8-30.9,21.6,1.7,8.9,19,13.6,26.9,15.4,12.5,2.9,25.6,3.8,38.4,4.6,20.5,1.3,42,2.4,62.6,2.8,41.3.8,82.5-2.9,121.3-17,26.5,13.3,60,11.3,87.5,1.2,32.6-11.9,58.9-37.4,81.1-62.1,12.3-13.8,23.2-29,37.3-41.1,14,20,35.1,30.2,57.5,39.4,5.7,2.3,20,6.4,23.8,10,4.7,4.3,2.9,15.5,3.1,21.5,0,3,1.2,17.3.2,18.8-.7,1.1-4.5,1.3-6,1.5-8.1.8-22.6-1.2-29.1,2.8-9.1,5.7-3.9,17-3.8,17.3.4,1.9,2.3,3.4,3.9,4.4,9.3,6,39.8,5.4,50.9,3.4,5.3-1,4.9-1.2,10.5-1.2,10.4.1,17.7-1,21.5-11.3,1.4-3.8.9-7.9,1.7-11.3,4.3-16.6,18-32,24.4-47.9,11.7-28.6-16.7-43.1-27.4-66.1-3.1-6.7-7.3-18.7-7.5-26h0ZM90.3,361.6c28.2,3.4,45.7,6.5,74.5-1.4,10.2-2.8,19.9-7.3,27.4-14.4,4.2,8.2,10.8,15,18.4,20.3-.3.5-1.3.8-1.9.9-43.4,9.8-86.1-2-129.7-2.2-5.2,0-10.6.6-15.7.2,6.8-6.5,18.3-4.5,27-3.5h0ZM607.6,374.6c-1.3,4.9-2.8,11.3-4.4,16.1-.7,1.6-1.3,3.2-2.7,4.2-1.9,1.4-3.1-2.1-4.2-2.2-2,.5-3.4,3.3-5.2,4.2-1.6,1.1-2.4-.4-2.2-2.1,1.4-8.2,8.3-14.7,14.2-20.6,1.3-1.1,2.8-2.8,4.3-3.3h.2c.6,0,.6,1.3,0,3.6h0ZM588.2,377.9c-3.5,7.6-1.4,14.2-5.4,20.9-2.8,4.7-4.7,5.1-10.1,5.5-5.6.3-11.8-.1-17.6,0-7.5.1-20.6,1.8-27.4-.8-7.6-2.9-7-11.2,1.5-12.6,7-1.2,20,1.8,28.2,1.1,9.7-.7,12.7-4,13.6-12.9,1.1-11,0-23,.8-34.1-2-10.2-8.5-14.5-17.7-18.4-14.5-6.2-29.6-10.5-43.3-18.7-33.1-19.9-44-55.5-35.8-91.1,5.3-23.2,19.5-40.2,36.3-57-2.9.4-6.4,2.4-9,4-41.6,24.4-53.8,85.2-28.9,124.4-7.8,3.6-14.5,9.6-20.7,15.3-26.2,24.2-47.2,51.3-78.6,70.8-31.2,19.3-65.9,24.8-102.5,19.2l14.7-6.6c14-7,30.8-19,38.9-32,.3-.5,1-.8.7-1.6-6.5,3.3-12.1,7.9-18.2,11.8-61.1,38.2-141.1,36-211.3,32.1-13.1-.7-26.2-1.6-39.2-3.4.1-1,.6-.7,1.1-.8,11.3-1.5,22.9-.7,34.2-2.6-2.1-1.3-5.2-2.1-7.6-2.8-11.5-3-21.5-3.2-32.6,1.3-1.1.5-4.3,2.5-4.8,2.6-1.8,0-7.3-2.7-9.5-2.9,0-.7.6-.8,1-1,3.3-1.5,8.5-2.1,12.2-3.2,4.4-1.3,8.7-2.9,13-4.6-7.8-1.8-16.3-.8-23.3,3.1l-3.8.2c16.9-6.9,36.2-6.8,54.4-5.9,34.7,1.6,71.1,9.5,105.5,3,19.6-3.7,50.1-14.1,65.9-25.7.9-.7,6.4-5.1,6.6-5.6.3-1-.6-.4-1-.3-11,3.1-22.5,8.3-33.8,11.6-2.7.8-17.9,5.4-19.2,4.8-.6-.2-7.3-8.3-8.2-9.5-10.7-14.5-11.3-31.2-24.3-45-20.6-21.8-50.1-25.1-77.3-33.9-10.5-3.4-24.7-9.6-26.2-21.4,11.1,8.6,30.5,19,45.3,15.8,4.9-1,9.2-3.7,13.5-5.9h-5.3c-17.7,4.5-39.2-8.9-50.8-20.7-.6-.7-4-3.8-3.6-4.4,2.2-.3,4.7-1.6,6.4-2.9,1.2-.9,4.5-4.6,5.3-5.8.4-.6.6-2.3,1-2.4.5,0,7.3,1.5,8.7,1.7,14.4,1.7,27.7.5,41.8-2.4,19-3.8,40.3-12.2,58.4-1.4-10.8,5.8-20.2,23.4-19.7,35,.4,8.5,5.2,23.4,10.7,30.1,4.4,5.3,10.1,7.5,14.8,11.8,5.6,5,9.5,11.4,15.6,16.5,21.5,17.8,63.4,15.4,53.3-20.3-3.2-11.1-10.4-19.6-17-28.8,42.4,12.4,84.3-9.6,116.6-34,19.3-14.6,36.5-31.7,52.7-49.3,30.8-33.6,56.5-78,110.4-75.6,20.4.9,48.4,13.6,58.9,30.8,32.9,54.3-35.5,107.1-10.8,164.7,4.7,11,12.8,19.3,18,29.5,10.1,19.8-8.6,25.4-15.7,40.8h0ZM625.5,327.7c.2,6.7-5,15.6-8.1,21.5,1.4-16-11.7-28.5-18.4-42.1-6.8-14-7.8-27-4.8-42.1l2.4,8.5c3.8,19.2,28.4,35.1,28.8,54.2h0Z"/>
  <path class="st0" d="M171.4,250.7c-.5.9-4.9,6.9-5.8,6.4,2.5-6,3.5-12,1.6-18.4-2-6.9-9.3.7-12.3,3.1-.3.3-.8,1.2-1.3.6,1.8-5.4,7.9-14.7,15-11.1,6.4,3.2,5.8,14.1,2.8,19.4h0Z"/>
  <path class="st0" d="M131.3,248.8c-3.5,1-5.5-4-2-5.2,3.8-1.4,5.7,4.1,2,5.2Z"/>
  <path class="st0" d="M138.7,259.7c-3.8.7-4.5-4.6-1.2-5.4,3.5-.9,5.8,4.6,1.2,5.4Z"/>
  <path class="st0" d="M125.3,260.9c-2.4-.4-2.8-4-.4-4.9,5.1-1.9,5.9,5.9.4,4.9Z"/>
</svg>