<?xml version="1.0" encoding="UTF-8"?>
<svg id="Capa_2" data-name="Capa 2" xmlns="http://www.w3.org/2000/svg" viewBox="0 0 145.45 129.11">
  <defs>
    <style>
      .cls-1 {
        fill: #dedf50;
      }

      .cls-2 {
        fill: #eb6743;
      }
    </style>
  </defs>
  <g id="Capa_1-2" data-name="Capa 1">
    <g>
      <path class="cls-2" d="M37.29,129.11c-9.63,0-18.7-3.92-25.54-11.04C3.8,109.77-.47,98.03.04,85.82c.15-3.51,2.71-6.44,6.16-7.07.69-.13,1.31-.18,1.92-.18,4.1,0,7.29,2.77,7.9,6.74,5.98,14.76,11.5,20.79,18.95,20.79,1.32,0,2.76-.18,4.27-.55,19.05-4.57,19.67-33.29,19.59-38.99,0-1.23,0-2.46.02-3.69,0-.68.02-1.34.02-1.99-7.07-5.28-12.88-13.05-17.3-23.16-7.19-16.44-4.86-25.78-1.63-30.72,2.9-4.44,7.67-6.99,13.09-6.99,7.33,0,14.73,4.55,20.29,12.03,5.5-6.14,11.42-9.36,17.19-9.36,4.53,0,8.59,2.12,11.14,5.8,3.82,5.51,3.94,13.82.34,23.39-2.97,7.92-11.84,22.55-19.51,28.39-.97.74-1.98,1.4-2.98,1.95l.06.51c.55,4.53,1.03,8.44,2.49,12.56,5.49,15.51,16.18,26.34,25.97,26.34,7.34,0,14.15-6.28,19.24-17.73l1.31-8.12c.53-3.26,3.13-5.8,6.4-6.24.34-.04.67-.06,1-.06,2.91,0,5.6,1.69,6.82,4.4,8.09,17.82-3.59,37.98-19.04,46.45-5.82,3.18-11.87,4.8-18.02,4.8-12.28,0-24.17-6.61-32.75-17.96-5.44,9.82-14.14,17.2-24.61,20.3-3.71,1.1-7.45,1.66-11.1,1.66Z"/>
      <path class="cls-1" d="M72.31,25.7l5.41-7.27c12.43-15.18,24.41-8.23,17.27,10.79-2.74,7.29-10.87,20.38-17.03,25.06-1.9,1.45-4.32,2.71-6.73,2.72,1.23,7.33,1.25,13.66,3.77,20.78,11.79,33.25,43.33,46.04,59.54,8.23l1.46-9.05c6.23,13.7-3.63,30.1-15.83,36.77-17.68,9.68-34.94.04-44.31-15.78l-4.62-9.13c-1.84,14.02-10.99,27.29-24.97,31.43-22.58,6.69-39.62-12.54-38.73-34.13,1.52-.28.89.36,1.22,1.18,5.63,14.12,13.84,29.94,32.26,25.53,20.08-4.81,25.56-28.74,25.34-46.38-.04-3.22.16-6.44-.06-9.65-8.33-4.97-13.99-13.35-17.83-22.11C33.88,1.43,62.11-1.04,72.31,25.69h0Z"/>
    </g>
  </g>
</svg>