<?xml version="1.0" encoding="UTF-8"?>
<svg id="Capa_1" data-name="Capa 1" xmlns="http://www.w3.org/2000/svg" viewBox="0 0 447 492">
  <defs>
    <style>
      .cls-1 {
        fill: #ec6642;
      }

      .cls-2 {
        fill: #71160d;
      }

      .cls-3 {
        fill: #dedf50;
      }
    </style>
  </defs>
  <circle class="cls-1" cx="224.5" cy="240.5" r="213.5"/>
  <g>
    <path class="cls-3" d="M361.77,258.55c-.78-2.33-1.37-5.2-1.57-6.81.25-.62.56-1.3.72-1.64l.39-.88c.88-2.02,1.75-3.93,2.61-5.78,5.25-11.44,10.71-23.27,6.52-40.78-3.43-14.39-13.07-25.05-26.6-29.93-.24-2.32-.6-4.7-1.06-7.13-1.97-10.09-6.67-18.86-14-26.04-7.95-7.82-17.56-12-26.36-11.48-7.41.44-14.11,4.16-18.84,10.5-2.15,2.87-3.15,5.63-3.81,7.45-.19.53-.4,1.08-.5,1.32-2.22,4.44-1.67,9.77,1.43,13.66,1.02,1.29,2.28,2.34,3.65,3.13,1.7,1.14,3.69,1.88,5.82,2.08.68.06,1.34.07,2,.03,3.47-.2,6.69-1.82,8.92-4.43.36-.17.67-.29.9-.38h.02c1.62,1.64,2.59,4.02,2.97,7.43-13.04,1.98-23.03,10.78-29.8,16.74-4.21,3.69-8.18,7.55-12.02,11.27-3.15,3.06-6.11,5.94-9.18,8.72-18.87,17.06-36.26,26.52-50.28,27.35-1.46.09-2.9.08-4.3-.03-.4-1.41-.63-2.21-.88-2.88-4.86-13.57-14.81-21.75-26.65-21.93-.23-.15-.44-.29-.65-.42-.07-.03-.12-.08-.19-.12-8.17-4.83-17.16-4.97-24.09-4.56-2.28.13-4.48.34-6.62.54-1.94.18-3.78.35-5.51.45-1.56.09-2.85.12-3.93.07-3.26-.15-6.23-1.09-10-2.28-2.81-.89-5.99-1.89-9.58-2.61-1.96-.39-3.78-.53-5.56-.42-6.57.39-11.96,4.1-14.76,10.21-2.11,4.63-4.24,14.26,5.36,26.66.85,15.63,17.13,22.76,26.1,26.68,1.19.52,2.29,1,3.24,1.45,4.71,2.26,8.1,4.26,10.52,5.91-4.48-.08-9.43-.53-14.78-1.32-.89-.14-1.91-.33-2.99-.55-4.13-.82-9.28-1.83-14.56-1.51-6.56.39-11.02,2.72-13.96,5.3-19.73,2.26-25.88,13.51-25.1,22.59.71,8.61,7.49,15.16,20.16,19.51,6.77,2.3,13.75,3.42,19.36,4.33,10.45,1.68,20.2,3.04,28.97,4.03,12,1.35,22.75,1.71,32.88,1.11,7.88-.47,15.51-1.54,22.75-3.21,8.65,4.25,18.8,6.15,29.71,5.5,5.16-.3,10.32-1.17,15.34-2.59,18.59-5.22,33.9-18.5,45.14-29.47,2.11-2.06,4.12-4.16,6.05-6.18.79-.81,1.55-1.61,2.32-2.39,6.18,5.96,13.32,10.16,19.92,13.76.7.38,1.47.77,2.3,1.17-3.14.21-5.83.92-8.21,2.18-7.82,4.14-11.32,12.75-9,22.1.56,2.74,2.09,6.24,5.98,9.43,9.42,7.71,30.72,6.68,30.94,6.67.53-.03,1.04-.06,1.45-.11.66-.06,1.16-.12,1.58-.17h.12c.17,0,.35,0,.54.04,1.57.16,3.66.33,5.86.2,7.91-.47,14.09-4.8,17.4-12.22,1.11-2.49,1.47-4.73,1.73-6.2.03-.15.04-.31.08-.46,1-2.69,3.25-5.87,5.64-9.23,2.39-3.38,4.87-6.87,6.85-10.85,7.67-15.37-.09-27.62-4.74-34.94-1.74-2.74-3.37-5.35-4.14-7.6v-.02Z"/>
    <path class="cls-2" d="M152.42,234.91c-.26.41-2.55,3.12-2.92,2.81,1.42-2.76,2.11-5.61,1.56-8.74-.58-3.4-4.27-.05-5.75.99-.17.13-.43.55-.64.23,1.05-2.51,4.26-6.72,7.33-4.71,2.79,1.83,1.99,6.98.42,9.42Z"/>
    <path class="cls-2" d="M347.41,249.89c.07-1.11,1.68-4.51,2.2-5.73,5.83-13.5,12.18-22.87,8.43-38.56-3.19-13.39-13.22-21.18-26.67-22.81.31-4.87-.19-10.01-1.11-14.8-1.47-7.58-4.96-14.02-10.42-19.39-7.1-6.98-18.68-12.35-26.07-2.44-1.65,2.21-1.96,4.49-3.14,6.86l.62-.15.13.62c.7-1.57,2.61-2.46,4.15-3.19,5.94-2.84,10.74-2.64,15.48,2.15,7.6,7.68,7.41,19.08,6.31,29.1-2.48.4-4.94-.42-7.42-.39-10.3.17-19.04,7.54-26.35,13.98-7.26,6.36-13.91,13.39-21.06,19.86-16.66,15.07-41.62,32.93-65.25,30.47-2.6-.27-5.13-.87-7.63-1.55-.64-.38-2.61-8.24-3.11-9.63-2.38-6.65-7.16-13.45-14.97-13.49-.98,0-2.84.53-3.47.37-.22-.05-2.82-2.24-3.53-2.67-9.69-5.72-23.44-1.23-34.27-1.74-8.05-.38-14.01-3.64-21.44-5.11-2.74-.54-4.99-.19-6.27,2.59-2.07,4.52,1.13,10.05,3.88,13.6.44.57,2.98,3.22,3.05,3.44.12.35-.4,1.71-.43,2.3-.61,10.22,14.87,15.19,22.13,18.67,7.18,3.45,17.11,8.92,21.46,15.71,2.26,3.52,3.25,7.63,4.74,11.48-.05.3-1.77.69-2.2.82-11.21,3.1-24.27,2.35-35.69.64-6.24-.95-17.86-4.61-22.29,1.38-.26.35-.88,1.7-.97,1.73-.55.17-2.81-.01-3.71.07-4.8.44-15.59,2.44-15.02,9.05.36,4.32,8.03,7.28,11.56,8.49,5.56,1.89,11.49,2.88,17.28,3.81,9.28,1.49,19.04,2.89,28.37,3.95,18.79,2.1,37.69,2.05,56.03-3.04,11.48,7.49,26.85,7.89,39.8,4.25,15.36-4.31,28.51-15.41,39.68-26.33,6.23-6.07,11.83-12.88,18.83-18.11,5.5,10.16,14.64,15.89,24.45,21.23,2.49,1.36,8.8,3.89,10.41,5.79,1.93,2.26.63,7.53.44,10.41-.09,1.42-.22,8.31-.73,9-.36.48-2.13.44-2.8.46-3.72.03-10.23-1.54-13.37.13-4.39,2.33-2.52,7.97-2.51,8.11.11.92.9,1.72,1.59,2.29,3.97,3.25,17.92,4.27,23.05,3.74,2.47-.25,2.29-.39,4.85-.13,4.74.5,8.13.29,10.29-4.52.79-1.77.74-3.74,1.29-5.35,2.68-7.78,9.59-14.58,13.23-21.9,6.58-13.2-5.69-21.33-9.54-32.79-1.13-3.35-2.5-9.26-2.28-12.73ZM110.49,283.27c12.7,2.82,20.55,5,34,2.45,4.76-.91,9.4-2.67,13.13-5.75,1.53,4.09,4.24,7.63,7.5,10.49-.18.23-.63.33-.91.37-20.21,2.88-39.12-4.53-59-6.49-2.37-.23-4.85-.16-7.19-.55,3.39-2.83,8.53-1.4,12.47-.52ZM345.53,311.09c-.81,2.28-1.79,5.27-2.74,7.52-.38.76-.74,1.45-1.41,1.89-.93.59-1.31-1.15-1.82-1.23-.95.16-1.66,1.42-2.55,1.81-.79.45-1.09-.31-.91-1.07,1.01-3.85,4.42-6.7,7.39-9.24.63-.47,1.43-1.24,2.1-1.4h.07c.29.06.21.65-.15,1.74v-.03ZM336.57,311.87c-1.92,3.47-1.25,6.75-3.38,9.79-1.47,2.13-2.38,2.25-4.84,2.19-2.57-.08-5.4-.56-8.01-.75-3.44-.24-9.48,0-12.44-1.5-3.34-1.68-2.68-5.65,1.22-5.97,3.22-.28,9,1.69,12.78,1.72,4.45.06,5.98-1.4,6.76-5.6.98-5.22,1.03-10.98,1.87-16.26-.47-4.95-3.25-7.29-7.26-9.56-6.34-3.57-13.03-6.27-18.88-10.76-14.2-10.87-17.59-28.41-12.29-45.08,3.46-10.9,10.68-18.42,19.06-25.76-1.34.05-3.01.88-4.27,1.52-20.04,9.92-28.27,38.51-18.67,58.29-3.7,1.41-7.04,3.99-10.11,6.47-13.01,10.49-23.78,22.6-38.92,30.57-15.04,7.93-31.09,9.11-47.51,4.91l6.98-2.54c6.67-2.75,14.87-7.81,19.16-13.69.17-.24.48-.36.37-.75-3.09,1.31-5.86,3.29-8.81,4.87-29.52,15.74-65.87,11.34-97.67,6.54-5.94-.9-11.85-1.85-17.7-3.24.09-.46.29-.3.56-.31,5.23-.25,10.47.63,15.71.2-.91-.7-2.28-1.24-3.36-1.65-5.09-1.91-9.66-2.44-14.92-.71-.53.17-2.06,1.04-2.3,1.03-.84-.03-3.18-1.61-4.2-1.79.02-.32.29-.34.51-.43,1.57-.6,3.96-.65,5.69-1.04,2.07-.45,4.11-1.02,6.12-1.65-3.48-1.21-7.37-1.08-10.73.51l-1.75-.09c8.01-2.59,16.8-1.73,25.03-.57,15.72,2.2,31.96,7.53,47.94,5.86,9.11-.95,23.43-4.65,31.16-9.52.47-.3,3.14-2.16,3.25-2.41.2-.45-.26-.24-.45-.2-5.16,1.01-10.59,3.02-15.92,4.16-1.25.27-8.38,1.81-8.95,1.5-.26-.14-2.97-4.3-3.31-4.91-4.24-7.37-3.78-15.39-9.1-22.53-8.4-11.28-21.71-14.12-33.72-19.42-4.65-2.06-10.83-5.65-10.98-11.35,4.7,4.57,13.08,10.35,19.94,9.45,2.28-.3,4.36-1.39,6.44-2.26l-2.41-.27c-8.26,1.46-17.46-5.87-22.24-11.97-.26-.34-1.66-2.01-1.42-2.26.99-.05,2.22-.59,3.05-1.14.57-.37,2.25-2.01,2.68-2.53.23-.28.37-1.06.56-1.08.23-.01,3.24,1.02,3.88,1.16,6.48,1.42,12.59,1.37,19.15.59,8.82-1.04,18.89-4.15,26.68,1.77-5.2,2.31-10.25,10.33-10.52,15.93-.21,4.06,1.34,11.4,3.54,14.83,1.75,2.7,4.26,4.01,6.24,6.27,2.33,2.64,3.82,5.87,6.36,8.52,9,9.41,28.22,10.02,25.18-7.47-.94-5.43-3.86-9.8-6.48-14.51,18.78,7.69,38.84-1.08,54.64-11.41,9.45-6.17,18.04-13.63,26.19-21.4,15.53-14.8,29.16-34.96,53.63-31.54,9.25,1.28,21.47,8.51,25.46,17.19,12.57,27.34-20.9,49.73-12.17,78.36,1.64,5.45,4.98,9.76,6.88,14.84,3.71,9.89-5.05,11.78-8.96,18.88ZM355.8,289.4c-.22,3.19-2.97,7.27-4.62,9.97,1.35-7.6-4.09-14.1-6.51-20.92-2.48-7.01-2.35-13.26-.31-20.35l.72,4.17c.89,9.33,11.37,17.98,10.71,27.13Z"/>
    <path class="cls-2" d="M134.22,232.34c-1.65.35-2.32-2.15-.68-2.59,1.8-.49,2.42,2.22.68,2.59Z"/>
    <path class="cls-2" d="M137.09,237.84c-1.78.18-1.84-2.39-.32-2.65,1.62-.27,2.42,2.45.32,2.65Z"/>
    <path class="cls-2" d="M130.94,237.89c-1.08-.29-1.11-2.03.03-2.36,2.41-.69,2.41,3.05-.03,2.36Z"/>
  </g>
</svg>