<?xml version="1.0" encoding="UTF-8"?>
<svg id="Capa_2" data-name="Capa 2" xmlns="http://www.w3.org/2000/svg" viewBox="0 0 427 427">
  <defs>
    <style>
      .cls-1 {
        fill: #1a5733;
      }

      .cls-2 {
        fill: #b1d289;
      }

      .cls-3 {
        fill: #9b9bcd;
      }
    </style>
  </defs>
  <g id="Capa_1-2" data-name="Capa 1">
    <g>
      <circle class="cls-3" cx="213.5" cy="213.5" r="213.5"/>
      <g>
        <path class="cls-2" d="M348.12,286.67c-6.22-8.39-18.75-13.08-28.16-18.46-1.92-1.19-3.86-2.38-5.8-3.57-11.49-7.04-23.35-14.32-32.85-23.16l-.08-.08c-10.49-9.81-12.1-14.73-9.53-29.25.74-4.21,1.93-8.57,3.2-13.2,3.32-12.06,7.09-25.74,2.82-39.62-1.48-4.85-3.34-9.67-5.11-14.33-1.41-3.67-2.74-7.15-3.9-10.6-.71-2.14-1.55-4.95-2.42-7.91-4.01-13.61-9.01-30.55-18.02-38.24-3.52-3-7.47-4.58-11.47-4.58-5.49,0-10.02,2.98-12.48,7.75-3.3-4.35-8.46-9.9-15.76-9.9-3.24,0-6.34,1.15-8.96,3.34-4.71,3.96-5.8,9.92-5.49,15.34-.67.53-1.3,1.15-1.86,1.84-1.98,2.38-4.07,6.66-2.78,13.53,1.38,7.33,5.27,14.25,8.89,20.12-1.52,4.14-1.59,8.29-.85,12.22-1.17-.39-2.4-.62-3.68-.62-3.53,0-6.51,1.59-8.72,3.32-.04,0-.08,0-.13,0-1.08,0-2.15.19-3.2.54-9.35,3.15-14.45,14.66-15.85,20.31-1.79,7.19-1.65,14.27-1.52,21.13.09,5.33.17,10.37-.66,15.02-3.27,18.56-16.49,33.34-30.47,49-7.16,8.01-15.79,16.33-20.79,25.93-4.29,8.25-10.2,22.4-8.16,31.78,2.04,9.38,10.39,18.38,18.56,23.01,10.28,5.84,23.22,6.81,34.26,2.59,15.92-6.09,25.12-20.69,33.66-34.51,9.35-15.13,21.46-28.19,29.3-44.63,7.09,10.8,16.22,19.22,23.64,25.42,1.71,1.42,3.44,2.77,5.11,4.07,1.89,1.48,3.66,2.88,5.36,4.33,3.27,2.79,6.41,5.66,9.73,8.69,4.62,4.23,9.4,8.61,14.52,12.72l.5.4c15.1,12.03,31.62,16.99,50.61,10.08,9.88-3.6,18.62-11.38,21.38-21.51,2.11-7.77.6-13.6-2.85-18.28h-.01ZM194.91,182.15c.11-.18.18-.36.28-.54.03-.05.05-.11.09-.16.13.1.26.22.41.33-.26.11-.51.25-.77.37Z"/>
        <path class="cls-1" d="M274.84,248.24c11.87,11.1,26.55,19.47,40.32,28.02l22.19,12.72c.07.42-.5.22-.75.17-5.77-.92-14.59-5.24-19.99-7.86-17.55-8.56-46.65-25.4-56.19-42.65-10.05-18.14.72-39.86,4.23-58.42,2.68-14.13-3.89-24.7-8.34-37.68-3.36-9.83-5.99-20.04-9.46-29.77-1.6-4.52-4.4-11.76-8.25-14.72-2.39-1.85-2.89-.6-3.13,1.97-.71,7.95,1.73,16.23,3.01,24.01l-1.75-2.78c-2.95-5.84-5.49-15.65-4.99-22.17.5-6.52,5.65-7.8,10.45-3.71,8.68,7.41,13.89,30.85,17.62,42,2.76,8.22,6.42,16.53,8.93,24.71,4.89,15.9-3.49,32.53-6.3,48.43-3.09,17.54-.45,25.75,12.37,37.73h.01Z"/>
        <path class="cls-1" d="M184.89,160.45c-.58.14-3.18,4.09-3.61,4.87-6.7,12.11-1.76,27.04-2.89,40.26-2.04,23.66-18.28,42.72-34,59.06-.13.13-.25.26-.38.4-1.55,1.61-3.32,3.15-4.71,4.86-1.52,1.86-3.05,3.74-4.6,5.57-3.09,3.69-6.26,7.31-9.5,10.87-1.22,1.35-2.47,2.7-3.95,3.77-.46.33-1.12.64-1.55.27-.35-.3-.33-.86-.2-1.32.43-1.75,1.51-2.81,2.5-4.21.88-1.24,1.79-2.47,2.71-3.69,4.43-5.81,9.26-11.28,14.12-16.72,4.86-5.44,9.92-11.04,14.58-16.82,4.65-5.78,8.84-11.62,12.29-18.04,3.45-6.42,6.04-13.22,7.3-20.37,2.1-11.87-.75-24.26,2.04-35.54,1.13-4.54,5.06-12.1,9.76-13.69.66-.22.11.43.11.45h0Z"/>
        <path class="cls-1" d="M191.14,263.92c-.39.07-.25-.55-.21-.79.41-2.42,2.59-4.31,4.86-4.89-4.14-2.39-8.94-1.06-12.99.81,3.02-3.82,8.59-5.45,13.22-3.82,1.27.45,5.13,2.51,4.44,4.18-.68,1.67-3.03.62-4.53.82-1.92.25-4.16,1.82-4.78,3.69h-.01Z"/>
        <path class="cls-1" d="M185.35,272.04c-.12-.21.6-1.6-.12-.92l-8.47,12.75c.67-4.94,3.2-9.43,6.84-12.75.39-.37,2.63-1.86,2.67-2.02.71-2.59-4.04-9.18-3.7-9.58,4.04,2.94,8.04,8.54,2.78,12.52Z"/>
        <path class="cls-1" d="M184.89,160.45c2-.5,4.24,2.5,4.74,4.19,1.9,6.25-2.78,11.7-4.87,17.16-.79-5.66,5.2-13.71,2.34-19.04-.42-.78-2.17-2.15-2.22-2.3h.01Z"/>
        <path class="cls-1" d="M192.77,163.7c-.43.47-.64.72-1.16,1.16-.32.26-.97,1.05-1.41.82.37-.92,3.93-6.64,3.48-7.07-1.93.13-3.7,1.2-5.23,2.31-.39-.24.11-.51.24-.69,1.06-1.52,4.68-4.94,6.47-3.01,1.81,1.93-1.14,5.1-2.42,6.48h.01Z"/>
        <path class="cls-1" d="M181.86,259.29l-9.77,6.59c-1.47.8-2.95,1.91-4.61,2.22l2.19-2.31c3.47-3.19,7.3-6.11,12.19-6.49h0Z"/>
        <path class="cls-1" d="M203.91,206.17c-1.51,2.29-2.78,4.7-3.72,7.31l-1.39,4.52c-1.01-4.41.14-8.01,3.6-10.89.22-.18,1.34-1.1,1.5-.94h.01Z"/>
        <path class="cls-1" d="M189.3,229.82l.75-4.68,1.33-4.59c.56,3.3.33,6.76-2.09,9.28h.01Z"/>
        <path class="cls-1" d="M158.89,298.95c-.42-.07-.26-1.21-.24-1.52.11-1.54.53-3.16.93-4.64l1.39-3.12c.26,3.33-.68,6.32-2.09,9.27Z"/>
        <path class="cls-1" d="M193.7,226.57c-.41,0-.25-1.02-.24-1.28.05-.61.21-1.18.3-1.78l1.33-3.2c.29,2.33-.46,4.22-1.39,6.26h0Z"/>
        <path class="cls-1" d="M305.06,319.53c-.26-.57-.79-.97-1.3-1.35-.39-.3-.8-.6-1.2-.9-5.07-3.8-10.44-7.45-15.47-11.41-2.6-2.05-5.12-4.19-7.46-6.48-6.75-6.6-13.38-13.34-20.58-19.45-14.81-12.6-29.02-23.36-34.39-43.34-3.44-12.77-2.05-33.39,3.18-45.64,1.9-4.46,4.74-8.3,6.5-13.22,3.52-9.83,3.65-19.69,3.48-30.05,2.72,2.95,6.86,3.86,10.2,1.4.04,12.53-1.56,25.6,2.92,37.58l1.04,1.86-.71-8.22c-1.29-13.45,2.98-28.57.91-41.73-2.34-14.75-14.07-10.48-17.37.66l-1.16,4.06c-4.6-11.96-14.56-20.89-20.99-31.8-2.19-3.72-5.24-10.51-4.22-14.85.35-1.53,1.22-.72,2.1,0,4.2,3.42,8.97,11.41,12.65,15.89,4.36,5.3,9.19,10.29,14.97,14.04l.11-.35c-7.37-8.26-13.11-17.69-19.54-26.64-2.48-3.48-8.1-11.75-13.05-7.59-3.6,3.02-2.06,11.71-.35,15.54-5.53-2.23-7.59,1.06-6.62,6.27,1.41,7.48,6.51,15.09,10.49,21.45-6.65,8.82.37,19.43,5.59,26.97,4.12,5.95,8.79,11.54,13.03,17.39l.21.62-5.28,12.92c0-1.35-.03-2.71,0-4.07.01-1.2.03-1.18.2-2.33.43-2.98.75-4.22-.49-7.14-1.09-2.6-4.9-6.77-7.04-8.73-.85-.78-2.3-1.21-2.89-1.75-.46-.42-.87-1.65-1.41-2.3-2.01-2.43-4.9-2.56-7.53-1.04-1.41-2.4-4.32-3.03-6.86-3.49,1.93-2.56,5.13-3.99,8.35-3.71-.93,1.35-2.15,2.43-2.97,3.87-.12.2-.51.59-.17.77,1.1-1.49,5.13-3.16,5.94-4.51.71-1.25-.3-2.25-1.55-2.43-3.05-.43-6.4.59-8.34,2.99-.6.73-1.35,2.57-1.75,2.89-.55.46-2.71.87-3.47,1.52l.03.03c-.59-.33-1.46.57-1.16,1.16l-.93,2.09c2.53-1.99,4.01-3.09,7.32-2.1,5.61,1.68,4.58,4.58,3.13,9.28l1.35-1.54c1.37-1.99,1.94-3.91,1.44-6.32,6-1.52,6.21,4.74,7.64,8.68,1.16,3.2,3.01,6.15,5.1,8.81-2.97.02-6.59.48-8.46,3.15-.58.82-.64,1.75-1.21,2.52-11.27-1.85-19.1,10.3-19.69,20.19,3.28-6.81,10.49-18.73,19.02-19.03.41-.02,2.69.17,2.86.28.14.08,1.21,2.93,1.21,3.1-.01.55-1.6.95-2.18,1.3-.43.27-2.65,2.29-2.23,2.74,3.07-2.29,6.4-2.93,8.76.63.59.89,2.6,5.33,2.26,6.1-.14.33-1.16,1.11-1.51,1.53-2.02,2.45-3.99,5.71-6.53,7.63-1.23.94-2.72,1.29-3.93,2.22,4.16.06,7.34-1.78,9.4-5.33.93-1.6,1.5-3.88,2.38-5.27.11-.18.21-.66.53-.3.2.24.95,5.75.95,6.38,0,.5-.35,3.68-.49,3.9-.07.1-1.81.7-2.3.99-2.32,1.37-4.68,5.74-5.12,8.33-.03.13-.05.38.12.35,2.19-1.99,3.34-4.84,5.23-7.07.24-.28,1.55-1.67,1.73-1.74.47-.21.33.32.34.57.08,1.02-.25,5.01-.56,5.93-.74,2.11-6.96,7.2-8.84,9.03-4.12,4.05-7.1,8.26-8,14.16,1.97-2.38,3.31-5.18,5.35-7.53,3.93-4.55,9.31-8.39,11.14-14.51.43-.06.18.49.16.74-.75,6.69-3.02,13.66-5.25,19.97-3.31,1-6.2,2.37-8.37,5.15-.64.81-1.48,2.22-1.52,3.13,2.52-2.71,5.82-4.4,8.94-6.27-3.32,8.82-8.42,16.83-13.37,24.8l-.12.16c-4.78,6.98-9.56,13.95-14.35,20.92-3.53,5.16-7.09,10.33-10.62,15.49-1.55,2.26-3.1,4.5-4.64,6.76-1.96,2.86-4.25,5.42-5.19,8.84.42.33,1.06.27,1.52,0,.47-.27.81-.7,1.14-1.12,1.54-1.96,3.05-3.91,4.58-5.86,1.41-1.82,2.93-3.48,4.4-5.25,3.03-3.63,6-7.32,8.9-11.06,4.87-6.28,9.56-12.7,14.04-19.28,9.59-14.09,18.44-29.14,21.96-46.02,3.93,18.3,16.74,32.24,30.64,43.84,3.45,2.89,7.13,5.54,10.56,8.47,9.44,8.07,18.03,17.2,28.08,24.56,4.54,3.33,9.43,6.1,14.31,8.89.62.36,1.41.71,2.01.32.54-.35.6-1.13.33-1.7h-.01ZM240.79,137.79c.6-1.08,2.43-3.55,3.69-3.76h-.01c.43-.06.81.16,1.12.43,1.5,1.36,2.34,7.56,2.44,9.62.04.78.13,3.88-.03,4.38-.33.93-3.78.51-4.66.31-1.2-.27-4.89-2.01-5.07-3.31-.18-1.38,1.76-6.32,2.52-7.68ZM213.57,153.71c-3.22-5.13-5.92-9.74-4.25-16.04.11-.41.26-1.37.62-1.57,6.22,9.46,12.99,18.64,20.2,27.38-1.09-4.32-3.62-8.31-5.84-12.13-5.78-9.97-12.98-19.58-18.41-29.62-1.27-2.36-4.43-8.52-4.28-11.02.12-2.1,4.58-.34,5.33.45,1.22,1.27,2.92,4.66,4.12,6.32,6.3,8.73,16.05,17.66,20.74,27.05,2.01,4.01,1.23,6.21,1.35,10.5.12,3.83.51,7.74,0,11.59-.5,3.84-3.15,7.69-4.16,11.46v.02-.02c-.59.1-.35-.08-.49-.33-4.43-8.8-9.77-15.84-14.92-24.05ZM216.23,178.74c-.63-1.13-1.3-2.36-1.73-3.6-.11-.33-.34-1,.08-1.24.47-.27,1.05.52,1.31.81,1.85,1.97,3.43,4.2,4.69,6.58.25.47.47,1.09.12,1.48-.22.26-.63.3-.95.19-.33-.11-.59-.36-.84-.6-1.06-1.07-1.94-2.31-2.68-3.62h0ZM210.88,194.33c.29-2.39-1.19-4.21-3.49-4.64,1.46-2.69,4.12-3.63,7.09-3.48.56.03,2.52.32,2.9.58.43.31.05.35-.16.54-2.06,1.91-3.56,3.01-4.77,5.68-.42.93.03,1.55-1.58,1.32ZM219.92,203.6v-.03l-1.34-3.84c-1.13-2.47-3.05-4.81-5.84-5.41,1.5-2.55,4.2-3.99,6.62-5.56.24.16.29.31.33.58.32,1.66.29,3.6.5,5.3.14,1.22.83,3.43.79,4.44-.05,1.26-1.13,3.1-1.05,4.5v.03Z"/>
      </g>
    </g>
  </g>
</svg>