<?xml version="1.0" encoding="UTF-8"?>
<svg id="Capa_2" data-name="Capa 2" xmlns="http://www.w3.org/2000/svg" viewBox="0 0 427 427">
  <defs>
    <style>
      .cls-1 {
        fill: #d5d900;
      }

      .cls-2 {
        fill: #71160d;
      }

      .cls-3 {
        fill: #f5b5d3;
      }
    </style>
  </defs>
  <g id="Capa_1-2" data-name="Capa 1">
    <g>
      <circle class="cls-1" cx="213.5" cy="213.5" r="213.5"/>
      <path class="cls-3" d="M307.42,214.77c-.75,18.49-7.65,35.03-21.71,52.06-3.16,3.83-6.66,7.37-10.03,10.8-5.03,5.1-11.86,10.83-14.14,17.75-1.58,4.79-3.22,9.67-5.68,14.1-4.81,8.67-12.78,12.11-22.09,14.21-6.64,1.5-13.29,1.63-20.04,1.97-6.76.34-13.81.36-20.49-.24-6.55-.6-13.07-2.71-17.72-7.54-4.78-4.96-6.77-12.12-9.73-18.18-4.18-8.56-9.94-15.31-16.61-22.07-3.38-3.42-6.87-6.96-10.03-10.81-14.07-17.02-20.96-33.56-21.72-52.05-.4-9.94-.16-33.91,10.37-45,.43-.59,1.01-1.26,1.83-1.91,3.38-2.73,7.59-4.23,11.86-4.23,1.6,0,3.19.21,4.72.61,3.73-3.29,7.84-3.94,10.54-3.94.67,0,1.35.04,2.03.11,1.9.22,3.63.76,5.19,1.55-3.25-4.68-5.84-9.5-7.37-14.36-3.79-12.02-2.45-23.32,3.79-31.84,6.08-8.29,16.08-13.04,27.46-13.04,7.35,0,14.79,2.01,21.6,5.81,6.77-5.2,15.3-8.02,24.44-8.02,10.17,0,19.72,3.51,26.88,9.91.1.09.2.18.29.27,7.12,6.51,11.37,16.4,11.13,25.92-.24,9.59-3.83,17.53-9.04,24.44.92-.3,1.9-.51,2.93-.62.68-.08,1.37-.12,2.03-.12,2.7,0,6.82.65,10.55,3.94,1.53-.4,3.12-.61,4.72-.61,4.27,0,8.47,1.5,11.86,4.23.79.63,1.37,1.3,1.8,1.87,10.58,11.09,10.8,35.09,10.39,45.04Z"/>
      <path class="cls-2" d="M291.23,175.6v.02c-.2-.19-.26-.48-.53-.7-4.24-3.44-10.09-2.83-13.65,1.21-1.53-3.96-4.05-7.27-8.8-6.73-6.21.72-9.15,10.95-9.37,16.16-6.09-2.44-10.67,2.72-12.34,8.03-1.19,3.76-1.6,8.98-1.66,12.94-.03,2.6.23,5.15.23,7.75-6.53-8.39-12.79-2.64-14.56,5.61-1.6,7.46-.02,14.97,2.35,22.06-7.05,7.97-15,17.34-16.83,28.17-1.66,9.81,1.45,19.73.38,29.56-.16,1.55-.53,3.1-.9,4.6.53.56,2.42-2.86,2.56-3.17,4.18-8.69,1.68-19.34,3.37-28.53,2.3-12.49,17.14-28.1,27.04-35.72,1.82-1.4,9.4-6.95,11.37-6.66.91.14.63,2.28.55,3.02-.44,3.91-3.18,7.83-5.54,10.88-3.54,4.57-7.55,8.84-11.15,13.38-.13.58.52.13.73.05,5.25-2.05,11.85-8.3,15.75-12.4,9.8-10.31,15.93-20.28,17.14-34.8.56-6.82-.44-25.89,5.07-30.19,4.07-3.16,6.64,4.01,7.56,6.84,4.03,12.41,3.8,33.5-.74,45.73-6.1,16.45-18.15,27.34-28.82,40.47-6.73,8.26-15.13,21.01-10.69,32.15.14.36.2.81.74.72.52-6.89,2.38-13.12,6.13-18.92,6.24-9.62,15.9-17.24,23.19-26.08,11.46-13.88,18.89-28.34,19.64-46.66.43-10.43-.34-31.2-8.28-38.8h.04ZM234.51,240.71c-.2-7.07-.91-14.41,1.37-21.24.48-1.44,1.72-5.05,3.55-4.76,3.51.59,7.12,12.39,7.5,15.67l-12.42,10.33h0ZM258.24,224.63c-3.13.66-5.99,2.3-8.66,4.08l.22-14.07c.24-5.12.97-19.62,4.34-23.08,1.79-1.84,2.19-.46,2.71,1.39,1.07,3.83,1.12,10.16,1.22,14.24.14,5.81-.19,11.65.18,17.43h-.02,0ZM272.83,185.37c-2.29,9.75-.89,19.97-2.41,29.82-.78,5.04-2.38,9.64-4.62,14.17l-1.11-2.37c-.45-.37-.88-1.03-1.35-1.34-.52-.34-1.77-.47-1.73-1.1,2.98-11.11,2.24-22.74,3.09-34.12.25-3.52.54-7.31,1.44-10.71.62-2.33,2.6-7.83,5.7-4.85.97.93,2.49,4.56,2.44,5.86-.04.71-1.18,3.5-1.44,4.64Z"/>
      <path class="cls-2" d="M210.67,299.68c-1.07-9.83,2.04-19.74.38-29.56-1.83-10.82-9.78-20.2-16.83-28.17,2.36-7.09,3.95-14.6,2.35-22.06-1.78-8.24-8.03-13.98-14.56-5.61,0-2.59.26-5.14.24-7.75-.05-3.96-.46-9.17-1.66-12.94-1.68-5.32-6.26-10.48-12.34-8.03-.21-5.21-3.15-15.44-9.36-16.16-4.75-.54-7.27,2.77-8.8,6.73-3.56-4.04-9.41-4.66-13.65-1.21-.28.22-.34.51-.53.7v-.02c-7.92,7.6-8.7,28.37-8.28,38.8.75,18.32,8.19,32.78,19.64,46.66,7.29,8.85,16.95,16.46,23.2,26.08,3.76,5.8,5.62,12.03,6.13,18.92.53.09.61-.35.74-.72,4.45-11.14-3.95-23.89-10.69-32.15-10.68-13.12-22.71-24.01-28.82-40.47-4.55-12.24-4.77-33.33-.74-45.73.92-2.83,3.49-10.01,7.56-6.84,5.52,4.29,4.51,23.37,5.08,30.19,1.2,14.52,7.34,24.49,17.14,34.8,3.9,4.1,10.5,10.34,15.75,12.4.21.08.86.52.73-.05-3.6-4.54-7.6-8.8-11.15-13.38-2.36-3.05-5.09-6.97-5.54-10.88-.08-.73-.35-2.89.55-3.02,1.97-.29,9.55,5.25,11.37,6.66,9.91,7.62,24.74,23.23,27.04,35.72,1.68,9.19-.81,19.84,3.37,28.53.14.31,2.04,3.73,2.56,3.17-.37-1.51-.73-3.05-.9-4.6h.02ZM164.39,225.66c-.49.31-.94.97-1.42,1.34l-1.17,2.36c-2.36-4.52-4.04-9.13-4.86-14.16-1.6-9.86-.13-20.07-2.54-29.82-.27-1.13-1.48-3.93-1.51-4.64-.06-1.3,1.55-4.93,2.56-5.86,3.27-2.97,5.35,2.53,6,4.85.94,3.41,1.25,7.2,1.52,10.71.89,11.37.11,23,3.25,34.12.04.62-1.29.76-1.83,1.1h0ZM168.89,224.71h-.02c.37-5.69.05-11.42.18-17.13.1-4.01.15-10.23,1.22-13.99.52-1.83.91-3.18,2.71-1.38,3.37,3.41,4.1,17.65,4.35,22.68l.22,13.82c-2.67-1.74-5.52-3.36-8.66-4ZM192.63,240.71l-12.41-10.06c.37-3.19,3.98-14.69,7.5-15.26,1.82-.3,3.07,3.22,3.55,4.63,2.27,6.65,1.57,13.8,1.37,20.7h0Z"/>
      <path class="cls-2" d="M255.87,117.16h0c-11.5-10.26-30.96-10.22-42.11.56-.58.54-1.59,2.32-2.28,2.32-.28,0-3.86-2.76-4.62-3.21-22.33-13.1-49.29.23-40.5,28.03,5.42,17.17,28.28,35.48,41.74,47.32.77.68,5.92,5.24,6.33,5.22,2.56-2.86,4.67-6.24,7.25-9.15,13.7-15.39,42.01-28.34,42.58-51.89.17-7.04-3.21-14.58-8.41-19.21h0ZM247.12,156.99c-1.2,1.29-2.45,2.53-3.72,3.75-7.61,7.32-15.85,13.88-23.27,21.43-1.51,1.54-3.01,3.1-4.47,4.67-1.47,1.58-1.72,2.42-3.3.72-1.58-1.7-3.43-3.4-5.18-5.08-2.35-2.26-4.7-4.5-7.04-6.77-4.7-4.56-9.27-9.22-13.57-14.16-6.68-7.68-14.23-17.43-13.75-28.2.27-6.21,3.6-11.43,9.38-13.86,4.64-1.96,9.91-1.45,14.61,0,2.49.77,4.88,1.83,7.17,3.07,1.11.61,2.2,1.26,3.26,1.96,1.06.7,1.94,1.52,2.96,2.25.07.05.14.1.22.15.1.06.2.14.32.13.12,0,.22-.09.32-.16.71-.61,1.15-1.34,1.78-2.01.63-.67,1.28-1.31,1.94-1.95.9-.87,1.8-1.82,2.82-2.55,6.98-5.03,16.99-7.57,25.36-4.91,6.28,1.99,11.45,7.22,13.77,13.33,2.75,7.25.62,14.07-3.45,20.42-1.79,2.78-3.9,5.33-6.17,7.75h0Z"/>
    </g>
  </g>
</svg>