<svg width="36" height="36" viewBox="0 0 36 36" fill="none" xmlns="http://www.w3.org/2000/svg">
<g clip-path="url(#clip0_1061_1307)">
<path d="M33.3709 9.86244C33.1976 9.17033 32.8448 8.53619 32.3481 8.02407C31.8513 7.51196 31.2282 7.14 30.5417 6.94577C28.0334 6.33327 18 6.33327 18 6.33327C18 6.33327 7.96669 6.33327 5.45835 7.00411C4.77184 7.19833 4.14874 7.57029 3.65198 8.08241C3.15523 8.59452 2.80242 9.22866 2.62919 9.92077C2.17012 12.4664 1.94557 15.0487 1.95835 17.6354C1.94199 20.2415 2.16656 22.8435 2.62919 25.4083C2.82017 26.0789 3.18088 26.6889 3.67648 27.1794C4.17208 27.6699 4.7858 28.0242 5.45835 28.2083C7.96669 28.8791 18 28.8791 18 28.8791C18 28.8791 28.0334 28.8791 30.5417 28.2083C31.2282 28.014 31.8513 27.6421 32.3481 27.13C32.8448 26.6179 33.1976 25.9837 33.3709 25.2916C33.8264 22.7652 34.0509 20.2025 34.0417 17.6354C34.0581 15.0292 33.8335 12.4272 33.3709 9.86244Z" stroke="#31391A" stroke-width="2" stroke-linecap="round" stroke-linejoin="round"/>
<path d="M14.7188 22.4041L23.1042 17.6354L14.7188 12.8666V22.4041Z" stroke="#31391A" stroke-width="2" stroke-linecap="round" stroke-linejoin="round"/>
</g>
<defs>
<clipPath id="clip0_1061_1307">
<rect width="35" height="35" fill="white" transform="translate(0.5 0.499939)"/>
</clipPath>
</defs>
</svg>
